<?xml version="1.0" encoding="utf-8"?>
<!-- Generator: Adobe Illustrator 27.4.1, SVG Export Plug-In . SVG Version: 6.00 Build 0)  -->
<svg version="1.1" id="a" xmlns="http://www.w3.org/2000/svg" xmlns:xlink="http://www.w3.org/1999/xlink" x="0px" y="0px"
	 viewBox="0 0 598.8 607.4" style="enable-background:new 0 0 598.8 607.4;" xml:space="preserve">
<style type="text/css">
	.st0{fill:none;stroke:#000000;stroke-width:20;stroke-miterlimit:10;}
	.st1{fill:none;stroke:#000000;stroke-width:21;stroke-miterlimit:10;}
	.st2{fill:none;stroke:#000000;stroke-width:18;stroke-miterlimit:10;}
</style>
<polygon class="st0" points="119.9,326.8 122.9,361.7 180.4,418.9 181,419.5 238.5,476.8 273.4,479.6 555.4,42.6 "/>
<polygon class="st1" points="334.9,309.5 371.3,273 399.1,199.5 325.7,227.6 289.3,264.2 "/>
<g>
	<path class="st2" d="M406.8,87.8c-35.7-19.1-76.4-30-119.5-30c-143.1,0-259.2,119.3-259.2,266.5"/>
	<path class="st2" d="M287.3,590.8c143.1,0,259.2-119.3,259.2-266.5c0-51.3-14.1-99.1-38.5-139.8"/>
</g>
<polyline class="st2" points="134.8,294.7 104.1,270.7 150.7,218.4 277.6,197.2 "/>
<polyline class="st2" points="308.3,458.6 332.2,489.4 384.7,443 406.8,312.7 "/>
<polyline class="st2" points="150.1,412 97.6,437.2 166,503.4 186.8,449.7 "/>
</svg>
