<svg xmlns="http://www.w3.org/2000/svg" id="algorhythm" viewBox="0 0 1024 1234" width="64" height="64"><path d="M1015 570L896 689v244q0 13-9.5 22.5T864 965H481q-30 29-81 46.5T288 1029q-93 0-158.5-37.5T64 901q0-48 55-83.5T256 775V645H64q-26 0-45-19T0 581V453q0-27 19-45.5T64 389h192V259q-82-7-137-42.5T64 133q0-53 65.5-90.5T288 5t158.5 37.5T512 133q0 48-55 83.5T320 259v130h192q27 0 45.5 18.5T576 453v64h146l120-120q9-9 21.5-9t21.5 9l130 130q9 9 9 21.5t-9 21.5zm-503 75H320v130q82 7 137 42.5t55 83.5h320V690L723 581H576q0 26-18.5 45T512 645z"/></svg>