<svg xmlns="http://www.w3.org/2000/svg" viewBox="0 0 24 24" id="android">
  <path d="M14.541 24c-1.103 0-2-.897-2-2v-2.5a.5.5 0 0 1 .5-.5h3a.5.5 0 0 1 .5.5V22c0 1.103-.897 2-2 2zm-1-4v2a1.001 1.001 0 0 0 2 0v-2h-2zm-4.022 4c-1.103 0-2-.897-2-2v-2.5a.5.5 0 0 1 .5-.5h3a.5.5 0 0 1 .5.5V22c0 1.103-.898 2-2 2zm-1-4v2a1.001 1.001 0 0 0 2 0v-2h-2zM20 18c-1.103 0-2-.897-2-2v-6c0-1.103.897-2 2-2s2 .897 2 2v6c0 1.103-.897 2-2 2zm0-9c-.552 0-1 .449-1 1v6a1.001 1.001 0 0 0 2 0v-6c0-.551-.448-1-1-1zM4 18c-1.103 0-2-.897-2-2v-6c0-1.103.897-2 2-2s2 .897 2 2v6c0 1.103-.897 2-2 2zm0-9c-.552 0-1 .449-1 1v6a1.001 1.001 0 0 0 2 0v-6c0-.551-.448-1-1-1z"></path>
  <path d="M16.5 20h-9A2.503 2.503 0 0 1 5 17.5v-9a.5.5 0 0 1 .5-.5h13a.5.5 0 0 1 .5.5v9c0 1.378-1.121 2.5-2.5 2.5zM6 9v8.5c0 .827.673 1.5 1.5 1.5h9c.827 0 1.5-.673 1.5-1.5V9H6z"></path>
  <path d="M18.5 9a.5.5 0 0 1-.5-.5V8c0-3.309-2.691-6-6-6S6 4.691 6 8v.5a.5.5 0 0 1-1 0V8c0-3.86 3.141-7 7-7s7 3.14 7 7v.5a.5.5 0 0 1-.5.5z"></path>
  <path d="M9.546 6.527a1.001 1.001 0 0 1 0-2 1.001 1.001 0 0 1 0 2zm0-1.001c0 .001 0 .001 0 0h.5-.5zm4.94 1.001a1.001 1.001 0 0 1 0-2 1.001 1.001 0 0 1 0 2zm0-1.001s0 .001 0 0l.5.001-.5-.001zM8.547 2.994a.502.502 0 0 1-.354-.146L6.173.827A.5.5 0 0 1 6.88.12L8.9 2.14a.5.5 0 0 1-.353.854zm6.942 0a.5.5 0 0 1-.354-.853L17.156.12a.5.5 0 0 1 .707.707l-2.021 2.021a.498.498 0 0 1-.353.146z"></path>
</svg>
