<?xml version="1.0" encoding="utf-8"?>
<!-- Generator: Adobe Illustrator 23.0.6, SVG Export Plug-In . SVG Version: 6.00 Build 0)  -->
<svg version="1.1" id="Layer_1" xmlns="http://www.w3.org/2000/svg" xmlns:xlink="http://www.w3.org/1999/xlink" x="0px" y="0px"
	 viewBox="0 0 250 57.6" style="enable-background:new 0 0 250 57.6;" xml:space="preserve">
<style type="text/css">
	.st0{fill:#393B3B;}
	.st1{fill:#3F8EB0;}
	.st2{fill:#FFFFFF;}
</style>
<g>
	<rect x="27.6" y="34.2" class="st0" width="4.3" height="17"/>
	<path class="st0" d="M66.5,39.1c-0.2-0.1-1.6-0.9-3.6-0.9c-2.8,0-4.7,1.9-4.7,4.5c0,2.5,1.8,4.5,4.7,4.5c2,0,3.4-0.8,3.6-0.9v4.6
		c-0.5,0.2-2,0.6-3.9,0.6c-4.8,0-9-3.3-9-8.8c0-5.1,3.8-8.8,9-8.8c2,0,3.5,0.5,3.9,0.6V39.1z"/>
	<path class="st0" d="M21.8,39.1c-0.2-0.1-1.6-0.9-3.6-0.9c-2.8,0-4.7,1.9-4.7,4.5c0,2.5,1.8,4.5,4.7,4.5c2,0,3.4-0.8,3.6-0.9v4.6
		c-0.5,0.2-2,0.6-3.9,0.6c-4.8,0-9-3.3-9-8.8c0-5.1,3.8-8.8,9-8.8c2,0,3.5,0.5,3.9,0.6V39.1z"/>
	<path class="st0" d="M48.2,38.1c-0.1,0-1.9-0.5-3.4-0.5c-1.7,0-2.6,0.6-2.6,1.4c0,1,1.3,1.4,2,1.6l1.2,0.4c2.8,0.9,4,2.8,4,4.9
		c0,4.3-3.8,5.7-7,5.7c-2.3,0-4.4-0.4-4.6-0.5v-3.9c0.4,0.1,2.2,0.6,4,0.6c2.1,0,3.1-0.6,3.1-1.6c0-0.9-0.8-1.4-1.9-1.7
		c-0.3-0.1-0.6-0.2-0.9-0.3c-2.4-0.8-4.4-2.2-4.4-5c0-3.2,2.4-5.3,6.3-5.3c2.1,0,4,0.5,4.2,0.5V38.1z"/>
	<path class="st0" d="M4.3,16c0-1.2-1-2.1-2.1-2.1C1,13.9,0,14.8,0,16v4.5c0,1.2,1,2.1,2.1,2.1c1.2,0,2.1-0.9,2.1-2.1V16z"/>
	<path class="st0" d="M15.9,10.1C15.9,9,15,8,13.8,8c-1.2,0-2.1,1-2.1,2.1v10.3c0,1.2,1,2.1,2.1,2.1c1.2,0,2.1-0.9,2.1-2.1V10.1z"/>
	<path class="st0" d="M27.6,2.1c0-1.2-1-2.1-2.1-2.1c-1.2,0-2.1,0.9-2.1,2.1v22.6c0,1.2,1,2.1,2.1,2.1c1.2,0,2.1-1,2.1-2.1V2.1z"/>
	<path class="st0" d="M39.3,10.1c0-1.2-1-2.1-2.1-2.1c-1.2,0-2.1,1-2.1,2.1v10.3c0,1.2,1,2.1,2.1,2.1c1.2,0,2.1-0.9,2.1-2.1V10.1z"
		/>
	<path class="st0" d="M51,16c0-1.2-1-2.1-2.1-2.1c-1.2,0-2.1,0.9-2.1,2.1v4.5c0,1.2,1,2.1,2.1,2.1c1.2,0,2.1-0.9,2.1-2.1V16z"/>
	<path class="st0" d="M62.7,10.1c0-1.2-1-2.1-2.1-2.1c-1.2,0-2.1,1-2.1,2.1v10.3c0,1.2,1,2.1,2.1,2.1c1.2,0,2.1-0.9,2.1-2.1V10.1z"
		/>
	<path class="st0" d="M74.4,2.1c0-1.2-0.9-2.1-2.1-2.1c-1.2,0-2.1,0.9-2.1,2.1v22.6c0,1.2,1,2.1,2.1,2.1c1.2,0,2.1-1,2.1-2.1V2.1z"
		/>
	<path class="st0" d="M86.1,10.1c0-1.2-1-2.1-2.2-2.1c-1.2,0-2.1,1-2.1,2.1v10.3c0,1.2,0.9,2.1,2.1,2.1c1.2,0,2.2-0.9,2.2-2.1V10.1z
		"/>
	<path class="st0" d="M97.7,16c0-1.2-1-2.1-2.1-2.1c-1.2,0-2.1,0.9-2.1,2.1v4.5c0,1.2,0.9,2.1,2.1,2.1c1.2,0,2.1-0.9,2.1-2.1V16z"/>
	<polygon class="st0" points="95.3,49 95.3,49.2 94.5,49.2 94.5,51.2 94.2,51.2 94.2,49.2 93.5,49.2 93.5,49 	"/>
	<polygon points="95.4,49 95.9,49 96.6,50.8 96.6,50.8 97.3,49 97.7,49 97.7,51.2 97.4,51.2 97.4,49.4 97.4,49.4 96.7,51.2 
		96.4,51.2 95.8,49.4 95.8,49.4 95.8,51.2 95.4,51.2 	"/>
	<path class="st1" d="M113.9,21.6V2.4h2.7l6.1,9.7c1.4,2.2,2.5,4.3,3.4,6.2l0.1,0c-0.2-2.6-0.3-4.9-0.3-7.9v-8h2.3v19.1h-2.5
		l-6.1-9.7c-1.3-2.1-2.6-4.3-3.6-6.4l-0.1,0c0.1,2.4,0.2,4.7,0.2,7.9v8.2H113.9z"/>
	<path class="st1" d="M149.7,3.9v3.9h3.6v1.9h-3.6v7.4c0,1.7,0.5,2.7,1.9,2.7c0.7,0,1.1-0.1,1.4-0.2l0.1,1.9
		c-0.5,0.2-1.2,0.3-2.2,0.3c-1.2,0-2.1-0.4-2.7-1.1c-0.7-0.7-1-2-1-3.6V9.7h-2.1V7.8h2.1V4.5L149.7,3.9z"/>
	<path class="st1" d="M157.4,7.8l1.8,7c0.4,1.5,0.8,3,1,4.4h0.1c0.3-1.4,0.8-2.9,1.2-4.3l2.2-7h2.1l2.1,6.9c0.5,1.6,0.9,3.1,1.2,4.5
		h0.1c0.2-1.4,0.6-2.8,1.1-4.5l2-6.9h2.5l-4.4,13.7h-2.3L166,15c-0.5-1.5-0.9-2.9-1.2-4.5h-0.1c-0.3,1.6-0.8,3.1-1.2,4.5l-2.2,6.5
		h-2.3l-4.1-13.7H157.4z"/>
	<path class="st1" d="M192.6,12.1c0-1.6,0-3-0.1-4.3h2.2l0.1,2.7h0.1c0.6-1.8,2.1-3,3.8-3c0.3,0,0.5,0,0.7,0.1V10
		c-0.3-0.1-0.5-0.1-0.9-0.1c-1.8,0-3,1.3-3.4,3.2c-0.1,0.3-0.1,0.7-0.1,1.2v7.3h-2.5V12.1z"/>
	<path class="st1" d="M204.4,14.1L204.4,14.1c0.4-0.5,0.9-1.1,1.3-1.6l4-4.7h3l-5.3,5.7l6,8.1h-3l-4.7-6.6l-1.3,1.4v5.2H202V1.4h2.5
		V14.1z"/>
	<path class="st1" d="M218.5,4c0,0.9-0.6,1.5-1.6,1.5c-0.9,0-1.5-0.7-1.5-1.5c0-0.9,0.7-1.6,1.6-1.6C217.9,2.4,218.5,3.1,218.5,4"/>
	<rect x="215.8" y="7.8" class="st1" width="2.5" height="13.7"/>
	<path class="st1" d="M222.4,11.5c0-1.4,0-2.6-0.1-3.7h2.2l0.1,2.3h0.1c0.7-1.3,2.3-2.6,4.5-2.6c1.9,0,4.9,1.1,4.9,5.8v8.2h-2.5
		v-7.9c0-2.2-0.8-4.1-3.2-4.1c-1.6,0-2.9,1.2-3.4,2.6c-0.1,0.3-0.2,0.7-0.2,1.2v8.3h-2.5V11.5z"/>
	<path class="st1" d="M182.7,20c-2.4,0-4.2-2.3-4.2-5.3c0-2.6,1.3-5.3,4.2-5.3c3,0,4.1,3,4.1,5.3C186.9,17.8,185.1,20,182.7,20
		 M182.8,7.5c-3.8,0-6.8,2.7-6.8,7.3c0,4.3,2.9,7.1,6.6,7.1c3.3,0,6.8-2.2,6.8-7.3C189.4,10.4,186.7,7.5,182.8,7.5"/>
	<path class="st1" d="M247.4,15.7c0,0.4-0.1,0.9-0.2,1.3c-0.5,1.6-1.9,2.6-3.5,2.6c-2.7,0-4.1-2.2-4.1-4.9c0-3.2,1.7-5.2,4.1-5.2
		c1.8,0,3,1.2,3.5,2.6c0.1,0.3,0.1,0.7,0.1,1.1V15.7z M247.8,7.8l-0.1,2.1h-0.1c-0.6-1.1-1.9-2.4-4.3-2.4c-3.2,0-6.2,2.6-6.2,7.3
		c0,3.8,2.4,6.7,5.8,6.7c2.1,0,3.6-1,4.4-2.3h0.1v1.5c0,3.5-1.9,4.8-4.4,4.8c-1.7,0-3.1-0.5-4-1.1l-0.6,1.9c1.1,0.7,2.9,1.1,4.6,1.1
		c1.7,0,3.7-0.4,5-1.6c1.3-1.2,2-3.1,2-6.3v-8c0-1.7,0.1-2.8,0.1-3.8H247.8z"/>
	<path class="st1" d="M140.6,50.8c-0.7,0.3-2.1,0.8-3.9,0.8c-4.1,0-6.8-2.8-6.8-7c0-4.2,2.9-7.3,7.4-7.3c1.5,0,2.8,0.4,3.5,0.7
		l-0.6,1.9c-0.6-0.3-1.5-0.7-2.9-0.7c-3.2,0-4.9,2.3-4.9,5.2c0,3.2,2,5.1,4.8,5.1c1.4,0,2.4-0.4,3.1-0.7L140.6,50.8z"/>
	<path class="st1" d="M187.5,41.3c0-1.4,0-2.6-0.1-3.7h2.2l0.1,2.2h0.1c0.8-1.3,2-2.5,4.3-2.5c1.9,0,3.3,1.1,3.9,2.8h0.1
		c0.4-0.8,1-1.4,1.5-1.8c0.8-0.6,1.7-1,3-1c1.8,0,4.5,1.2,4.5,6v8.1h-2.4v-7.8c0-2.6-1-4.2-3-4.2c-1.4,0-2.5,1.1-3,2.3
		c-0.1,0.3-0.2,0.8-0.2,1.3v8.5h-2.4v-8.2c0-2.2-1-3.8-2.9-3.8c-1.6,0-2.7,1.3-3.1,2.5c-0.1,0.4-0.2,0.8-0.2,1.2v8.3h-2.4V41.3z"/>
	<path class="st1" d="M211.7,37.6l3,8.1c0.3,0.9,0.7,2,0.9,2.8h0.1c0.3-0.8,0.5-1.9,0.9-2.9l2.7-8.1h2.6l-3.7,9.8
		c-1.8,4.7-3,7.1-4.7,8.6c-1.2,1.1-2.4,1.5-3.1,1.6l-0.6-2.1c0.6-0.2,1.4-0.6,2.2-1.2c0.7-0.5,1.5-1.5,2.1-2.8
		c0.1-0.3,0.2-0.5,0.2-0.6c0-0.1-0.1-0.3-0.2-0.7L209,37.6H211.7z"/>
	<path class="st0" d="M80,47.2c-2.5,0-4.4-2-4.4-4.5c0-2.5,1.9-4.5,4.4-4.5c2.5,0,4.4,2,4.4,4.5C84.4,45.2,82.5,47.2,80,47.2
		 M80,33.9c-5.2,0-9,3.9-9,8.8c0,4.9,3.7,8.8,9,8.8c5.2,0,9-3.9,9-8.8C88.9,37.9,85.2,33.9,80,33.9"/>
	<path class="st1" d="M117.5,43.4l1.9-5.5c0.4-1.2,0.7-2.3,1-3.5h0.1c0.3,1.1,0.6,2.2,1,3.5l1.9,5.5H117.5z M118.9,32.2l-6.5,19.1
		h2.6l2-6h6.8l2,6h2.6l-6.5-19.1H118.9z"/>
	<path class="st1" d="M150.8,46.7c0,0.3-0.1,0.5-0.1,0.8c-0.4,1.2-1.5,2.3-3.3,2.3c-1.3,0-2.4-0.8-2.4-2.4c0-2.7,3.1-3.2,5.8-3.1
		V46.7z M153.2,42.9c0-2.8-1-5.6-5.2-5.6c-1.7,0-3.4,0.5-4.5,1.2l0.6,1.6c1-0.6,2.3-1,3.6-1c2.8,0,3.1,2,3.1,3.2v0.3
		c-5.3,0-8.3,1.8-8.3,5.1c0,2,1.4,3.9,4.2,3.9c2,0,3.4-1,4.2-2h0.1l0.2,1.7h2.3c-0.2-0.9-0.2-2.1-0.2-3.3V42.9z"/>
	<path class="st1" d="M166.6,45.6c0,0.4,0,0.7-0.1,1.1c-0.5,1.9-2,3-3.7,3c-2.7,0-4.1-2.3-4.1-5.1c0-3,1.5-5.3,4.1-5.3
		c1.9,0,3.2,1.3,3.6,2.9c0.1,0.3,0.1,0.7,0.1,1.1V45.6z M169.1,31.2h-2.5v8.2h-0.1c-0.6-1.1-2-2.1-4.1-2.1c-3.4,0-6.2,2.8-6.2,7.4
		c0,4.2,2.6,7,5.9,7c2.2,0,3.9-1.2,4.7-2.7h0.1l0.1,2.4h2.2c-0.1-0.9-0.1-2.3-0.1-3.5V31.2z"/>
	<path class="st1" d="M174.7,43.1c0.2-1.7,1.3-4.1,3.8-4.1c2.8,0,3.5,2.5,3.5,4.1H174.7z M178.7,37.3c-4,0-6.4,3.3-6.4,7.4
		c0,4.1,2.5,6.9,6.8,6.9c2.2,0,3.7-0.5,4.6-0.9l-0.4-1.8c-0.9,0.4-2,0.7-3.8,0.7c-2.5,0-4.7-1.4-4.7-4.8h9.7c0-0.3,0.1-0.7,0.1-1.2
		C184.4,41.2,183.2,37.3,178.7,37.3"/>
	<path class="st1" d="M137.7,9.3c2.8,0,3.5,2.5,3.5,4.1h-7.3C134.1,11.6,135.2,9.3,137.7,9.3 M142.4,19.2c-0.9,0.4-2,0.7-3.8,0.7
		c-2.5,0-4.7-1.4-4.7-4.8h9.7c0-0.3,0.1-0.7,0.1-1.2c0-2.5-1.2-6.5-5.7-6.5c-4,0-6.4,3.3-6.4,7.4s2.5,6.9,6.8,6.9
		c2.2,0,3.7-0.5,4.6-0.9L142.4,19.2z"/>
</g>
</svg>
