<svg xmlns="http://www.w3.org/2000/svg" id="data" viewBox="0 0 512 512.1356" width="64" height="64">
    <path d="M256 .01c-107.904 0-224 32.526-224 104v303.998c0 71.44 116.096 104 224 104 107.888 0 224-32.56 224-104v-304c0-71.472-116.128-104-224-104zm192 407.998c0 39.745-85.968 72-192 72-106.048 0-192-32.255-192-72v-59.775c33.056 34.063 112.8 51.776 192 51.776s158.944-17.713 192-51.777v59.776zm0-96h-.064c0 .16.064.337.064.497 0 39.504-85.968 71.504-192 71.504s-192-32-192-71.505c0-.16.064-.336.064-.496H64v-59.777c33.056 34.063 112.8 51.776 192 51.776s158.944-17.713 192-51.777v59.776zm0-96h-.064c0 .16.064.336.064.496 0 39.505-85.968 71.505-192 71.505s-192-32-192-71.505c0-.16.064-.336.064-.496H64V161.03c41.936 31.952 118.8 46.976 192 46.976s150.064-15.025 192-46.977v54.976zm-192-40c-106.048 0-192-32.256-192-72 0-39.775 85.952-72 192-72 106.032 0 192 32.224 192 72 0 39.745-85.968 72-192 72zm128 240a16-16 180 1 0 32 0 16-16 180 1 0-32 0zm0-96a16-16 180 1 0 32 0 16-16 180 1 0-32 0zm0-96a16-16 180 1 0 32 0 16-16 180 1 0-32 0z"/>
</svg>