<svg xmlns="http://www.w3.org/2000/svg" viewBox="0 0 32 32" id="TeamStructure"><path d="M13.496 4c0 1.379 1.121 2.5 2.5 2.5s2.5-1.121 2.5-2.5-1.121-2.5-2.5-2.5-2.5 1.121-2.5 2.5zm4 0c0 .827-.673 1.5-1.5 1.5s-1.5-.673-1.5-1.5.673-1.5 1.5-1.5 1.5.673 1.5 1.5zM1.004 28c0 1.379 1.121 2.5 2.5 2.5s2.5-1.121 2.5-2.5-1.121-2.5-2.5-2.5-2.5 1.121-2.5 2.5zm2.5-1.5c.827 0 1.5.673 1.5 1.5s-.673 1.5-1.5 1.5-1.5-.673-1.5-1.5.673-1.5 1.5-1.5zM30.996 28c0-1.379-1.121-2.5-2.5-2.5s-2.5 1.121-2.5 2.5 1.121 2.5 2.5 2.5 2.5-1.121 2.5-2.5zm-2.5 1.5c-.827 0-1.5-.673-1.5-1.5s.673-1.5 1.5-1.5 1.5.673 1.5 1.5-.673 1.5-1.5 1.5zM15.504 30.5c1.379 0 2.5-1.121 2.5-2.5s-1.121-2.5-2.5-2.5-2.5 1.121-2.5 2.5 1.121 2.5 2.5 2.5zm0-4c.827 0 1.5.673 1.5 1.5s-.673 1.5-1.5 1.5-1.5-.673-1.5-1.5.673-1.5 1.5-1.5zM9.504 18.5c1.379 0 2.5-1.121 2.5-2.5s-1.121-2.5-2.5-2.5-2.5 1.121-2.5 2.5 1.121 2.5 2.5 2.5zm0-4c.827 0 1.5.673 1.5 1.5s-.673 1.5-1.5 1.5-1.5-.673-1.5-1.5.673-1.5 1.5-1.5zM22.504 18.5c1.379 0 2.5-1.121 2.5-2.5s-1.121-2.5-2.5-2.5-2.5 1.121-2.5 2.5 1.121 2.5 2.5 2.5zm0-4c.827 0 1.5.673 1.5 1.5s-.673 1.5-1.5 1.5-1.5-.673-1.5-1.5.673-1.5 1.5-1.5zM22.004 11v1a.5.5 0 0 0 1 0v-1c0-.827-.673-1.5-1.5-1.5h-4.5a.501.501 0 0 1-.5-.5V8a.5.5 0 0 0-1 0v1c0 .275-.225.5-.5.5h-4.5c-.827 0-1.5.673-1.5 1.5v1a.5.5 0 0 0 1 0v-1c0-.275.225-.5.5-.5h4.5c.386 0 .734-.15 1-.39.266.24.614.39 1 .39h4.5c.275 0 .5.225.5.5zM9.504 22.11c.266.24.614.39 1 .39h4c.275 0 .5.225.5.5v1a.5.5 0 0 0 1 0v-1c0-.827-.673-1.5-1.5-1.5h-4a.501.501 0 0 1-.5-.5v-1a.5.5 0 0 0-1 0v1c0 .275-.225.5-.5.5h-4c-.827 0-1.5.673-1.5 1.5v1a.5.5 0 0 0 1 0v-1c0-.275.225-.5.5-.5h4c.385 0 .734-.15 1-.39zM23.504 22.5h4c.275 0 .5.225.5.5v1a.5.5 0 0 0 1 0v-1c0-.827-.673-1.5-1.5-1.5h-4a.501.501 0 0 1-.5-.5v-1a.5.5 0 0 0-1 0v1c0 .827.673 1.5 1.5 1.5z" fill="#000000" class="color000000 svgShape"></path></svg>