<?xml version="1.0" ?>
<!DOCTYPE svg  PUBLIC '-//W3C//DTD SVG 1.1//EN'  'http://www.w3.org/Graphics/SVG/1.1/DTD/svg11.dtd'>
<svg version="1.1" viewBox="0, 0, 100, 100" width="25" xmlns="http://www.w3.org/2000/svg" xmlns:xlink="http://www.w3.org/1999/xlink">
    <g id="Layer_2">
        <path d="M46.97,37.51 L47.32,37.863 C47.929,38.476 48.099,38.647 48.249,38.795 C48.408,38.951 48.585,39.127 49.2,39.747 L50.038,40.592 L49.196,41.433 L41.427,49.202 L40.583,48.354 C39.955,47.725 39.772,47.543 39.604,47.383 C39.604,47.383 39.604,47.383 39.604,47.383 C39.404,47.191 39.213,47.004 38.584,46.374 L38.235,46.024 L38.235,37.51 L46.97,37.51 z" fill="#000000"/>
        <path d="M28.213,27.42 C32.172,27.42 35.922,28.775 39.351,31.022 C40.542,31.802 41.609,32.638 42.541,33.475 C42.869,33.769 43.157,34.044 43.404,34.293 C43.556,34.446 43.664,34.559 43.724,34.626 L45.558,36.65 L42.826,36.622 C42.61,36.62 42.61,36.62 41.744,36.611 C40.663,36.6 40.663,36.6 39.364,36.587 C38.614,36.58 37.864,36.572 37.114,36.564 C37.116,37.167 37.118,37.769 37.121,38.371 C37.124,39.304 37.128,40.237 37.132,41.17 C37.135,42.032 37.135,42.032 37.136,42.248 L37.147,44.994 L35.13,43.13 C35.112,43.113 35.067,43.073 34.996,43.013 C34.872,42.907 34.725,42.787 34.556,42.657 C34.071,42.282 33.519,41.905 32.915,41.554 C31.166,40.537 29.358,39.949 27.614,39.986 C21.67,40.113 17.659,43.486 17.533,49.61 C17.404,55.828 21.498,59.94 27.605,60.007 C30.155,60.036 32.307,59.207 34.092,57.8 C34.708,57.315 35.234,56.795 35.668,56.277 C35.818,56.099 35.944,55.935 36.047,55.791 C36.081,55.743 36.11,55.702 36.133,55.668 C36.144,55.651 36.15,55.642 36.149,55.643 L36.214,55.539 L36.299,55.45 C36.43,55.313 36.43,55.313 37.019,54.695 C37.805,53.871 37.805,53.871 38.919,52.705 C41.539,49.959 41.539,49.959 44.683,46.665 C47.827,43.371 47.827,43.371 50.447,40.625 C51.56,39.459 51.56,39.459 52.346,38.635 C52.936,38.017 52.936,38.017 53.067,37.88 L53.426,37.504 C61.034,37.59 61.31,37.601 62.114,37.595 C62.151,39.404 62.221,46.042 62.221,46.042 L61.885,46.391 C61.851,46.427 61.851,46.427 61.688,46.597 C61.527,46.764 61.34,46.959 61.129,47.178 C60.528,47.804 59.858,48.501 59.136,49.253 C57.075,51.4 55.013,53.549 53.089,55.558 C53.065,55.584 53.065,55.584 53.04,55.61 C48.715,60.126 45.73,63.259 44.7,64.371 C44.604,64.475 43.701,65.469 43.397,65.793 C42.821,66.407 42.295,66.931 41.734,67.435 C38.04,70.755 33.434,72.58 26.72,72.58 C21.928,72.58 16.517,70.342 12.346,66.563 C7.68,62.335 4.937,56.603 4.937,50.135 C4.937,43.561 7.615,37.766 12.276,33.57 C16.629,29.65 22.427,27.42 28.213,27.42 z M19.719,59.837 C19.714,60.309 19.71,60.781 19.706,61.253 C19.695,62.483 19.695,62.483 19.685,63.509 C19.678,64.33 19.678,64.33 19.676,64.535 L19.67,65.233 L18.972,65.245 C18.762,65.249 18.762,65.249 17.92,65.264 C16.867,65.282 16.867,65.282 15.605,65.304 C15.257,65.31 14.91,65.316 14.562,65.323 C17.943,68.217 22.259,70.059 26.72,70.19 C31.744,70.148 35.298,69.338 39.342,66.322 C39.33,65.469 39.317,64.616 39.305,63.764 C39.283,62.225 39.283,62.225 39.264,60.942 C39.258,60.522 39.261,60.716 39.256,60.359 L39.128,60.357 C38.301,60.348 38.301,60.348 37.308,60.337 C36.316,60.326 36.316,60.326 35.489,60.316 C35.221,60.313 34.952,60.31 34.684,60.307 C32.596,61.765 30.096,62.371 27.579,62.397 C24.821,62.321 21.892,61.638 19.719,59.837 z M54.437,39.906 C54.205,40.149 54.325,40.022 54.075,40.285 C53.289,41.108 53.289,41.108 52.175,42.275 C49.555,45.02 49.555,45.02 46.411,48.315 C43.267,51.609 43.267,51.609 40.647,54.354 C39.534,55.521 39.534,55.521 38.748,56.345 C38.533,56.57 38.317,56.796 38.102,57.021 L37.99,57.182 C37.852,57.375 37.689,57.586 37.499,57.813 C36.887,58.506 37.23,58.142 36.456,58.893 C36.745,58.897 37.035,58.9 37.324,58.903 C38.317,58.914 38.317,58.914 39.144,58.924 C39.805,58.931 39.805,58.931 39.971,58.933 L40.669,58.941 L40.679,59.639 C40.683,59.896 40.683,59.896 40.698,60.922 C40.71,61.772 40.722,62.622 40.735,63.472 C40.757,65.035 40.75,64.503 40.758,65.069 C41.397,64.436 41.1,64.74 41.654,64.159 C41.942,63.851 42.838,62.865 42.947,62.748 C43.991,61.621 46.976,58.487 51.314,53.957 C51.339,53.931 51.339,53.931 51.364,53.906 C53.288,51.896 55.351,49.746 57.413,47.598 C58.135,46.846 58.805,46.148 59.406,45.522 C59.745,45.17 59.605,45.316 59.826,45.085 C59.825,44.779 59.826,44.97 59.823,44.512 C59.818,43.718 59.813,42.924 59.808,42.183 C59.806,41.874 59.804,41.58 59.802,41.304 C59.797,40.508 59.8,40.953 59.793,39.969 C59.008,39.96 58.223,39.95 57.438,39.941 C57.425,39.941 57.425,39.941 57.411,39.941 C56.645,39.932 55.825,39.922 55.007,39.912 C54.635,39.908 54.825,39.91 54.437,39.906 z M12.264,37.003 C8.921,40.571 7.449,45.33 7.327,50.135 C7.427,55.849 9.258,59.747 13.05,63.915 L13.264,63.912 C13.896,63.9 14.529,63.889 15.161,63.878 C16.072,63.862 16.983,63.846 17.894,63.83 C18.198,63.825 18.08,63.827 18.249,63.824 C18.25,63.677 18.249,63.786 18.252,63.496 C18.261,62.47 18.261,62.47 18.272,61.24 C18.283,60.009 18.283,60.009 18.293,58.983 C18.296,58.652 18.294,58.802 18.297,58.533 C15.98,56.154 15.148,52.789 15.144,49.561 C15.17,46.973 15.904,44.487 17.383,42.365 L16.912,42.361 C15.974,42.353 15.036,42.345 14.098,42.337 C13.232,42.329 13.232,42.329 13.015,42.327 L12.311,42.321 L12.305,41.617 C12.303,41.411 12.303,41.411 12.296,40.588 C12.287,39.56 12.287,39.56 12.276,38.325 C12.272,37.884 12.268,37.444 12.264,37.003 z M28.213,29.81 C23.018,29.81 17.789,31.82 13.874,35.345 L13.684,35.525 C13.687,35.867 13.686,35.693 13.689,36.049 C13.698,37.078 13.698,37.078 13.709,38.312 C13.72,39.547 13.72,39.547 13.729,40.576 C13.732,40.865 13.731,40.757 13.732,40.9 C13.92,40.902 13.794,40.9 14.111,40.903 C14.761,40.909 15.412,40.914 16.062,40.92 C17.855,40.935 17,40.928 18.626,40.942 C21.019,38.608 24.304,37.727 27.563,37.597 C29.806,37.549 32.018,38.269 34.115,39.488 C34.666,39.821 34.463,39.686 34.737,39.871 C34.736,39.642 34.737,39.853 34.735,39.238 C34.731,38.305 34.727,37.372 34.724,36.439 C34.72,35.577 34.72,35.577 34.72,35.362 L34.715,34.15 L35.926,34.163 C36.143,34.165 36.143,34.165 37.008,34.174 C38.09,34.185 38.09,34.185 39.389,34.198 L39.661,34.201 C38.58,33.367 39.121,33.759 38.041,33.021 C34.971,31.009 31.652,29.81 28.213,29.81 z" fill="#000000"/>
        <path d="M80.212,56.614 C80.222,57.641 80.214,56.807 80.237,59.115 L80.274,62.761 C80.289,64.228 80.289,64.228 80.292,64.595 L80.299,65.3 L81.005,65.304 C81.337,65.306 81.337,65.306 82.663,65.314 C84.321,65.323 84.321,65.323 86.31,65.334 C88.526,65.346 87.672,65.342 88.873,65.348 C88.243,66.042 88.638,65.627 87.654,66.563 C83.483,70.342 78.072,72.58 73.28,72.58 C66.566,72.58 61.96,70.756 58.266,67.435 C57.737,66.948 57.984,67.184 57.523,66.728 C57.525,66.37 57.527,66.011 57.529,65.653 C57.538,63.995 57.538,63.995 57.549,62.006 C57.56,60.017 57.56,60.017 57.57,58.359 C57.573,57.75 57.571,58.067 57.575,57.407 C57.951,57.403 58.327,57.399 58.703,57.396 C60.177,57.381 61.651,57.366 63.125,57.351 C65.085,57.331 64.34,57.339 65.358,57.328 C65.601,57.565 65.425,57.399 65.908,57.8 C67.693,59.207 69.845,60.036 72.395,60.007 C75.284,59.951 78.365,58.966 80.212,56.614 z" fill="#000000"/>
        <path d="M59.418,50.601 L60.254,51.547 C60.363,51.67 60.363,51.67 60.798,52.162 C61.124,52.532 61.45,52.901 61.777,53.271 C62.247,53.803 62.718,54.336 63.189,54.869 C63.624,55.361 63.624,55.361 63.732,55.484 L63.798,55.558 L63.851,55.643 C63.85,55.642 63.856,55.651 63.867,55.668 C63.89,55.702 63.919,55.743 63.953,55.791 L64.04,55.908 L62.335,55.925 C61.119,55.938 59.904,55.95 58.688,55.962 C57.222,55.977 57.222,55.977 56.855,55.981 L56.149,55.988 L56.145,56.693 C56.143,57.025 56.143,57.025 56.136,58.351 C56.127,60.009 56.127,60.009 56.116,61.998 C56.11,63.08 56.104,64.162 56.097,65.244 C55.83,64.954 55.567,64.661 55.3,64.371 C54.154,63.134 53.184,62.056 52.386,61.144 C52.105,60.824 51.866,60.546 51.667,60.313 C51.597,60.231 51.537,60.16 51.487,60.1 C51.456,60.063 51.435,60.038 51.423,60.024 L50.725,59.181 L51.504,58.412 L58.519,51.488 L59.418,50.601 z" fill="#000000"/><path d="M88.424,34.233 C92.866,38.406 94.91,44.15 95.063,50.135 C95.055,54.419 93.806,58.608 91.44,62.182 C91.042,62.784 90.581,63.342 90.151,63.922 L89.965,63.921 C88.632,63.913 87.3,63.906 85.967,63.898 C84.868,63.892 83.77,63.886 82.671,63.88 C82.061,63.877 82.379,63.878 81.719,63.875 C81.715,63.499 81.711,63.123 81.707,62.747 L81.663,58.325 C81.65,57.109 81.638,55.894 81.626,54.678 C81.623,54.385 81.624,54.506 81.622,54.315 C82.266,52.823 82.467,51.222 82.467,49.61 C82.405,47.071 81.637,44.438 79.721,42.67 C80.977,42.618 80.068,42.655 82.45,42.557 C83.665,42.507 84.879,42.456 86.094,42.406 C87.559,42.346 87.559,42.346 87.926,42.331 L88.631,42.302 L88.613,41.596 C88.604,41.265 88.604,41.265 88.57,39.939 C88.528,38.282 88.528,38.282 88.477,36.293 C88.46,35.606 88.442,34.919 88.424,34.233 z" fill="#000000"/>
        <path d="M71.787,27.42 C77.233,27.506 82.784,29.327 86.956,32.91 C86.986,34.05 87.015,35.19 87.044,36.33 C87.095,38.318 87.095,38.318 87.137,39.976 C87.145,40.293 87.154,40.61 87.162,40.927 C86.786,40.943 86.41,40.958 86.034,40.974 C84.562,41.035 83.089,41.096 81.616,41.156 C80.402,41.207 79.187,41.257 77.973,41.307 L77.859,41.312 C76.201,40.367 74.266,40.059 72.386,39.986 C70.642,39.949 68.834,40.537 67.085,41.554 C66.481,41.905 65.93,42.282 65.444,42.657 C65.275,42.787 65.128,42.907 65.004,43.013 C64.933,43.073 64.888,43.113 64.87,43.13 L63.304,44.386 L63.297,42.288 C63.297,42.073 63.297,42.073 63.301,41.211 C63.303,40.564 63.346,39.917 63.349,39.269 C63.353,38.381 63.356,37.476 63.359,36.588 C62.609,36.595 61.386,36.58 60.636,36.587 C59.337,36.6 59.337,36.6 58.256,36.611 C57.39,36.62 57.39,36.62 57.174,36.622 L54.442,36.65 L56.276,34.626 C56.336,34.559 56.444,34.446 56.596,34.293 C56.843,34.044 57.131,33.769 57.459,33.475 C58.391,32.638 59.458,31.802 60.649,31.022 C64.078,28.775 67.828,27.42 71.787,27.42 z" fill="#000000"/>
    </g>
</svg>