<svg xmlns="http://www.w3.org/2000/svg" id="diploma-1" viewBox="0 0 26 26" width="64" height="64"><path style="text-indent:0;text-align:start;line-height:normal;text-transform:none;block-progression:tb;-inkscape-font-specification:Bitstream Vera Sans" d="M5 0C3.908 0 3 .908 3 2v19c0 1.092.908 2 2 2h2v3l3-2 3 2v-7.156c-.137.076-.284.145-.438.187-.21.457-.595.82-1.093 1-.215.077-.433.095-.658.095-.278 0-.56-.036-.812-.156-.254.118-.527.155-.813.155-.224 0-.443-.017-.656-.094-.492-.18-.88-.543-1.092-1-.154-.04-.3-.11-.438-.186V21H5V2h16v19h-5a1 1 0 1 0 0 2h5c1.092 0 2-.908 2-2V2c0-1.092-.908-2-2-2H5zm2.813 5A1 1 0 0 0 8 7h10a1 1 0 1 0 0-2H8a1 1 0 0 0-.094 0 1 1 0 0 0-.093 0zm0 4A1 1 0 0 0 8 11h7a1 1 0 1 0 0-2H8a1 1 0 0 0-.094 0 1 1 0 0 0-.093 0zM10 12.656c-.41 0-.78.266-.906.656-.04.014-.086.016-.125.032-.347-.212-.78-.167-1.095.094-.31.258-.424.686-.28 1.062-.028.04-.04.082-.064.125-.4.062-.71.38-.78.78-.07.394.124.773.47.97.006.063-.014.127 0 .188-.243.303-.29.723-.095 1.062.194.337.58.525.97.47.05.046.1.08.155.124.01.386.257.74.625.874.364.133.776.005 1.03-.282.038.002.057.032.095.032.04 0 .084-.03.125-.032.18.2.428.313.688.313.108 0 .206.007.312-.03.368-.136.617-.487.625-.876.053-.043.105-.08.156-.126.382.057.773-.13.97-.47.194-.338.148-.76-.095-1.06.015-.063-.008-.128 0-.19.347-.194.54-.573.47-.968-.07-.4-.38-.72-.78-.78-.025-.045-.037-.084-.064-.126.144-.376.028-.803-.28-1.063-.313-.26-.75-.305-1.095-.093-.04-.016-.083-.018-.124-.03-.125-.392-.497-.658-.906-.658zm0 1.75c.886 0 1.594.708 1.594 1.594 0 .888-.707 1.594-1.594 1.594-.887 0-1.594-.707-1.594-1.594 0-.887.708-1.594 1.594-1.594z" color="#000" overflow="visible" font-family="Bitstream Vera Sans"/></svg>