<svg xmlns="http://www.w3.org/2000/svg" width="64" height="64" fill="none" viewBox="0 0 64 64" id="decision-tree">
  <g id="Decision tree">
    <path id="Union" fill="#000" fill-rule="evenodd" d="M27 9C27 6.23858 29.2386 4 32 4C34.7614 4 37 6.23858 37 9C37 10.4977 36.3415 11.8416 35.2983 12.7579L44.1849 19.8672C44.9867 19.32 45.956 19 47 19C49.7614 19 52 21.2386 52 24C52 25.5809 51.2663 26.9904 50.1209 27.9067L54.5658 35.0186C54.7089 35.0063 54.8537 35 55 35C57.7614 35 60 37.2386 60 40C60 42.7614 57.7614 45 55 45C52.2386 45 50 42.7614 50 40C50 38.1148 51.0433 36.4733 52.5841 35.6214L48.3334 28.8202C47.9089 28.9374 47.4618 29 47 29C46.5382 29 46.0911 28.9374 45.6666 28.8202L41.4159 35.6214C42.9567 36.4733 44 38.1148 44 40C44 42.7614 41.7614 45 39 45C36.2386 45 34 42.7614 34 40C34 37.2386 36.2386 35 39 35C39.1463 35 39.2911 35.0063 39.4342 35.0186L43.8791 27.9067C42.7337 26.9904 42 25.5809 42 24C42 23.0092 42.2882 22.0857 42.7853 21.3088L33.4007 13.8011C32.9563 13.9306 32.4862 14 32 14C31.5138 14 31.0438 13.9306 30.5993 13.8012L21.2147 21.3088C21.7118 22.0858 22 23.0092 22 24C22 25.5809 21.2663 26.9904 20.1209 27.9067L24.5658 35.0186C24.7089 35.0063 24.8537 35 25 35C27.7614 35 30 37.2386 30 40C30 41.588 29.2597 43.003 28.1055 43.9189L31.6808 50.1759C32.1011 50.0612 32.5434 50 33 50C35.7614 50 38 52.2386 38 55C38 57.7614 35.7614 60 33 60C30.2386 60 28 57.7614 28 55C28 53.412 28.7403 51.9969 29.8946 51.081L26.3192 44.8241C25.8989 44.9388 25.4566 45 25 45C24.5434 45 24.1011 44.9388 23.6808 44.8241L20.1054 51.081C21.2597 51.9969 22 53.412 22 55C22 57.7614 19.7614 60 17 60C14.2386 60 12 57.7614 12 55C12 52.2386 14.2386 50 17 50C17.4566 50 17.8989 50.0612 18.3192 50.1759L21.8945 43.9189C20.7403 43.003 20 41.588 20 40C20 38.1148 21.0433 36.4733 22.5841 35.6214L18.3334 28.8202C17.9089 28.9374 17.4618 29 17 29C16.5382 29 16.0911 28.9374 15.6666 28.8202L11.4159 35.6214C12.9567 36.4733 14 38.1148 14 40C14 42.7614 11.7614 45 9 45C6.23858 45 4 42.7614 4 40C4 37.2386 6.23858 35 9 35C9.14627 35 9.29107 35.0063 9.43415 35.0186L13.8791 27.9067C12.7337 26.9904 12 25.5809 12 24C12 21.2386 14.2386 19 17 19C18.044 19 19.0133 19.32 19.8152 19.8672L28.7018 12.758C27.6585 11.8416 27 10.4977 27 9ZM32 6C30.3431 6 29 7.34315 29 9C29 10.6569 30.3431 12 32 12C33.6569 12 35 10.6569 35 9C35 7.34315 33.6569 6 32 6ZM17 21C15.3431 21 14 22.3431 14 24C14 25.6569 15.3431 27 17 27C18.6569 27 20 25.6569 20 24C20 22.3431 18.6569 21 17 21ZM6 40C6 38.3431 7.34315 37 9 37C10.6569 37 12 38.3431 12 40C12 41.6569 10.6569 43 9 43C7.34315 43 6 41.6569 6 40ZM17 52C15.3431 52 14 53.3431 14 55C14 56.6569 15.3431 58 17 58C18.6569 58 20 56.6569 20 55C20 53.3431 18.6569 52 17 52ZM36 40C36 38.3431 37.3431 37 39 37C40.6569 37 42 38.3431 42 40C42 41.6569 40.6569 43 39 43C37.3431 43 36 41.6569 36 40ZM47 21C45.3431 21 44 22.3431 44 24C44 25.6569 45.3431 27 47 27C48.6569 27 50 25.6569 50 24C50 22.3431 48.6569 21 47 21ZM22 40C22 38.3431 23.3431 37 25 37C26.6569 37 28 38.3431 28 40C28 41.6569 26.6569 43 25 43C23.3431 43 22 41.6569 22 40ZM33 52C31.3431 52 30 53.3431 30 55C30 56.6569 31.3431 58 33 58C34.6569 58 36 56.6569 36 55C36 53.3431 34.6569 52 33 52ZM52 40C52 38.3431 53.3431 37 55 37C56.6569 37 58 38.3431 58 40C58 41.6569 56.6569 43 55 43C53.3431 43 52 41.6569 52 40Z" clip-rule="evenodd"></path>
  </g>
</svg>

