<svg xmlns="http://www.w3.org/2000/svg" viewBox="0 0 80 80" id="flag"><path d="M60.138 8.588a2 2 0 0 0-2.463.147c-5.371 4.75-10.7 2.395-16.866-.33-6.489-2.87-13.838-6.12-21.134.33-.015.013-.026.03-.04.044-.06.055-.11.116-.163.178-.034.041-.072.08-.103.125-.051.072-.093.15-.134.23-.021.04-.046.077-.065.119a1.993 1.993 0 0 0-.098.299c-.008.03-.021.058-.028.088a2.004 2.004 0 0 0-.044.415V73a2 2 0 0 0 4 0V39.19c5.143-3.994 10.28-1.74 16.191.873 3.715 1.642 7.713 3.41 11.823 3.41 3.065 0 6.194-.986 9.311-3.741a2.002 2.002 0 0 0-.015-3.01c-2.124-1.84-4.421-4.878-7.006-9.27 2.753-4.952 5.233-10.365 7.566-16.509a2.001 2.001 0 0 0-.732-2.355zM49.263 26.475a2 2 0 0 0 .002 1.985c2.374 4.149 4.572 7.307 6.67 9.574-4.792 2.938-9.624.802-15.126-1.63-3.715-1.642-7.713-3.41-11.822-3.41A12.9 12.9 0 0 0 23 34.432v-23.26c5.146-3.992 10.282-1.721 16.191.89 4.902 2.168 10.297 4.555 15.79 2.807-1.788 4.198-3.676 8.029-5.718 11.606z"></path></svg>