<svg xmlns="http://www.w3.org/2000/svg" viewBox="0 0 120 120" id="game-controller">
  <path d="m23.94,93.5c6.34,0,12.46-2.91,16.93-8h38.26c4.47,5.1,10.59,8,16.93,8,13.2,0,23.94-12.24,23.94-27.3s-9.99-26.55-22.75-27.26h-.05s-34.75,0-34.75,0c-.07-6.45,3.47-12.58,6.61-17.24.83-1.23,1.69-2.45,2.55-3.67,3.2-4.54,6.5-9.23,8.42-14.64.4-1.13-.18-2.37-1.3-2.77-1.12-.4-2.35.18-2.75,1.31-1.72,4.85-4.71,9.09-7.87,13.58-.88,1.24-1.75,2.49-2.6,3.74-3.49,5.18-7.43,12.05-7.36,19.68H22.89c-12.84.62-22.89,12.59-22.89,27.26s10.74,27.3,23.94,27.3Zm-.95-50.52h74.1c10.61.62,18.92,10.81,18.92,23.22s-8.95,23.26-19.94,23.26c-5.52,0-10.66-2.58-14.46-7.27l-.6-.74h-42l-.6.74c-3.81,4.69-8.94,7.27-14.46,7.27-11,0-19.94-10.43-19.94-23.26s8.38-22.71,18.99-23.22Zm-9.37,27.74h5.08v5.07c0,.84.67,1.51,1.5,1.51h5.12c.83,0,1.5-.68,1.5-1.51v-5.07h5.08c.83,0,1.5-.68,1.5-1.51v-5.12c0-.84-.67-1.51-1.5-1.51h-5.08v-5.07c0-.84-.67-1.51-1.5-1.51h-5.12c-.83,0-1.5.68-1.5,1.51v5.07h-5.08c-.83,0-1.5.68-1.5,1.51v5.12c0,.84.67,1.51,1.5,1.51Zm1.5-5.12h5.08c.83,0,1.5-.68,1.5-1.51v-5.07h2.12v5.07c0,.84.67,1.51,1.5,1.51h5.08v2.09h-5.08c-.83,0-1.5.68-1.5,1.51v5.07h-2.12v-5.07c0-.84-.67-1.51-1.5-1.51h-5.08v-2.09Zm81.71-2.71c2.57,0,4.67-2.1,4.67-4.68s-2.09-4.68-4.67-4.68-4.67,2.1-4.67,4.68,2.09,4.68,4.67,4.68Zm0-6.34c.92,0,1.67.74,1.67,1.65s-.75,1.65-1.67,1.65-1.67-.74-1.67-1.65.75-1.65,1.67-1.65Zm0,12.99c-2.57,0-4.67,2.1-4.67,4.68s2.09,4.68,4.67,4.68,4.67-2.1,4.67-4.68-2.09-4.68-4.67-4.68Zm0,6.34c-.92,0-1.67-.74-1.67-1.66s.75-1.65,1.67-1.65,1.67.74,1.67,1.65-.75,1.66-1.67,1.66Zm8.62-4.56c2.57,0,4.67-2.1,4.67-4.68s-2.09-4.68-4.67-4.68-4.67,2.1-4.67,4.68,2.09,4.68,4.67,4.68Zm0-6.34c.92,0,1.67.74,1.67,1.65s-.75,1.65-1.67,1.65-1.67-.74-1.67-1.65.75-1.65,1.67-1.65Zm-17.25,6.34c2.57,0,4.67-2.1,4.67-4.68s-2.09-4.68-4.67-4.68-4.67,2.1-4.67,4.68,2.09,4.68,4.67,4.68Zm0-6.34c.92,0,1.67.74,1.67,1.65s-.75,1.65-1.67,1.65-1.67-.74-1.67-1.65.75-1.65,1.67-1.65Zm-42.14-4.14h11.15c.55,0,1-.45,1-1.01v-2.77c0-.56-.45-1.01-1-1.01h-11.15c-.55,0-1,.45-1,1.01v2.77c0,.56.45,1.01,1,1.01Zm1-2.77h9.15v.75h-9.15v-.75Zm15.25,2.77h11.15c.55,0,1-.45,1-1.01v-2.77c0-.56-.45-1.01-1-1.01h-11.15c-.55,0-1,.45-1,1.01v2.77c0,.56.45,1.01,1,1.01Zm1-2.77h9.15v.75h-9.15v-.75Z"></path>
</svg>