<svg id="Layer_1" data-name="Layer 1" xmlns="http://www.w3.org/2000/svg" viewBox="0 0 133.06 48.39"><defs><style>.cls-1{fill:#4caf50;}</style></defs><path class="cls-1" d="M80.08,8.3h0a1.14,1.14,0,0,0-.3-.8h0l-.1-.1a.1.1,0,0,1-.1-.1h0L67.08.2H67c-.1-.2-.3-.2-.5-.2a.37.37,0,0,0-.3.1c-.1,0-.1.1-.2.1L53.58,7.3h0a1.24,1.24,0,0,0-.3.2h0a1.14,1.14,0,0,0-.3.8h0V22.6a1.1,1.1,0,0,0,.6,1L66,30.7h.1c.1,0,.1.1.2.1h.4c.1,0,.1,0,.2-.1H67l12.4-7.1a1.1,1.1,0,0,0,.6-1l.1-14.3Zm-22.2-.5L66.28,3a.45.45,0,0,1,.5,0l8.4,4.9c.4.1.4.7,0,.9l-8.4,4.9a.45.45,0,0,1-.5,0l-8.4-4.9A.57.57,0,0,1,57.88,7.8Zm7.2,18.5a.55.55,0,0,1-.8.5l-8.4-4.9a.54.54,0,0,1-.3-.4V11.8a.55.55,0,0,1,.8-.5l8.4,4.9a.55.55,0,0,1,.3.5Zm12.4-4.8a.55.55,0,0,1-.3.5l-8.4,4.9a.55.55,0,0,1-.8-.5V16.7a.55.55,0,0,1,.3-.5l8.4-4.9a.55.55,0,0,1,.8.5Z"/><path d="M7.6,47.69v-4.6a.27.27,0,0,0-.3-.3h-4a.27.27,0,0,0-.3.3v4.6a.27.27,0,0,1-.3.3H.3a.27.27,0,0,1-.3-.3V35.89a.27.27,0,0,1,.3-.3H2.7a.27.27,0,0,1,.3.3V40a.27.27,0,0,0,.3.3h4a.27.27,0,0,0,.3-.3v-4.1a.27.27,0,0,1,.3-.3h2.5a.27.27,0,0,1,.3.3v11.9a.27.27,0,0,1-.3.3H8C7.8,48,7.6,47.89,7.6,47.69Z"/><path d="M17.3,45.49l-.7,2.2c0,.1-.2.2-.3.2H13.7c-.2,0-.3-.2-.3-.4l4-11.9c0-.1.2-.2.3-.2h3.7c.1,0,.2.1.3.2l4,11.9c.1.2-.1.4-.3.4H22.8c-.1,0-.2-.1-.3-.2l-.7-2.2c0-.1-.2-.2-.3-.2H17.4C17.5,45.39,17.4,45.49,17.3,45.49ZM20.9,42c-.5-1.5-.9-3-1.3-4.5h0L18.4,42l-.1.5c-.1.2.1.4.3.4h2.2c.2,0,.3-.2.3-.4Z"/><path d="M38.6,40.09H36c-.1,0-.3-.1-.3-.2A2.13,2.13,0,0,0,33.4,38c-1.6,0-2.7,1.5-2.7,3.9s1,3.9,2.6,3.9a2.2,2.2,0,0,0,2.3-2c0-.1.1-.2.3-.2h2.6a.32.32,0,0,1,.3.3c-.4,2.9-2.4,4.5-5.5,4.5-3.6,0-5.8-2.5-5.8-6.5s2.2-6.5,5.8-6.5c3.1,0,5.1,1.7,5.4,4.4C38.9,39.89,38.8,40.09,38.6,40.09Z"/><path d="M52.8,48H49.7c-.1,0-.2,0-.2-.1l-3.8-5.7h0v5.4a.27.27,0,0,1-.3.3H43a.27.27,0,0,1-.3-.3V35.89a.27.27,0,0,1,.3-.3h2.4a.27.27,0,0,1,.3.3V41h0l3.6-5.2c.1-.1.1-.1.2-.1h2.9a.3.3,0,0,1,.2.5l-4,5.2c-.1.1-.1.2,0,.4l4.4,5.9C53.1,47.69,53,48,52.8,48Z"/><path d="M61.2,37.29v10.4a.27.27,0,0,1-.3.3h-1a.27.27,0,0,1-.3-.3V37.29a.27.27,0,0,0-.3-.3H55.6a.27.27,0,0,1-.3-.3v-.9a.27.27,0,0,1,.3-.3h9.5a.27.27,0,0,1,.3.3v.9a.27.27,0,0,1-.3.3H61.4C61.3,37,61.2,37.09,61.2,37.29Z"/><path d="M76.7,47.69v-5.2a.27.27,0,0,0-.3-.3H70.6a.27.27,0,0,0-.3.3v5.2a.27.27,0,0,1-.3.3H69a.27.27,0,0,1-.3-.3V35.89a.27.27,0,0,1,.3-.3h1a.27.27,0,0,1,.3.3v4.7a.27.27,0,0,0,.3.3h5.8a.27.27,0,0,0,.3-.3v-4.7a.27.27,0,0,1,.3-.3h1a.27.27,0,0,1,.3.3v11.9a.27.27,0,0,1-.3.3H77C76.8,48,76.7,47.89,76.7,47.69Z"/><path d="M84.9,37.29v3.3a.27.27,0,0,0,.3.3h5.5a.27.27,0,0,1,.3.3V42a.27.27,0,0,1-.3.3H85.2a.27.27,0,0,0-.3.3v3.6a.27.27,0,0,0,.3.3h6a.27.27,0,0,1,.3.3v.9a.27.27,0,0,1-.3.3H83.6a.27.27,0,0,1-.3-.3V35.89a.27.27,0,0,1,.3-.3H91a.27.27,0,0,1,.3.3v.9a.27.27,0,0,1-.3.3H85.2C85.1,37,84.9,37.09,84.9,37.29Z"/><path d="M100.4,35.59c3.1,0,4.5,1.3,4.5,3.2a2.7,2.7,0,0,1-2.1,2.8h0a2.74,2.74,0,0,1,2.4,2.9c0,2.1-1.7,3.5-4.5,3.5H95.8a.27.27,0,0,1-.3-.3V35.89a.27.27,0,0,1,.3-.3Zm-1.9,4.7a.27.27,0,0,0,.3.3h1.3c1.3,0,1.9-.4,1.9-1.4s-.6-1.3-1.8-1.3H98.8a.27.27,0,0,0-.3.3Zm0,5.1a.27.27,0,0,0,.3.3h1.4c1.4,0,2-.4,2-1.4s-.6-1.5-2-1.5H98.9a.27.27,0,0,0-.3.3l-.1,2.3Z"/><path d="M120.2,41.69c0,4-2.3,6.5-6,6.5s-6-2.5-6-6.5,2.3-6.5,6-6.5S120.2,37.79,120.2,41.69Zm-8.9,0c0,2.4,1,3.9,2.9,3.9s2.8-1.4,2.8-3.9-1-3.9-2.8-3.9S111.3,39.39,111.3,41.69Z"/><path d="M132.8,48h-2.9c-.1,0-.2-.1-.3-.2l-2.2-4.1h0l-2.2,4.1c-.1.1-.1.2-.3.2H122c-.2,0-.4-.2-.2-.4l3.5-5.8a.19.19,0,0,0,0-.3L122,36c-.1-.2,0-.4.2-.4H125c.1,0,.2.1.3.2l2,4h0l2-4c0-.1.2-.2.3-.2h2.8c.2,0,.4.2.2.4l-3.3,5.5a.19.19,0,0,0,0,.3l3.5,5.8C133.2,47.69,133.1,48,132.8,48Z"/></svg>