<?xml version="1.0" encoding="UTF-8"?><svg id="a" xmlns="http://www.w3.org/2000/svg" viewBox="0 0 400.44 411.67"><defs><style>.cls-1{fill:#fff;}.cls-2{stroke-width:7px;}.cls-2,.cls-3{fill:none;stroke:#fff;stroke-miterlimit:10;}.cls-3{stroke-width:10px;}</style></defs><polygon class="cls-3" points="72.46 220.01 74.62 244.98 115.67 285.85 116.09 286.27 157.15 327.14 182.12 329.17 383.51 17.02 72.46 220.01"/><path class="cls-1" d="m.06,218.29c-1.54-63.38,28.85-123.62,80.22-160.67,21.3-15.44,45.81-27.04,71.63-32.59,23.82-4.95,48.83-4.99,72.65-.04,15.76,3.27,31.11,8.7,45.21,16.39l-.4.92c-7.57-2.45-15.15-4.66-22.82-6.38-58.23-13.28-123.69-2.02-171.24,34.93C37.97,99.49,12.15,142.44,4,188.81c-1.66,9.69-2.63,19.64-2.95,29.47H.05h0Z"/><path class="cls-1" d="m358.26,119.04c64.5,100.81,18.57,243.42-95.58,283.03-22.29,7.71-46.42,11-69.78,9.05v-1c33.39-2.76,65.92-12.5,94.35-29.99,28.13-17.16,52.84-40.5,69.55-69.07,29.92-50.34,34.09-114.71,11.67-168.79-3.17-7.79-6.88-15.39-11.06-22.72l.86-.52h0Z"/><path class="cls-1" d="m278.55,224.38c-2.18,28.32-7.56,56.3-13.71,83.98l-.33,1.43-1.02,1c-12.78,12.7-25.92,25.05-39.64,36.74-7.21-8.29-14.29-16.74-20.79-25.61,8.08,5.93,15.81,12.32,23.39,18.86h-4.53c11.03-12.78,22.61-25.07,34.51-37.04l-1.34,2.44c1.53-6.91,3.16-13.8,4.85-20.68,5.23-20.63,10.94-41.24,18.6-61.12h0Z"/><path class="cls-1" d="m177.55,123.38c-19.89,7.66-40.49,13.37-61.12,18.6-6.88,1.69-13.76,3.32-20.68,4.85l2.44-1.34c-11.97,11.9-24.26,23.48-37.04,34.51v-4.53c6.54,7.58,12.94,15.31,18.86,23.39-8.87-6.5-17.33-13.58-25.61-20.79,11.69-13.71,24.04-26.86,36.74-39.64l1-1.02,1.43-.33c27.68-6.15,55.66-11.53,83.98-13.71h0Z"/><polygon class="cls-2" points="226.02 207.71 252.03 181.59 271.87 129.12 219.44 149.2 193.42 175.32 226.02 207.71"/><path class="cls-1" d="m83.74,285.81c-7.24,6.42-15.02,11.97-22.99,17.37l.84-6.12c3.8,3.25,7.53,6.57,11.19,9.97,10.87,10.11,21.51,21.04,31.17,32.31l-6,.68c5.73-7.59,11.58-14.98,18.27-21.8-3.73,10.4-8.77,20.17-13.8,29.95-16.56-13.91-32.21-29.22-46.3-45.62l-3.55-4.13c10.2-4.66,20.41-9.31,31.18-12.6h-.01Z"/></svg>