<?xml version="1.0" encoding="UTF-8"?><svg id="a" xmlns="http://www.w3.org/2000/svg" viewBox="0 0 488.62 420.52"><defs><style>.b{stroke-width:10px;}.b,.c{fill:none;stroke:#1d1d1b;stroke-miterlimit:10;}.d{fill:#1d1d1b;}.c{stroke-width:7px;}</style></defs><path class="d" d="M158.95,0c6.59,12.02,5.72,35.62,4.26,49.22-2.33,18.92-7.2,38.22-17.93,54.35-.81,1.2-2.15,3.11-2.82,4.38-10.58,18.59-9.3,50.47-5.06,71.31,.47,1.94,.94,3.86,2,5.64-3.55-2.31-5.75-6.25-7.86-9.81-8.12-14.9-12.1-32.14-11.43-49.19,.41-9.66,2.75-19.43,7.59-28.05,1.73-2.89,3.79-5.83,5.43-8.81,7.14-13,12.03-28.13,16.25-42.54,2.17-7.52,4.16-15.16,5.94-22.88,1.62-7.77,3.85-15.6,3.63-23.61h0Z"/><path class="d" d="M108.03,56.22c4.67,15.01,3.57,35.93-3.67,50.05-4.13,6.54-4.89,14.31-4.65,22,.32,6.92,1.18,14.12,3.58,20.7,.36,.95,.8,1.87,1.45,2.69-1.84-1.11-3.08-2.99-4.22-4.77-7.25-12.36-10.26-31.18-2.31-43.91,3.52-6.68,5.55-14.51,7.06-22.4,1.47-8.03,2.55-16.13,2.77-24.36h0Z"/><path class="d" d="M157.4,112c1.23,6.26,1.47,12.57,1.99,18.79,.74,7.73,1.05,14.61,4.26,21.01,7.33,11.34,4.73,21.95-1.08,33.09-2.14-5.83-1.8-12.42-3.58-17.96-1.13-4.31-3.55-7.3-5.6-11.07-6.39-13.87-2.26-30.74,4.01-43.86h0Z"/><path class="d" d="M0,414.25c162.74-8.26,325.88-8.32,488.62,0-162.74,8.32-325.88,8.26-488.62,0H0Z"/><g><polyline class="b" points="328.71 416.41 246.34 230.62 221.35 228.75 174.43 262.72 173.95 263.07 127.03 297.05 121.02 321.37 226.83 416.81"/><path class="d" d="M170.89,415.1c-5.06,1.73-10.35,1.96-15.6,1.61-3.62-1.31-10.26-3.79-13.85-5.18-4.85-1.87-9.7-3.76-14.51-5.75l-.81-1.14c-9.83-13.72-19.29-27.71-28.13-42.09l-1.78-2.92c5.06-3.15,10.21-6.25,15.39-9.23,4.35-2.5,8.74-4.93,13.23-7.19-7.14,7.04-14.7,13.63-22.36,20.07l.73-4.47c2.72,3.24,5.4,6.5,8.04,9.8,7.93,9.86,15.57,19.96,23,30.2l-2.19-1.71c8.47,3.37,17.67,7.22,26.05,10.89l-.82-.24c4.92,1.67,9.66,3.88,13.63,7.36h0Z"/><path class="d" d="M324.88,349.83c-4.38-20.86-6.71-42.11-8.57-63.31-.57-7.06-1.07-14.12-1.47-21.19l.93,2.62c-9.83-13.72-19.29-27.71-28.13-42.09l4.47,.73c-8.53,5.24-17.18,10.32-26.11,14.87,7.84-7.72,16.18-14.93,24.63-21.95,11.66,13.73,22.66,28.03,33.24,42.61l.84,1.15,.09,1.47c1.64,28.31,2.47,56.79,.08,85.09h0Z"/><polyline class="c" points="298.34 414.25 292.69 387.04 271.07 357.18 233.88 384.16 255.5 414.03"/><path class="d" d="M179.58,231.2c-5.18-8.18-9.41-16.74-13.46-25.48l5.91,1.81c-3.82,3.23-7.69,6.38-11.63,9.45-11.72,9.11-24.21,17.86-36.88,25.59l.29-6.03c6.57,6.87,12.93,13.83,18.59,21.53-9.66-5.35-18.5-11.88-27.35-18.42,16.38-14.11,34-27.11,52.44-38.4l4.65-2.84c2.96,10.82,5.92,21.64,7.45,32.79h0Z"/></g></svg>