<?xml version="1.0" encoding="utf-8"?>
<!-- Generator: Adobe Illustrator 23.0.6, SVG Export Plug-In . SVG Version: 6.00 Build 0)  -->
<svg version="1.1"
	 id="Layer_1" text-rendering="geometricPrecision" shape-rendering="geometricPrecision" image-rendering="optimizeQuality"
	 xmlns="http://www.w3.org/2000/svg" xmlns:xlink="http://www.w3.org/1999/xlink" x="0px" y="0px" viewBox="0 0 824 186.8"
	 style="enable-background:new 0 0 824 186.8;" xml:space="preserve">
<style type="text/css">
	.st0{fill:#0078AD;}
	.st1{fill:#FEFEFE;}
	.st2{fill-rule:evenodd;clip-rule:evenodd;fill:#0073B1;stroke:#1D1D1B;stroke-width:7;stroke-miterlimit:10;}
</style>
<path class="st0" d="M173,0H13.8C6.2,0,0,6,0,13.5v159.9c0,7.4,6.2,13.5,13.8,13.5H173c7.6,0,13.8-6,13.8-13.5V13.5
	C186.8,6,180.6,0,173,0z"/>
<path class="st1" d="M41.5,25.7c8.9,0,16.1,7.2,16.1,16.1c0,8.9-7.2,16.1-16.1,16.1c-8.9,0-16.1-7.2-16.1-16.1
	C25.5,32.9,32.7,25.7,41.5,25.7z M72.8,70h26.6v12.2h0.4c3.7-7,12.7-14.4,26.2-14.4c28,0,33.2,18.5,33.2,42.5v48.9h-27.7v-43.3
	c0-10.3-0.2-23.6-14.4-23.6c-14.4,0-16.6,11.3-16.6,22.9v44.1H72.8L72.8,70L72.8,70z M27.7,70h27.7v89.1H27.7V70z"/>
<path class="st2" d="M251,51.9h5.9v79h38.7v5.1H251V51.9z M755,93.8c0-6.6,0.9-12.6,2.7-18c1.8-5.4,4.3-9.9,7.6-13.7
	c3.3-3.8,7.2-6.7,11.8-8.7c4.6-2,9.7-3,15.2-3c2.8,0,5.4,0.3,7.7,0.9s4.4,1.4,6.3,2.4s3.5,2.1,5,3.3c1.4,1.2,2.7,2.4,3.8,3.6
	l-3.4,3.8c-2.2-2.4-4.8-4.4-7.9-6.1c-3.1-1.7-6.9-2.5-11.5-2.5c-4.8,0-9.2,0.9-13,2.7c-3.8,1.8-7.1,4.3-9.8,7.6
	c-2.7,3.3-4.7,7.3-6.2,11.9c-1.4,4.7-2.2,10-2.2,15.8s0.7,11.2,2,15.9c1.4,4.7,3.4,8.7,6,12.1c2.6,3.3,5.8,5.9,9.6,7.7
	c3.8,1.8,8.1,2.7,12.8,2.7c3.8,0,7.4-0.6,10.7-1.7c3.3-1.1,6-2.7,8-4.7V99.6h-20v-5H816V128c-2.6,2.8-6.1,5.1-10.3,6.9
	c-4.2,1.8-9.1,2.7-14.6,2.7c-5.4,0-10.3-1-14.7-3.1c-4.5-2-8.3-5-11.4-8.7c-3.1-3.8-5.6-8.4-7.3-13.8
	C755.9,106.5,755,100.5,755,93.8L755,93.8z M671.5,51.9h6.1l35.3,59.3l9.6,16.7h0.5c-0.2-4.1-0.3-8.2-0.5-12.2
	c-0.2-4.1-0.3-8.2-0.3-12.3V51.9h5.5V136h-6.1l-35.3-59.3l-9.6-16.7h-0.5c0.2,4.1,0.3,8.1,0.5,11.9c0.2,3.9,0.3,7.9,0.3,11.9V136
	h-5.5V51.9L671.5,51.9z M633,51.9h5.9V136H633V51.9z M545.3,51.9h6.1l35.3,59.3l9.6,16.7h0.5c-0.2-4.1-0.3-8.2-0.5-12.2
	c-0.2-4.1-0.3-8.2-0.3-12.3V51.9h5.5V136h-6.1l-35.3-59.3l-9.6-16.7H550c0.2,4.1,0.3,8.1,0.5,11.9c0.2,3.9,0.3,7.9,0.3,11.9V136
	h-5.5L545.3,51.9L545.3,51.9z M488.9,92.5c7.5,0,13.2-1.5,17.2-4.5c4-3,5.9-7.6,5.9-13.8c0-6.3-2-10.7-5.9-13.3
	c-4-2.6-9.7-3.9-17.2-3.9h-16.6v35.6L488.9,92.5L488.9,92.5z M512.9,136l-22.7-38.7h-17.9V136h-5.9V51.9h24c4.2,0,8,0.4,11.4,1.2
	s6.3,2.1,8.7,3.9c2.4,1.8,4.3,4.1,5.6,6.9c1.3,2.8,2,6.2,2,10.2c0,6.7-1.9,12-5.8,15.8c-3.9,3.8-9.1,6.1-15.8,7.1l23.1,39H512.9
	L512.9,136z M427.5,102.2l-5.4-15.7c-1.7-5-3.3-9.8-4.8-14.4c-1.5-4.6-3-9.5-4.5-14.7h-0.5c-1.4,5.2-2.9,10.1-4.5,14.7
	c-1.5,4.6-3.1,9.4-4.8,14.4l-5.4,15.7H427.5L427.5,102.2z M429.1,107.2h-33.3L386,136h-6l29.7-84.1h5.9l29.6,84.1H439L429.1,107.2z
	 M318.4,51.9h45.9V57h-40.1v31.8h33.7v5.1h-33.7v37h41.3v5.1h-47.2V51.9z"/>
</svg>
