<svg xmlns="http://www.w3.org/2000/svg" id="network" viewBox="0 0 1024 1234" width="64" height="64"><path d="M992 517H832v256h64q26 0 45 19t19 45v128q0 27-19 45.5t-45 18.5H704q-27 0-45.5-18.5T640 965V837q0-26 18.5-45t45.5-19h64V517H320v256h64q26 0 45 19t19 45v128q0 27-19 45.5t-45 18.5H192q-27 0-45.5-18.5T128 965V837q0-26 18.5-45t45.5-19h64V517H32q-13 0-22.5-9.5T0 485t9.5-22.5T32 453h480V261h-64q-27 0-45.5-18.5T384 197V69q0-26 18.5-45T448 5h192q26 0 45 19t19 45v128q0 27-19 45.5T640 261h-64v192h416q13 0 22.5 9.5t9.5 22.5-9.5 22.5T992 517z"/></svg>