<?xml version="1.0" encoding="utf-8"?>
<!-- Generator: Adobe Illustrator 23.0.6, SVG Export Plug-In . SVG Version: 6.00 Build 0)  -->
<svg version="1.1" id="Layer_1" xmlns="http://www.w3.org/2000/svg" xmlns:xlink="http://www.w3.org/1999/xlink" x="0px" y="0px"
	 viewBox="0 0 4877.9 1580.1" style="enable-background:new 0 0 4877.9 1580.1;" xml:space="preserve">
<style type="text/css">
	.st0{fill:#E63B20;}
	.st1{fill:#E63B22;}
</style>
<path class="st0" d="M863.4,102.6c-118.6,0-236.7,0-355.4,0c0-34.2,0-67.4,0-100.5c7.2-2,435.7-2.9,456.4-0.9
	c2.2,6.9,2.7,1021.3,0.3,1032.9c-2.7,0-5.6,0-8.5,0c-25.3,0-50.7-0.2-76,0.2c-6,0.1-9.7-2-13.4-6.5
	c-130.9-156.3-262-312.6-393-468.8C369,434,264.3,309.1,159.6,184.3c-2.1-2.5-4.3-4.9-7.5-8.6c-0.3,3.9-0.8,6.3-0.8,8.7
	c0,268,0,536-0.2,804c0,6.2,1.9,10.6,5.8,15.2c60.7,72.2,121.3,144.4,181.9,216.7c54.6,65.1,109.2,130.2,163.8,195.3
	c1.3,1.5,2.6,3,4.9,5.6c65.2-77,129.4-154.2,194.8-231.8c26.1,22,51.8,43.5,78.2,65.7c-90.9,108.3-181.4,216.2-272.8,325
	c-3-3.4-5.4-5.9-7.7-8.6c-73.3-87.3-146.5-174.6-219.8-261.9c-74.9-89.4-149.8-178.8-224.9-268c-4.4-5.2-6.3-10.2-6.3-17
	c0.1-337.6,0.1-675.3,0.1-1012.9c0-3.3,0-6.6,0-10.6c3.6-0.2,6.5-0.6,9.4-0.6c25.3,0,50.7,0.2,76-0.2c7.1-0.1,11.6,2.2,16,7.6
	c42.4,51,85.1,101.7,127.7,152.6C381.1,283,483.9,405.5,586.6,528.1c89.7,107,179.4,214,269.1,321c2,2.4,4.3,4.7,7.7,8.3
	C863.4,604.9,863.4,354.2,863.4,102.6z"/>
<path class="st1" d="M4555.3,348.3c22.9-27.9,49.4-48.8,82.2-61.3c38.2-14.5,77.4-17.8,117.8-13c29.9,3.5,58.7,10.9,87,21.1
	c0,41.6,0,83,0,125.9c-14.4-4.1-27.3-8.1-40.4-11.4c-25.2-6.3-50.6-9.1-76.3-2.4c-23.5,6.1-39.6,20.7-50.3,42.1
	c-9.1,18.3-13.5,37.9-14.2,57.8c-1.1,32.6-0.3,65.2-0.3,99.1c54.6,0,109.2,0,164.8,0c0,46.3,0,91.3,0,137.8c-54.6,0-109.2,0-165.2,0
	c0,151.4,0,301.3,0,452.1c-53.4,0-105.3,0-158.4,0c0-150.1,0-299.5,0-450.1c-74.6,0-148,0-223.2,0c0,149.7,0,299.5,0,450.2
	c-53.7,0-105.6,0-159.1,0c0-150.4,0-300.2,0-451.1c-21.9,0-42.3,0-62.3,0c-3.4-11.7-4.2-119.6-1.1-138.2c20.3,0,40.7,0,63.2,0
	c0-7.9,0.1-15.1,0-22.2c-0.7-37,1.2-73.6,9.3-109.9c21.7-97.3,91.3-166.5,188.1-183.1c82.2-14.1,158.8,2.5,228.3,49.4
	C4548.2,343.4,4551.2,345.5,4555.3,348.3z M4278.8,605.9c75.5,0,148.9,0,221.2,0c2-45.2,4-89.3,5.5-133.3c0.1-3.8-3.1-8.7-6.2-11.5
	c-18-16.4-38.4-29.1-61.4-37.7c-22.6-8.4-45.8-12.4-69.5-7.9c-39.9,7.5-64.5,32.8-78.3,69.9C4275.5,524.4,4278.5,564.8,4278.8,605.9
	z"/>
<path class="st1" d="M1339.6,366.1c49.9,0,98.3,0.2,146.7-0.2c7.8-0.1,10.9,4.8,14.8,9.7c30.6,38.9,61.3,77.8,91.9,116.7
	c115,146.1,229.9,292.2,344.9,438.3c2.6,3.2,5.3,6.3,10.6,12.7c0-194.4,0-385.1,0-576.5c51.8,0,101.7,0,151.6,0
	c3.3,10.9,4.7,798.6,1.4,828.3c-3.8,0.3-7.8,0.9-11.8,0.9c-42.7,0.1-85.4-0.3-128,0.3c-9.5,0.1-15.4-3.2-21.1-10.4
	c-100.1-127-200.3-253.9-300.5-380.8c-44.4-56.2-88.8-112.4-133.2-168.6c-3.2-4.1-6.6-8-11.8-14.4c0,192.4,0,382.1,0,572.9
	c-52.4,0-103.3,0-155.4,0C1339.6,919.3,1339.6,643.5,1339.6,366.1z"/>
<path class="st1" d="M4004.6,883c-1.5,51.5-11.5,100.6-33.8,146.9c-42.7,88.3-113.8,140.2-209,158.8c-68.3,13.3-136.3,9.9-201.8-15
	c-103.2-39.2-163.3-114.9-183.7-222.6c-11.5-61.1-8-121.7,11.8-180.8c28.8-85.6,85.6-145.5,170-176.8
	c92.1-34.1,184.8-32.9,274.6,8.1c90.1,41.2,142.9,113.3,162.9,209.6C4000.5,834.7,4001.7,859,4004.6,883z M3686.7,1056.9
	c67,1.7,116.7-37.6,138.8-92.6c15.8-39.2,19.3-79.6,12-120.9c-13.3-75.3-59.7-124.5-127.6-133.1c-63.3-8.1-126.9,16-157.1,79.9
	c-25,52.8-27.1,107.5-9.6,162.9C3562.7,1014.6,3613.7,1058.2,3686.7,1056.9z"/>
<path class="st1" d="M2529,1196.3c-54.2-0.5-106.5-9.9-155.6-34.2c-75.1-37.1-124-96.4-147.2-176.3c-19.8-68.3-19.8-137.4,0.9-205.6
	c29.1-95.9,92-160.3,187.3-191.3c84.4-27.4,169-25.8,251.2,9.1c96,40.8,152.4,114.8,172.5,216.1c14.7,73.7,7.7,145.8-24.6,214.3
	c-39.5,84-105.9,135.6-195.5,157.7C2589,1193.5,2559.1,1196.8,2529,1196.3z M2529.4,1057.7c63.4-1,109.4-29.5,135.7-87.6
	c21.7-48,23.6-97.8,9.1-148c-17.9-62.1-56.7-102.1-122.8-111.1c-61.7-8.4-125.3,14.9-156,79c-25.3,52.7-27.8,107.4-10.4,162.8
	C2404.4,1015,2455.4,1059,2529.4,1057.7z"/>
<path class="st1" d="M3072.2,607.2c8.8,26.1,17.2,50.9,26.2,77.4c5.7-8.9,10.2-16.4,15.1-23.6c26.7-39.2,61.7-65.7,110.3-71.1
	c29.9-3.3,58.7,2.8,86.7,12.4c16.2,5.6,31.5,13.7,47.7,20.8c-23.9,49.3-46.8,96.5-70.3,144.8c-5.6-2.6-10.6-4.9-15.6-7.2
	c-19.8-9.2-40.4-15.8-62.4-13.8c-30,2.7-51.5,19.6-67.7,44c-17.5,26.3-27,55.8-31.6,86.8c-2.2,14.5-3,29.3-3,44
	c-0.3,85.9-0.1,171.8-0.1,257.7c0,5.2,0,10.5,0,16.9c-51.6,0-102.3,0-153.9,0c0-196,0-391.4,0-588.7c19.4-1.2,39.1-0.4,58.9-0.5
	C3032,607,3051.5,607.2,3072.2,607.2z"/>
</svg>
