<svg xmlns="http://www.w3.org/2000/svg" viewBox="0 0 32 32" id="radio">
  <path d="M8,9a6.957,6.957,0,0,1,2.051-4.95,1,1,0,0,1,1.414,1.414,5,5,0,0,0,0,7.072,1,1,0,1,1-1.414,1.414A6.957,6.957,0,0,1,8,9Zm12.535,4.95a1,1,0,0,0,1.414,0,7,7,0,0,0,0-9.9,1,1,0,1,0-1.414,1.414,5,5,0,0,1,0,7.072A1,1,0,0,0,20.535,13.95Zm3.4,15.7a1,1,0,1,1-1.876.692l-1.654-4.489L12.556,23.24,9.938,30.346a1,1,0,1,1-1.876-.692l6.621-17.972a3,3,0,1,1,2.634,0ZM15,9a1,1,0,1,0,1-1A1,1,0,0,0,15,9ZM13.891,19.617,17.217,17.2,16,13.893Zm5.631,3.836-1.586-4.306-3.56,2.591ZM8.636,15.364a9.01,9.01,0,0,1,0-12.728A1,1,0,1,0,7.222,1.222a11.012,11.012,0,0,0,0,15.556,1,1,0,0,0,1.414-1.414ZM24.778,1.222a1,1,0,1,0-1.414,1.414,9.01,9.01,0,0,1,0,12.728,1,1,0,1,0,1.414,1.414A11.012,11.012,0,0,0,24.778,1.222Z"></path>
</svg>
