<svg xmlns="http://www.w3.org/2000/svg" enable-background="new 0 0 66 66" viewBox="0 0 66 66" id="SearchEngineOptimization"><path d="M40.32,0.9943c-13.62,0-24.69,11.08-24.69,24.69c0,13.61,11.07,24.6801,24.69,24.6801
			c13.61,0,24.68-11.0601,24.68-24.6701C65,12.0943,53.93,1.0142,40.32,0.9943z M40.31,43.9243c-10.08,0-18.29-8.19-18.29-18.25
			c0-10.07,8.21-18.26,18.29-18.26c10.06,0.01,18.24,8.21,18.24,18.27C58.55,35.7443,50.37,43.9243,40.31,43.9243z" fill="#000000" class="color000000 svgShape"></path><path d="M22.105 49.9393l2.615-2.615c-2.32-1.6801-4.35-3.71-6.04-6.03l-2.6099 2.61L14.87 42.7042c-.38-.3799-1.04-.3799-1.42 0L3.04 53.1143c-2.72 2.72-2.72 7.1399 0 9.8499 2.7125 2.7126 7.1287 2.7314 9.86 0l10.41-10.4099c.39-.39.39-1.02 0-1.41L22.105 49.9393zM37.99 22.4343l-1.03-.64c-.02-.3-.0699-.59-.15-.88l.76-.96c.13-.16.14-.39.03-.57l-.71-1.12c-.11-.18-.33-.27-.54-.22l-1.17.28c-.23-.19-.48-.36-.74-.52l-.14-1.2c-.02-.21-.18-.38-.38-.43l-1.29-.29c-.21-.04-.42.05-.54.23l-.63 1.02c-.3.03-.6.08-.89.16l-.95-.75c-.16-.14-.39-.15-.57-.04l-1.12.71c-.18.11-.27.33-.22.54l.28 1.17c-.2.23-.37.48-.52.74l-1.2.14c-.21.02-.3799.18-.43.38l-.29 1.29c-.05.21.04.42.22.54l1.03.63c.03.3.08.6.16.89l-.7599.95c-.13.16-.14.39-.03.57l.71 1.12c.11.18.32.26.53.22l1.18-.28c.23.2.48.37.74.52l.13 1.2c.03.21.1801.38.39.43l1.29.29c.04.0099.0699.0099.11.0099.17 0 .33-.09.42-.23l.64-1.03c.3-.03.6-.08.89-.16l.94.76c.17.13.4.14.58.03l1.12-.71c.18-.11.26-.33.22-.53l-.28-1.19c.19-.23.37-.47.51-.73l1.21-.13c.21-.03.38-.18.43-.39l.29-1.29C38.26 22.7542 38.17 22.5443 37.99 22.4343zM33.17 24.2642c-1.06.7-2.59.42-3.34-.75-.7-1.14-.41-2.6.75-3.34 1.1-.7 2.65-.34 3.34.75C34.6 21.9843 34.37 23.5042 33.17 24.2642zM54 28.9043l-1.48-.91c-.03-.45-.1-.9-.23-1.34l1.08-1.37c.14-.16.15-.39.03-.57l-.96-1.51c-.11-.18-.32-.28-.53-.22l-1.69.39c-.34-.29-.71-.56-1.11-.78l-.2-1.73c-.03-.21-.18-.38-.39-.43l-1.75-.39c-.2-.04-.42.04-.53.22l-.91 1.48c-.46.03-.91.11-1.35.23l-1.36-1.08c-.17-.13-.4-.14-.58-.03l-1.51.96c-.18.12-.27.33-.22.54l.4 1.68c-.3.35-.5699.72-.79 1.12l-1.72.2c-.21.02-.38.18-.4301.39l-.39 1.7401c-.05.21.04.43.22.54l1.48.91c.03.46.1.91.23 1.35l-1.08 1.35c-.13.17-.14.4-.03.58l.96 1.51c.11.18.32.27.53.22l1.69-.39c.35.3.72.56 1.12.78l.19 1.73c.03.21.18.38.39.43l1.75.39c.03.01.07.01.11.01.17 0 .33-.09.42-.24l.92-1.47c.45-.03.9-.11 1.34-.23l1.36 1.08c.17.13.4.14.58.03l1.51-.96c.18-.11.27-.33.22-.53l-.4-1.7c.3-.34.5699-.72.79-1.11l1.72-.2c.21-.02.39-.18.43-.39l.39-1.7401C54.27 29.2343 54.18 29.0142 54 28.9043zM47.74 31.5242c-1.81 1.1-3.98.49-4.99-1.12-1.07-1.68-.57-3.92 1.12-4.99 1.67-1.07 3.92-.57 4.98 1.12C49.92 28.2142 49.42 30.4542 47.74 31.5242z" fill="#000000" class="color000000 svgShape"></path></svg>