<svg xmlns="http://www.w3.org/2000/svg" id="Layer_1" x="0" y="0" version="1.1" viewBox="0 0 629.4 549.1" xml:space="preserve"><style>.st0{stroke:#fff;stroke-width:3;stroke-miterlimit:10}</style><path d="M415.8 326.1L398 315.9l18-7.5c2.9-1.2 4.2-4.5 3-7.3s-4.5-4.2-7.3-3l-25.9 10.8-19.2-11.1 18-7.5c2.9-1.1 4.3-4.4 3.2-7.2s-4.4-4.3-7.2-3.2c-.1 0-.2.1-.3.1l-25.9 10.8-28-16.1 28-16.1 25.9 10.8c2.8 1.3 6.1.1 7.4-2.7 1.3-2.8.1-6.1-2.7-7.4-.1-.1-.3-.1-.4-.2l-18-7.5 19.2-11.1 25.9 10.8c2.9 1.2 6.1-.2 7.3-3 1.2-2.9-.2-6.1-3-7.3l-18-7.5 17.7-10.2c2.7-1.5 3.8-4.9 2.3-7.6-1.5-2.7-4.9-3.8-7.6-2.3-.1.1-.2.1-.3.2l-17.7 10.3 2.5-19.4c.4-3.1-1.8-5.9-4.8-6.3s-5.9 1.8-6.3 4.8l-3.6 27.8-19.2 10.8 2.5-19.3c.5-3.1-1.6-5.9-4.6-6.4-3.1-.5-5.9 1.6-6.4 4.6v.4l-3.6 27.8-28 16.1v-32.3l22.3-17c2.5-1.9 2.9-5.4 1-7.9s-5.4-2.9-7.9-1l-15.5 11.8v-22.2l22.3-17.1c2.4-2 2.7-5.5.7-7.9-1.9-2.2-5.1-2.7-7.5-1l-15.5 11.9v-20.4c0-3.1-2.5-5.6-5.6-5.6-3.1 0-5.6 2.5-5.6 5.6v20.4l-15.5-11.9c-2.5-1.9-6-1.4-7.9 1.1-1.4 1.8-1.5 4.2-.4 6.2.4.6.9 1.2 1.5 1.6l22.3 17.1v22.2L294 206.6c-2.5-1.9-6-1.4-7.9 1.1-1.9 2.5-1.4 6 1.1 7.9l22.3 17.1V265l-28-16.1-3.6-27.9c-.3-3.1-3-5.3-6.1-5s-5.3 3-5 6.1v.4l2.5 19.3-19.2-11.1-3.6-27.8c-.4-3.1-3.2-5.2-6.3-4.8-3.1.4-5.2 3.2-4.8 6.3l2.5 19.4-17.7-10.2c-2.7-1.6-6.1-.7-7.7 2-1 1.7-1 3.9 0 5.6.5.8 1.2 1.5 2 2l17.7 10.2-18 7.5c-2.9 1.2-4.2 4.5-3.1 7.4 1.2 2.9 4.5 4.2 7.4 3.1l26-10.8 19.2 11.1-18 7.5c-2.8 1.2-4.2 4.5-3 7.3.1.2.2.5.3.7 1.4 2.4 4.4 3.4 7 2.4l25.9-10.8 28 16.1-28 16.1-26-10.8c-2.9-1.2-6.1.1-7.3 3-.7 1.6-.6 3.5.3 5 .6 1.1 1.6 1.9 2.7 2.4l18 7.5-19.2 11.1-25.9-10.8c-2.9-1.2-6.1.1-7.3 3-.7 1.6-.6 3.5.3 5 .6 1.1 1.6 1.9 2.7 2.4l18 7.5-17.7 10.2c-2.7 1.6-3.6 5-2.1 7.7 1.6 2.7 5 3.6 7.7 2l17.7-10.2-2.5 19.3c-.2 1.2.1 2.5.7 3.5 1.6 2.7 5 3.6 7.7 2 1.5-.9 2.5-2.4 2.7-4.1l3.6-27.9 19.2-11.1-2.5 19.3c-.4 3.1 1.7 5.9 4.8 6.3 3.1.4 5.9-1.7 6.3-4.8l3.6-27.9 27.9-16.2v32.3L287 333.8c-2.2 1.7-2.8 4.8-1.4 7.3.1.2.3.4.4.6 1.9 2.4 5.4 2.9 7.8 1l15.5-11.8v22.2L287 370.2c-2.3 1.7-2.9 4.8-1.5 7.3.1.2.3.4.4.6 1.9 2.5 5.4 2.9 7.9 1l15.5-11.8v20.4c0 1 .3 1.9.8 2.8 1.5 2.7 5 3.6 7.7 2.1 1.7-1 2.8-2.8 2.8-4.8V367l15.5 11.9c2.4 2 5.9 1.6 7.9-.8 2-2.4 1.6-5.9-.8-7.9-.1-.1-.2-.2-.3-.2l-22.3-17.1v-22.2l15.5 11.8c2.5 1.8 6 1.2 7.8-1.3 1.7-2.4 1.3-5.7-1-7.6l-22.3-17.1v-32.3l28 16.1 3.6 27.9c.1.7.3 1.4.7 2.1 1.5 2.7 4.9 3.6 7.6 2.1 2-1.1 3.1-3.4 2.8-5.6l-2.5-19.3 19.2 11.1 3.6 27.9c.1.7.3 1.4.7 2 1.6 2.7 5 3.6 7.7 2.1 2-1.1 3.1-3.3 2.8-5.6l-2.5-19.3 17.7 10.2c2.7 1.6 6.1.6 7.7-2 1.7-2.8.8-6.2-1.9-7.8z"/><path d="M315.2 394.5c-3.9 0-7.1-3.2-7.1-7.1V370L295 380c-3.1 2.4-7.6 1.8-10-1.3-.2-.3-.4-.5-.5-.8-1.8-3.1-1-7 1.9-9.2l21.7-16.6v-18.4l-13.1 10c-1.5 1.2-3.4 1.7-5.2 1.4-1.9-.2-3.6-1.2-4.7-2.7l-.1-.1c-.2-.2-.3-.5-.5-.7-1.8-3.1-1-7 1.9-9.2l21.7-16.6v-28.9L283 301.3l-3.6 27.2c-.2 1.9-1.2 3.6-2.7 4.7-3.1 2.4-7.6 1.8-10-1.4a7.5 7.5 0 01-1.4-5.2l2.1-16.3-15.9 9.2-3.5 27.1c-.5 3.9-4.1 6.6-8 6.1-2.2-.3-4.1-1.6-5.2-3.5-.8-1.4-1.1-2.9-.9-4.5l2.1-16.3-15.1 8.7c-3.4 1.9-7.8.8-9.7-2.6-2-3.4-.8-7.8 2.6-9.7l15.1-8.7-15.2-6.3c-3.6-1.5-5.3-5.7-3.8-9.3 1.5-3.6 5.7-5.3 9.3-3.8l25.2 10.5 16-9.2-15.2-6.3c-1.4-.6-2.7-1.6-3.4-3-2-3.4-.9-7.7 2.5-9.7 1.9-1.2 4.3-1.3 6.4-.4l25.3 10.5 25.1-14.5-25.2-14.6-25.2 10.5c-3.3 1.4-7.1.1-8.9-3-.1-.3-.3-.5-.4-.8-1.5-3.6.2-7.8 3.8-9.3l15.2-6.3-15.9-9.2-25.3 10.5c-3.3 1.4-7.1.1-8.9-3-.1-.3-.3-.6-.4-.8-1.5-3.6.2-7.8 3.8-9.3l15.2-6.3-15.1-8.7c-1.1-.6-2-1.5-2.6-2.6-2-3.4-.8-7.8 2.6-9.7 2.2-1.3 4.9-1.3 7.1 0l15.1 8.7-2.1-16.3c-.3-3.9 2.6-7.4 6.5-7.7 3.7-.3 6.9 2.2 7.6 5.9l3.5 27.1 15.9 9.2-2.1-16.3c-.5-3.9 2.2-7.5 6.1-8s7.5 2.2 8 6.1l3.5 27.1 25.1 14.5v-29l-21.7-16.6c-.7-.5-1.3-1.2-1.8-2-2-3.4-.9-7.7 2.5-9.7 2.5-1.5 5.6-1.3 7.9.5l13.1 10V197l-21.7-16.6c-.8-.6-1.4-1.3-1.8-2.1-2-3.4-.8-7.7 2.6-9.7 2.5-1.4 5.6-1.2 7.9.5l13.1 10v-17.4c0-3.9 3.2-7.1 7.1-7.1 3.9 0 7.1 3.2 7.1 7.1v17.4l13.1-10c3.1-2.4 7.6-1.8 10 1.3 1.2 1.5 1.7 3.4 1.4 5.2-.2 1.9-1.2 3.6-2.7 4.7L322.3 197v18.4l13.1-10c3.1-2.4 7.6-1.8 10 1.3 2.4 3.1 1.8 7.6-1.3 10l-21.7 16.6v28.9l25.1-14.5 3.5-27.1c.4-3.9 4-6.7 7.9-6.3 3.9.4 6.7 4 6.3 7.9v.2l-2.1 16.3 16-9.2 3.5-27.1c.5-3.9 4-6.7 7.9-6.2 3.9.5 6.7 4 6.2 7.9v.1l-2.1 16.3 15.1-8.7c3.4-2 7.8-.8 9.7 2.6 2 3.4.8 7.8-2.6 9.7l-15.1 8.7 15.2 6.3c3.6 1.5 5.4 5.6 3.9 9.3-.7 1.8-2.1 3.1-3.9 3.9-1.7.7-3.7.7-5.4 0L386 242l-16 9.2 15.2 6.3c3.6 1.5 5.3 5.7 3.8 9.3-1.5 3.6-5.7 5.3-9.3 3.8l-25.2-10.5-25.1 14.5 25.1 14.5 25.3-10.6c3.6-1.5 7.8.2 9.3 3.8 1.5 3.6-.2 7.8-3.8 9.3L370 298l15.9 9.2 25.3-10.5c3.6-1.5 7.8.2 9.3 3.8 1.5 3.6-.2 7.8-3.8 9.3l-15.2 6.3 15.1 8.7c3.3 2.1 4.4 6.5 2.3 9.8-2 3.2-6.1 4.3-9.5 2.5l-15.1-8.6 2.1 16.3c.5 3.9-2.3 7.5-6.2 8-2.8.4-5.6-1-7.1-3.5-.5-.8-.8-1.7-.9-2.6l-3.5-27.2-16-9.2 2.1 16.3c.3 1.9-.2 3.8-1.4 5.2-2.4 3.1-6.8 3.7-10 1.3-.8-.6-1.4-1.3-1.9-2.1s-.8-1.7-.9-2.6l-3.5-27.1-25.1-14.5v29l21.7 16.6c3.2 2.3 4 6.7 1.7 9.9s-6.7 4-9.9 1.7c-.1-.1-.3-.2-.4-.3l-13.1-10v18.4l21.7 16.6c3.1 2.4 3.7 6.9 1.3 10-2.4 3.1-6.8 3.7-9.9 1.4h-.1l-13.1-10v17.4c0 1.9-.8 3.7-2.1 5-1 1.3-2.8 2-4.6 2zm0-3c2.3 0 4.1-1.8 4.1-4.1V364l17.9 13.7c1.8 1.4 4.3 1.2 5.8-.6 1.4-1.8 1.2-4.3-.6-5.8-.1-.1-.1-.1-.2-.1l-22.9-17.5v-26l17.9 13.7c.8.7 1.9 1 3 .8 2.3-.3 3.8-2.4 3.6-4.6-.1-1.1-.7-2-1.6-2.7l-22.9-17.5v-35.6l30.8 17.8 3.7 28.6c.1.5.2 1 .5 1.5.8 1.5 2.4 2.3 4.1 2 1.1-.1 2.1-.7 2.7-1.6.7-.9.9-1.9.8-3l-2.9-22.4 22.5 13 3.7 28.6c.1.5.2 1.1.5 1.5.8 1.4 2.4 2.2 4.1 2 2.3-.3 3.8-2.4 3.6-4.6l-2.9-22.4 20.3 11.7c2 1.1 4.5.5 5.6-1.5s.5-4.5-1.5-5.6l-20.3-11.7 20.8-8.6c2.1-.9 3.1-3.3 2.2-5.4s-3.3-3.1-5.4-2.2l-26.6 11-22.5-13 20.8-8.7c1-.4 1.8-1.2 2.2-2.2.4-1 .4-2.1 0-3.2-.4-1-1.2-1.8-2.2-2.2-1-.4-2.2-.4-3.2 0l-26.6 11.1-30.9-17.8 30.9-17.8 26.6 11.1c2.1.9 4.5-.1 5.4-2.2.9-2.1-.1-4.5-2.2-5.4l-20.8-8.7 22.5-13 26.6 11.1c2.1 1 4.5.1 5.5-2s.1-4.5-2-5.5c-.1-.1-.2-.1-.3-.1l-20.8-8.7 20.3-11.7c1-.5 1.6-1.4 1.9-2.5.3-1.1.1-2.2-.4-3.1-.5-1-1.4-1.6-2.5-1.9-1.1-.3-2.2-.1-3.1.4l-20.3 11.8 2.9-22.4c.3-2.2-1.2-4.3-3.5-4.7-2.2-.3-4.3 1.2-4.7 3.5v.1l-3.8 28.6-22.5 13 2.9-22.3c.3-2.2-1.3-4.3-3.5-4.6-2.2-.3-4.3 1.3-4.6 3.5l-3.7 28.6-30.9 17.8v-35.7l22.9-17.5c1.9-1.3 2.4-3.8 1.1-5.7-1.3-1.9-3.8-2.4-5.7-1.1-.1.1-.3.2-.4.3l-17.9 13.7v-25.9L342 178c.9-.7 1.4-1.6 1.6-2.7.1-1.1-.1-2.2-.8-3-1.4-1.8-3.9-2.2-5.8-.8l-17.9 13.7v-23.5c0-2.3-1.9-4.1-4.1-4.1-2.3 0-4.1 1.8-4.1 4.1v23.5L293 171.5c-.8-.7-1.9-1-3-.8-2.2.3-3.8 2.4-3.5 4.6.1.5.2 1 .5 1.5s.6.9 1.1 1.2l22.9 17.6v26l-17.9-13.8c-1.8-1.4-4.4-1-5.7.8-1 1.3-1.1 3.1-.3 4.6.3.5.6.9 1 1.2l22.9 17.5v35.6l-30.9-17.8-3.7-28.6c-.3-2.2-2.4-3.8-4.6-3.5-1.1.1-2.1.7-2.7 1.6-.7.9-1 1.9-.8 3l2.9 22.4-22.5-12.9-3.7-28.6c-.4-2.2-2.5-3.7-4.8-3.3-2.1.4-3.6 2.3-3.4 4.4l2.9 22.3-20.3-11.8c-2-1.1-4.5-.5-5.6 1.5-.7 1.3-.7 2.9 0 4.1.3.6.9 1.1 1.5 1.5l20.4 11.8-20.8 8.7c-2.1.9-3.1 3.3-2.2 5.4.1.2.2.4.3.5 1 1.8 3.2 2.5 5.1 1.7l26.6-11.1 22.5 13-20.8 8.6c-2.1.9-3.1 3.3-2.2 5.4.1.1.1.3.3.5 1 1.8 3.2 2.5 5.1 1.7l26.6-11.1 30.9 17.8-30.9 17.8-26.6-11.1c-1-.4-2.1-.4-3.2 0-1 .4-1.8 1.2-2.2 2.2-.5 1.2-.4 2.5.2 3.6.5.8 1.2 1.4 2 1.7l20.8 8.7-22.5 13-26.6-11c-2.1-.9-4.5 0-5.5 2s0 4.5 2 5.5c.1 0 .2.1.3.1l20.8 8.6-20.3 11.7c-.9.5-1.6 1.4-1.9 2.5-.3 1.1-.1 2.2.4 3.1 1.1 2 3.7 2.6 5.6 1.5l20.3-11.7-2.9 22.4c-.3 2.3 1.3 4.3 3.6 4.6 2.3.3 4.3-1.3 4.6-3.5l3.7-28.6 22.5-13-2.9 22.3c-.1.9 0 1.8.5 2.6 1.1 2 3.6 2.6 5.6 1.5 1.1-.6 1.9-1.8 2-3l3.7-28.5 30.9-17.8v35.6L288.2 335c-1.6 1.3-2.1 3.5-1.1 5.3.1.2.2.3.3.4l.1.1c.7.8 1.6 1.4 2.7 1.5 1.1.1 2.1-.2 3-.8l17.9-13.7v26l-22.9 17.5c-1.6 1.3-2.1 3.5-1.1 5.3.1.2.2.3.3.5 1.4 1.8 4 2.1 5.8.7L311 364v23.5c0 .7.2 1.4.5 2 .8 1.2 2.2 2 3.7 2zM140.8 72.3c99.9-86.1 247.8-86.2 347.7-.1l4.4-5.9c-102.6-87.8-253.9-87.8-356.5.1l4.4 5.9z"/><path d="M140.8 73l-5-6.7.4-.3c102.6-88.2 254.4-88.3 357.1 0l.4.3-5 6.7-.4-.3c-99.7-85.9-247.3-85.9-347 .1l-.5.2zm-3.7-6.5l3.8 5.1c99.9-85.8 247.6-85.9 347.5-.1l3.8-5.1c-102.3-87.3-252.8-87.2-355.1.1zM588.7 275.6v-1.1-1.3l-.9 1.2.9 1.2z"/><path d="M589.2 277.1l-2-2.7 2-2.7v5.4zM488.6 476.8c-99.9 86.2-247.9 86.1-347.8-.1l-4.4 5.9c102.6 87.9 254 88 356.6.1l-4.4-5.9z"/><path d="M314.7 549.1c-65.6.2-129-23.3-178.7-66.1l-.4-.3 5-6.7.4.4c99.7 86 247.4 86.1 347.2.1l.4-.4 5 6.7-.4.3c-49.6 42.7-113 66.1-178.5 66zM137 482.5c102.3 87.4 252.9 87.4 355.3.1l-3.8-5.1c-100 85.9-247.7 85.8-347.7-.1l-3.8 5.1zM40.7 273.4v2.1l.8-1-.8-1.1z"/><path d="M40.2 277v-5.1l1.9 2.6-1.9 2.5zM477.3 156.3c2.8-2.1 18.7-18.6 22.2-16.9-.8 8.4-6.9 18.4-10.9 25.6-2.4 4.3-5.1 8.4-8.1 12.2-2.4 3.1-9.6 7.6-10.3 11.4-1.6 9.7 9.3 2.2 12 .2 4.6-3.5 16.1-16.6 22.1-16.9 4.4-.2 2.3 1.6 1.7 5.3-1.3 8.2-17.5 26.9-25.2 34.2s-.6 9.4 6.5 5.9c4.4-2.2 24.4-17.1 29.3-14.3 4.6 2.7-26.6 29.7-27.7 32-7.3 14.5 22.3-2.2 25.7-3.9 3.1-1.5 8.5-5.8 10.6-1.6 1.6 3.2-7.5 14.2-9.4 16.5-3.7 4.6-29 19.5-17.5 23.9 8.5 3.2 18.9-9.7 27.8-8.8 13.1 1.4-9.5 19.9-13.6 22.2-3 1.7-17.3 10.2-7.5 11.7 7.7 1.2 14.2-6.1 22.8-2.6 7.2 2.9 10.4 11.2 4.3 17-3.2 3-8.5 3.3-12.6 3.4-3.7.1-13.4-3.6-16.1-1-9 8.6 30.9 13 34.1 15.3 5.1 3.7 2.1 7.3-2.8 10.1-6.7 3.9-15.3 3.1-22.5 1.2-3-.8-12.4-6.5-15.4-3.5-6.4 6.5 8.5 9.6 11.8 11.5 7.4 4.3 20.8 19.7 4.8 23.1-7.8 1.6-14.1-4.5-18.9-9.5-2.3-2.3-8.6-10.9-11.7-4-2 4.4 6.1 9.7 8.5 12.5 3.5 4.2 8 10.6 9.3 16.1 3.9 16-10.6 6.7-16.9 1.4-5.1-4.3-8.5-9.4-12.9-14.1-2.3-2.5-7.4-8.6-9.5-1.6-1.8 6 24.5 35.3 16.3 39.8-7.7 4.2-26.4-23.4-29.5-28.2-10.1-15.9-12.2-34-7.2-52.2 2.4-8.8 9.7-16.7 13.1-25.3 3.6-9 5.5-18.6 5.5-28.3-.2-20.2-13.8-32.9-18.6-51.4-4.5-17.3 1-34.4 10.9-48.8 6.7-9.6 16.4-12.7 25.5-19.6z"/><path d="M491.3 368.5c3.5 4.2 8 10.6 9.3 16.1 3.9 16-10.6 6.7-16.9 1.4-5.1-4.3-8.5-9.4-12.9-14.1-2.3-2.5-7.4-8.6-9.5-1.6-1.8 6 24.5 35.3 16.3 39.8-7.7 4.2-26.4-23.4-29.5-28.2-10.1-15.9-12.2-34-7.2-52.2 2.4-8.8 9.7-16.7 13.1-25.3 3.6-9 5.5-18.6 5.5-28.3-.2-20.2-13.8-32.9-18.6-51.4-4.5-17.3 1-34.4 10.9-48.8 6.5-9.4 16.2-12.6 25.3-19.4 2.8-2.1 18.7-18.6 22.2-16.9-.8 8.4-6.9 18.4-10.9 25.6-2.4 4.3-5.1 8.4-8.1 12.2-2.4 3.1-9.6 7.6-10.3 11.4-1.6 9.7 9.3 2.2 12 .2 4.6-3.5 16.1-16.6 22.1-16.9 4.4-.2 2.3 1.6 1.7 5.3-1.3 8.2-17.5 26.9-25.2 34.2s-.6 9.4 6.5 5.9c4.4-2.2 24.4-17.1 29.3-14.3 4.6 2.7-26.6 29.7-27.7 32-7.3 14.5 22.3-2.2 25.7-3.9 3.1-1.5 8.5-5.8 10.6-1.6 1.6 3.2-7.5 14.2-9.4 16.5-3.7 4.6-29 19.5-17.5 23.9 8.5 3.2 18.9-9.7 27.8-8.8 13.1 1.4-9.5 19.9-13.6 22.2-3 1.7-17.3 10.2-7.5 11.7 7.7 1.2 14.2-6.1 22.8-2.6 7.2 2.9 10.4 11.2 4.3 17-3.2 3-8.5 3.3-12.6 3.4-3.7.1-13.4-3.6-16.1-1-9 8.6 30.9 13 34.1 15.3 5.1 3.7 2.1 7.3-2.8 10.1-6.7 3.9-15.3 3.1-22.5 1.2-3-.8-12.4-6.5-15.4-3.5-6.4 6.5 8.5 9.6 11.8 11.5 7.4 4.3 20.8 19.7 4.8 23.1-7.8 1.6-14.1-4.5-18.9-9.5-2.3-2.3-8.6-10.9-11.7-4-1.7 4.1 6.4 9.4 8.7 12.3z" class="st0"/><path d="M528.5 106.3c2.4-2.2 15.2-12.1 13.2-2.9-3 14.4-11 28.2-19.5 40-4 5.7-8.3 11.7-13.2 16.7-4.1 4.1-7.6 4.4-12.7 7.7 7.2-13.5 9-28 15.9-40.6 4.2-7.8 9.7-14.8 16.3-20.9zM548 138.1c5.6-1.9-1.2 16.2-4.1 21.5-7 12.6-15.8 24.1-24.6 35.4-5-1.6-10.6 2.1-14.9 4.4 3.6-5.8 6.6-12 8.9-18.4 1.1-3.1 1.8-12.3.8-13.7 1.1-.9 28.4-27.4 33.9-29.2zM560.5 176.5c6.2-3.1 8.5-.2 5.3 6.4-5.5 11.5-14.3 21.1-23.8 29.4-3.8 3.3-8.7 8.5-13.1 8.9-7 .5-9.6-1-16.9 2.5 4.7-5.5 15.1-22.6 19.7-25.9 3.5-2.6 22.4-18 28.8-21.3zM567.4 213.3c12.7-6.4 14.9 3.7 9.1 13.4-6.1 10.1-16.2 17.1-26.3 22.8-4.5 2.5-10.8 6.7-15.2 6.1-6.9-1-8.3-3.3-16.2-.6 3.4-3.7 12.1-20.7 14.5-22.3 10.9-6.9 22.7-13.7 34.1-19.4zM552.2 260.9c4.2-1.3 30.8-10.5 30.9-1.1.2 10.9-12.2 20.9-20.3 26.4-3.4 2.3-16 11.2-20.4 9.8-1.2-.4-3.9-5.9-5.1-7-3.3-2.9-7.4-4.7-11.7-5.3 3.9-3.4 7.9-7.5 10.3-12.1 2.7-5 .8-4.3 6.2-7.2 3.1-1.6 6.8-2.4 10.1-3.5zM497.3 100.3c.3-.6 1.1-.9 1.7-.5.4.2.7.7.7 1.2-.5 8.3-1.7 22.7-8.5 32.2-3.7 5.2-14.9 14.7-22.1 20.8-.4.3-.9.3-1.2-.1-.2-.3-.3-.7-.1-1 11.1-16.8 20.3-34.8 29.5-52.6zM588 309.1c5.3 7.7-10.1 11.6-15 13.3-6.1 2.1-22.1 5.3-27.3 1.1-2.5-2-11.1-5.3-12.8-5.7 2.6-1.4 5-3.4 6.8-5.8.8-1.1 2.8-7.5 3.5-8 2.7-2.1 13.6.6 16.8 1 6.1.6 24.1-1.6 28 4.1zM587.1 356.8c10.2 10.7-4.8 13.9-14.1 14.4-15.1.7-30.2-1.2-44.7-5.5 2-6.5-1.2-13.1-5.5-18 5.8 0 11.5-1.4 16.7-4.2 1.4-.8 5.9-5.9 7-6.2 2.2-.6 10 2.7 12.1 3.4 9.5 3.4 21.2 8.5 28.5 16.1zM542.5 382.3c6.4 4.4 22 16 18.2 25.5-3.6 9.1-21.6 1-27.3-1.3-3.5-1.4-23.5-7.8-25.1-11.5-.6-1.5.9-6.5.6-8.8-.6-3.3-1.6-6.4-3.1-9.4 3.7.9 7.6.9 11.3-.2 1-.3 5.5-3.4 6.7-3.5 5.5-.3 14.2 6.1 18.7 9.2zM501.8 402.6c4.7 3.1 20.4 30 15.6 33.3-5.6 3.8-31.6-17.5-32.7-22-.3-1.2.1-14.8-1.4-18.2 2.6 2.1 5.5 3.8 8.5 5.1 3.4 1.2 7.7.3 10 1.8z"/><path d="M467.9 152.8c11-16.7 20.3-34.7 29.4-52.5.3-.6 1.1-.9 1.7-.5.4.2.7.7.7 1.2-.5 8.3-1.7 22.7-8.5 32.2-3.7 5.2-14.9 14.7-22.1 20.8-.4.3-.9.3-1.2-.1-.2-.4-.2-.8 0-1.1zM522.8 347.7c5.8 0 11.5-1.4 16.7-4.2 1.4-.8 5.9-5.9 7-6.2 2.2-.6 10 2.7 12.1 3.4 9.6 3.4 21.3 8.5 28.5 16.1 10.2 10.7-4.8 13.9-14.1 14.4-15.1.7-30.2-1.2-44.7-5.5 2-6.5-1.2-13.1-5.5-18zM545.8 323.5c-2.5-2-11.1-5.3-12.8-5.7 2.6-1.4 5-3.4 6.8-5.8.8-1.1 2.8-7.5 3.5-8 2.7-2.1 13.6.6 16.8 1 6 .7 24-1.5 27.9 4.1 5.3 7.7-10.1 11.6-15 13.3-6 2.1-22 5.3-27.2 1.1zM542.4 296c-1.2-.4-3.9-5.9-5.1-7-3.3-2.9-7.4-4.7-11.7-5.3 3.9-3.4 7.9-7.5 10.3-12.1 2.7-5 .8-4.3 6.2-7.2 3.1-1.6 6.8-2.5 10.1-3.5 4.2-1.3 30.8-10.5 30.9-1.1.2 10.9-12.2 20.9-20.3 26.4-3.4 2.3-16 11.2-20.4 9.8zM535.1 255.6c-6.9-1-8.3-3.3-16.2-.6 3.4-3.7 12.1-20.7 14.5-22.3 10.8-6.9 22.6-13.6 34-19.4 12.7-6.4 14.9 3.7 9.1 13.4-6.1 10.1-16.2 17.1-26.3 22.8-4.5 2.5-10.7 6.7-15.1 6.1zM529 221.1c-7 .5-9.6-1-16.9 2.5 4.7-5.5 15.1-22.6 19.7-25.9 3.5-2.6 22.4-18 28.9-21.3 6.2-3.1 8.5-.2 5.3 6.4-5.5 11.5-14.3 21.1-23.8 29.4-3.9 3.4-8.8 8.6-13.2 8.9zM519.3 195c-5-1.6-10.6 2.1-14.9 4.4 3.6-5.8 6.6-12 8.9-18.4 1.1-3.1 1.8-12.3.8-13.7 1-.8 28.4-27.3 33.8-29.1 5.6-1.9-1.2 16.2-4.1 21.5-6.9 12.5-15.7 24-24.5 35.3zM509 160.2c-4.1 4.1-7.6 4.4-12.7 7.7 7.2-13.5 9-28 15.9-40.6 4.2-7.9 9.7-15 16.3-21 2.4-2.2 15.2-12.1 13.2-2.9-3 14.4-11 28.2-19.5 40-4 5.8-8.3 11.8-13.2 16.8zM517.4 435.9c-5.6 3.8-31.6-17.5-32.7-22-.3-1.2.1-14.8-1.4-18.2 2.6 2.1 5.5 3.8 8.5 5.1 3.3 1.2 7.5.3 9.9 1.9 4.8 3 20.5 29.9 15.7 33.2zM508.8 386.1c-.6-3.3-1.6-6.4-3.1-9.4 3.7.9 7.6.9 11.3-.2 1-.3 5.5-3.4 6.7-3.5 5.7-.3 14.3 6.1 18.8 9.2 6.4 4.4 22 16 18.2 25.5-3.6 9.1-21.6 1-27.3-1.3-3.5-1.4-23.5-7.8-25.1-11.5-.7-1.5.9-6.5.5-8.8z" class="st0"/><path d="M579.7 121c1.4-1 3.4-.7 4.4.8.2.2.3.5.4.8 5.7 17.3-13.4 41.3-15.3 42.7-2.6 2-5.1 1.5-8.5 2.6-8.2 2.6-15.5 10.3-22.5 15.3 6.3-8.6 11.9-17.8 16.6-27.4 2.8-5.9 4-16.2 7.2-20.8 3.7-5.3 11.6-9.8 17.7-14zM595.6 164.6c7-.9 5.4 17.9 4.3 22.2-2.2 8.8-7.1 17.1-12.5 24.2-6-15.8-25.1-4-33.9 1.4 6.4-6.3 12.1-13.3 16.7-21 2.7-4.6 3.5-12.3 6.3-15.7 3.9-4.7 13.7-8 19.1-11.1zM565.9 97c1.5 2.5.4 5.8-4.1 14.3-5.1 9.7-7.4 14.8-10.3 17.3-4.6 3.7-11.5 5.5-16.4 9.7 4.6-7.5 8.4-15.4 11.3-23.6 1.8-5.3 0-10.8 3.6-15.2 3.1-3.7 7.7-5 11-5.5 1.7.4 3.8 1.2 4.9 3zM612.5 216.6c5-1.3 1.8 16.4.7 18.8-2.5 5.3-7.1 8.6-12 11.3-2.2 1.2-10.6 3.8-15.9 2.6-7.4-1.7-13.3-.8-20.8.6 6.4-4.5 12.1-9.9 16.9-16.1 1.9-2.5 5-9.7 10.5-11.7 6.6-2.4 13.8-3.7 20.6-5.5zM620.2 271.1c8.5-1.4 9.1 9 6.2 14.1-3.4 5.9-25.1 18.4-28.7 19-4 .6-2.8-.3-7-2.9-8.3-5.1-21-3.4-30.3-4.4 6.1-3.3 11.7-7.4 16.7-12.2 4.2-4.1 7-10.2 11.1-13.9 3-2.9 25.9 1.2 32 .3zM522.9 61.3c3.3-.3 4.3 10.7 4.3 15.7 0 3.9-.6 7.8-1.7 11.5-1.1 4.9-3 9.7-5.6 14-1.6 2.4-3.4 4.7-5.3 6.9-3.5 4.2-6.7 7.5-8.9 9.8 1-6.6 1.2-13.3.6-19.9-.7-7.4 1.9-12.1 5-19 1.5-3.1 7-18.6 11.6-19zM606.3 326.8c1.7 1.1 15.9 10.3 14.5 17.3-1.1 5.6-12.1 10.1-27 9-8.9-8.6-19.6-15.1-31.3-19.3 6.5-1.6 14.3-3.8 19.8-7.8 1.4-1.1 3-1.9 4.7-2.5 4.1-1.3 8.5-1.2 12.5.1 2.5.8 4.7 1.8 6.8 3.2zM599.5 394c.7 1.6 2.5 5.8.9 8-2.7 3.9-13.9.4-23.1-2.5-7.2-2.2-12.2-2-14.9-6.3-3.7-5.9-6.7-10.8-12.3-15.2 5.3.8 10.6 1.1 15.9 1 7.4-.1 14.8-1.1 22.1-2.9 1.3 3.8 3.2 7.3 5.7 10.4 2.4 3 4.3 4.2 5.7 7.5zM572.9 426.9c4 4.5 6.5 13 3.3 17.4-2.9 3.9-9.3 2.9-21.6 1.1-14.3-2.1-22.3-3.7-27.1-10-2-2.5-2.9-11.3-4.6-14.8-2.3-4.7-4.9-9.3-7.8-13.6 7.7 3.7 15.6 7.4 23.8 9.7 5 1.5 12.7-.9 20.3 1.8 2.7 1 5.3 2.3 7.8 3.8 2.2 1.2 4.2 2.8 5.9 4.6zM516.9 445.1c3.5 1.3 13.9 12.6 10.5 17.8-6.4 9.8-36.5-10.8-41.4-15.4-29.2-27.2-33.9-47.5-36-50 7.3 8.6 15 14.3 24.5 20.2 6.2 3.6 28.6 22.3 42.4 27.4z"/><path d="M527.5 462.8c-6.4 9.8-36.5-10.8-41.4-15.4-29.2-27.2-33.9-47.5-36-50 7.3 8.6 15 14.3 24.5 20.2 6.1 3.7 28.5 22.4 42.3 27.5 3.5 1.3 13.9 12.6 10.6 17.7zM576.2 444.3c-2.9 3.9-9.3 2.9-21.6 1.1-14.3-2.1-22.3-3.7-27.1-10-2-2.5-2.9-11.3-4.6-14.8-2.3-4.7-4.9-9.3-7.8-13.6 7.7 3.7 15.6 7.4 23.8 9.7 5 1.5 12.7-.9 20.3 1.8 2.7 1 5.3 2.3 7.8 3.8 2.1 1.3 4.1 2.8 5.8 4.6 4.1 4.5 6.7 13 3.4 17.4zM599.5 394c.7 1.6 2.5 5.8.9 8-2.7 3.9-13.9.4-23.1-2.5-7.2-2.2-12.2-2-14.9-6.3-3.7-5.9-6.7-10.8-12.3-15.2 5.3.8 10.6 1.1 15.9 1 7.4-.1 14.8-1.1 22.1-2.9 1.3 3.8 3.2 7.3 5.7 10.4 2.4 3 4.3 4.2 5.7 7.5zM606.3 326.8c1.7 1.1 15.9 10.3 14.5 17.3-1.1 5.6-12.1 10.1-27 9-8.9-8.6-19.6-15.1-31.3-19.3 6.5-1.6 14.3-3.8 19.8-7.8 1.4-1.1 3-1.9 4.7-2.5 4.1-1.3 8.5-1.2 12.5.1 2.5.8 4.7 1.8 6.8 3.2zM620.2 271.1c8.5-1.4 9.1 9 6.2 14.1-3.4 5.9-25.1 18.4-28.7 19-4 .6-2.8-.3-7-2.9-8.3-5.1-21-3.4-30.3-4.4 6.1-3.3 11.7-7.4 16.7-12.2 4.2-4.1 7-10.2 11.1-13.9 3-2.9 25.9 1.2 32 .3zM612.5 216.6c5-1.3 1.8 16.4.7 18.8-2.5 5.3-7.1 8.6-12 11.3-2.2 1.2-10.6 3.8-15.9 2.6-7.4-1.7-13.3-.8-20.8.6 6.4-4.5 12.1-9.9 16.9-16.1 1.9-2.5 5-9.7 10.5-11.7 6.6-2.4 13.8-3.7 20.6-5.5zM595.6 164.6c7-.9 5.4 17.9 4.3 22.2-2.2 8.8-7.1 17.1-12.5 24.2-6-15.8-25.1-4-33.9 1.4 6.4-6.3 12.1-13.3 16.7-21 2.7-4.6 3.5-12.3 6.3-15.7 3.9-4.7 13.7-8 19.1-11.1zM579.7 121c1.4-1 3.4-.7 4.4.8.2.2.3.5.4.8 5.7 17.3-13.4 41.3-15.3 42.7-2.6 2-5.1 1.5-8.5 2.6-8.2 2.6-15.5 10.3-22.5 15.3 6.3-8.6 11.9-17.8 16.6-27.4 2.8-5.9 4-16.2 7.2-20.8 3.7-5.3 11.6-9.8 17.7-14zM561.1 94.1c1.7.4 3.8 1.2 4.9 3 1.5 2.5.4 5.8-4.1 14.3-5.1 9.7-7.4 14.8-10.3 17.2-4.6 3.7-11.5 5.5-16.4 9.7 4.6-7.5 8.4-15.4 11.3-23.6 1.8-5.3 0-10.8 3.6-15.2 3-3.7 7.6-4.9 11-5.4zM525.5 88.5c-1.1 4.9-3 9.7-5.6 14-1.6 2.4-3.4 4.7-5.3 6.9-3.5 4.2-6.7 7.5-8.9 9.8 1-6.6 1.2-13.3.6-19.9-.7-7.4 1.9-12.1 5-19 1.4-3.1 6.9-18.5 11.5-18.9 3.3-.3 4.3 10.7 4.3 15.7.1 3.8-.5 7.7-1.6 11.4z" class="st0"/><path d="M152.2 156.3c-2.8-2.1-18.7-18.6-22.3-17 .8 8.4 6.9 18.4 10.9 25.7 2.4 4.3 5 8.4 8.1 12.2 2.4 3.1 9.6 7.6 10.3 11.4 1.6 9.7-9.3 2.2-12 .2-4.6-3.4-16.1-16.6-22.1-16.9-4.4-.2-2.3 1.6-1.7 5.3 1.3 8.2 17.5 26.9 25.2 34.2s.6 9.4-6.5 5.9c-4.4-2.2-24.4-17.1-29.3-14.3-4.6 2.7 26.6 29.7 27.7 32 7.3 14.5-22.3-2.2-25.7-3.9-3.1-1.5-8.5-5.8-10.6-1.6-1.6 3.2 7.6 14.2 9.4 16.5 3.7 4.6 29 19.5 17.5 23.9-8.5 3.2-18.9-9.7-27.8-8.8-13.1 1.4 9.5 19.9 13.6 22.2 3 1.7 17.3 10.2 7.5 11.7-7.7 1.2-14.2-6.1-22.8-2.7-7.2 2.9-10.4 11.2-4.3 17 3.2 3 8.5 3.3 12.6 3.4 3.7 0 13.4-3.6 16.1-1 9 8.6-30.9 13-34.1 15.3-5.1 3.7-2.1 7.2 2.8 10.1 6.7 3.9 15.3 3.1 22.5 1.2 3-.8 12.4-6.5 15.4-3.5 6.4 6.5-8.5 9.6-11.8 11.5-7.4 4.3-20.8 19.8-4.8 23.1 7.8 1.6 14.1-4.6 18.9-9.5 2.3-2.3 8.6-10.9 11.7-4 2 4.4-6.1 9.7-8.5 12.5-3.5 4.2-7.9 10.6-9.3 16.1-3.9 16 10.7 6.7 16.9 1.4 5.1-4.3 8.6-9.4 12.9-14.1 2.3-2.5 7.4-8.6 9.5-1.6 1.8 6-24.5 35.3-16.3 39.8 7.7 4.2 26.4-23.4 29.4-28.2 10.1-15.9 12.2-34 7.2-52.2-2.4-8.8-9.7-16.6-13.1-25.3-3.6-9-5.5-18.6-5.5-28.3.2-20.2 13.8-32.9 18.6-51.4 4.4-17.3-1-34.4-11-48.8-6.5-9.5-16.1-12.6-25.2-19.5z"/><path d="M146.6 355.9c-3.1-6.9-9.4 1.7-11.7 4-4.9 4.9-11.1 11.1-18.9 9.5-16-3.3-2.7-18.8 4.8-23.1 3.3-1.9 18.2-5 11.8-11.5-2.9-3-12.4 2.7-15.4 3.5-7.2 1.9-15.8 2.6-22.5-1.2-4.9-2.8-8-6.4-2.8-10.1 3.2-2.3 43.1-6.7 34.1-15.3-2.7-2.6-12.5 1-16.1 1-4.1-.1-9.4-.4-12.6-3.4-6.2-5.8-3-14.1 4.3-17 8.7-3.5 15.2 3.9 22.8 2.7 9.8-1.6-4.5-10-7.5-11.7-4.1-2.3-26.7-20.8-13.6-22.2 8.8-.9 19.2 12 27.8 8.8 11.5-4.4-13.7-19.3-17.5-23.9-1.8-2.3-11-13.3-9.4-16.5 2.1-4.1 7.5.1 10.6 1.6 3.4 1.7 33.1 18.4 25.7 3.9-1.1-2.3-32.3-29.3-27.7-32 4.8-2.9 24.9 12.1 29.3 14.3 7.1 3.5 14.2 1.3 6.5-5.9s-23.9-25.9-25.2-34.2c-.6-3.8-2.7-5.5 1.7-5.3 6 .3 17.5 13.5 22.1 16.9 2.7 2 13.6 9.5 12-.2-.6-3.7-7.8-8.3-10.3-11.4-3-3.9-5.7-7.9-8.1-12.2-4-7.3-10.1-17.3-10.9-25.7 3.6-1.6 19.4 14.8 22.3 17 9.1 6.9 18.8 10 25.3 19.4 9.9 14.4 15.4 31.5 11 48.8-4.8 18.5-18.4 31.2-18.6 51.4 0 9.7 1.9 19.3 5.5 28.3 3.4 8.7 10.7 16.5 13.1 25.3 5 18.2 2.9 36.3-7.2 52.2-3.1 4.8-21.8 32.4-29.4 28.2-8.2-4.4 18.1-33.8 16.3-39.8-2.1-7-7.2-.9-9.5 1.6-4.3 4.7-7.8 9.8-12.9 14.1-6.2 5.3-20.8 14.6-16.9-1.4 1.3-5.4 5.8-11.9 9.3-16.1 2.2-2.7 10.4-8 8.4-12.4z" class="st0"/><path d="M100.9 106.3c-2.4-2.2-15.2-12.1-13.2-2.8 3 14.4 11 28.2 19.5 40 4 5.7 8.3 11.7 13.2 16.7 4.1 4.1 7.6 4.4 12.7 7.7-7.2-13.5-9-28-15.9-40.6-4.2-7.8-9.7-14.9-16.3-21zM81.4 138.1c-5.6-1.9 1.2 16.2 4.1 21.5 6.9 12.6 15.8 24.1 24.6 35.4 5-1.6 10.6 2.1 14.9 4.4-3.6-5.8-6.6-12-8.9-18.4-1.1-3.1-1.8-12.3-.8-13.7-1.1-.9-28.4-27.4-33.9-29.2zM68.9 176.5c-6.2-3.1-8.5-.2-5.4 6.4 5.5 11.5 14.3 21.1 23.8 29.4 3.8 3.4 8.7 8.5 13.1 8.9 7 .5 9.6-1 16.9 2.5-4.7-5.5-15.1-22.6-19.6-25.9-3.5-2.6-22.4-18-28.8-21.3zM62 213.3c-12.7-6.4-14.9 3.8-9.1 13.4 6.1 10.1 16.2 17.1 26.3 22.8 4.5 2.5 10.8 6.7 15.2 6.1 6.9-1 8.3-3.3 16.2-.6-3.4-3.7-12.1-20.7-14.5-22.3-10.9-6.9-22.7-13.7-34.1-19.4zM77.2 260.9c-4.2-1.3-30.8-10.4-30.9-1.1-.2 10.9 12.2 20.9 20.3 26.4 3.4 2.3 16 11.2 20.4 9.8 1.2-.4 3.9-5.9 5.1-7 3.3-2.9 7.4-4.7 11.7-5.3-3.9-3.4-7.9-7.5-10.3-12.1-2.7-5-.8-4.3-6.2-7.2-3-1.6-6.7-2.4-10.1-3.5zM132.1 100.3c-.3-.6-1.1-.9-1.7-.5-.4.2-.7.7-.7 1.2.5 8.3 1.8 22.7 8.5 32.2 3.7 5.2 14.9 14.7 22.1 20.8.4.3.9.3 1.2-.1.2-.3.3-.7.1-1-11-16.8-20.3-34.8-29.5-52.6zM41.4 309.1c-5.3 7.7 10.1 11.6 15 13.3 6.1 2.1 22 5.3 27.3 1.1 2.5-2 11.1-5.3 12.8-5.7-2.6-1.4-5-3.4-6.8-5.8-.8-1.1-2.8-7.5-3.5-8-2.7-2.2-13.6.6-16.8 1-6.1.6-24.1-1.6-28 4.1zM42.4 356.8c-10.2 10.8 4.8 13.9 14 14.4 15.1.7 30.2-1.2 44.7-5.5-2-6.5 1.2-13.1 5.5-18-5.8 0-11.5-1.4-16.7-4.2-1.4-.8-5.9-5.9-7-6.2-2.2-.6-10 2.7-12.1 3.4-9.5 3.4-21.3 8.5-28.4 16.1zM87 382.3c-6.3 4.4-22 16-18.2 25.5 3.6 9.1 21.6 1 27.3-1.3 3.5-1.4 23.5-7.8 25.1-11.5.6-1.5-.9-6.5-.6-8.8.6-3.3 1.6-6.4 3.1-9.4-3.7.9-7.6.9-11.3-.2-1-.3-5.5-3.4-6.7-3.5-5.6-.3-14.3 6.1-18.7 9.2zM127.6 402.6c-4.7 3.1-20.4 30-15.6 33.3 5.6 3.8 31.6-17.5 32.7-22 .3-1.3-.1-14.8 1.4-18.2-2.6 2.1-5.5 3.8-8.5 5.1-3.4 1.2-7.6.3-10 1.8z"/><path d="M160.3 153.9c-7.2-6.1-18.4-15.6-22.1-20.8-6.8-9.5-8-23.8-8.5-32.2 0-.7.5-1.3 1.2-1.4.5 0 1 .2 1.2.7 9.2 17.8 18.4 35.8 29.4 52.5.3.4.1.9-.3 1.2-.2.3-.6.3-.9 0zM101.1 365.7c-14.5 4.3-29.6 6.2-44.7 5.5-9.3-.5-24.3-3.6-14-14.4 7.2-7.6 19-12.7 28.6-16.1 2-.7 9.9-4 12.1-3.4 1 .3 5.6 5.4 7 6.2 5.1 2.8 10.9 4.2 16.7 4.2-4.5 4.9-7.7 11.4-5.7 18zM56.4 322.4c-4.9-1.7-20.3-5.7-15-13.3 3.9-5.6 22-3.4 27.9-4.1 3.2-.4 14.1-3.1 16.8-1 .7.5 2.6 6.9 3.5 8 1.9 2.4 4.2 4.3 6.8 5.8-1.7.5-10.3 3.8-12.8 5.7-5.2 4.2-21.1 1-27.2-1.1zM66.7 286.2c-8.1-5.5-20.5-15.5-20.3-26.4.1-9.3 26.7-.1 30.9 1.1 3.3 1 7 1.9 10.1 3.5 5.4 2.8 3.5 2.1 6.2 7.2 2.4 4.6 6.4 8.7 10.3 12.1-4.3.6-8.4 2.4-11.7 5.3-1.2 1.1-3.9 6.6-5.1 7-4.5 1.4-17.1-7.5-20.4-9.8zM79.2 249.5c-10.1-5.6-20.2-12.6-26.3-22.8-5.8-9.7-3.6-19.8 9.1-13.4 11.4 5.8 23.2 12.5 34 19.4 2.4 1.5 11.1 18.5 14.5 22.3-7.9-2.6-9.3-.3-16.2.6-4.3.6-10.6-3.6-15.1-6.1zM87.3 212.3c-9.5-8.3-18.4-17.9-23.8-29.4-3.1-6.6-.8-9.5 5.4-6.4 6.5 3.3 25.4 18.7 28.9 21.3 4.5 3.3 15 20.4 19.6 25.9-7.3-3.5-9.9-2-16.9-2.5-4.4-.4-9.3-5.6-13.2-8.9zM85.6 159.6c-2.9-5.3-9.8-23.4-4.1-21.5 5.4 1.8 32.8 28.3 33.8 29.1-1 1.4-.2 10.6.8 13.7 2.3 6.4 5.3 12.6 8.9 18.4-4.3-2.2-9.9-6-14.9-4.4-8.8-11.2-17.5-22.7-24.5-35.3zM107.2 143.5c-8.4-11.9-16.4-25.6-19.5-40-2-9.3 10.8.7 13.2 2.9 6.6 6 12.1 13.1 16.3 21 6.9 12.6 8.8 27.1 15.9 40.6-5.1-3.3-8.6-3.6-12.7-7.7-4.8-5.1-9.1-11.1-13.2-16.8zM127.6 402.6c2.4-1.5 6.6-.6 9.9-1.9 3.1-1.3 5.9-3 8.5-5.1-1.5 3.4-1 17-1.4 18.2-1.1 4.6-27.1 25.9-32.7 22-4.7-3.2 11-30.1 15.7-33.2zM121.2 394.9c-1.6 3.8-21.5 10.1-25.1 11.5-5.7 2.3-23.7 10.5-27.3 1.3-3.7-9.5 11.9-21.1 18.2-25.5 4.5-3.1 13.1-9.5 18.8-9.2 1.2.1 5.6 3.2 6.7 3.5 3.7 1.1 7.6 1.1 11.3.2-1.5 2.9-2.6 6.1-3.1 9.4-.4 2.3 1.1 7.3.5 8.8z" class="st0"/><path d="M49.8 121c-1.4-1-3.4-.6-4.4.8-.2.2-.3.5-.4.8-5.6 17.3 13.4 41.3 15.3 42.7 2.6 2 5.1 1.5 8.6 2.6 8.2 2.6 15.6 10.3 22.5 15.3-6.4-8.6-11.9-17.8-16.6-27.4-2.8-5.9-4-16.2-7.2-20.8-3.9-5.3-11.8-9.8-17.8-14zM33.8 164.6c-7-.9-5.4 17.9-4.3 22.2 2.2 8.8 7.1 17.1 12.5 24.2 6-15.8 25.1-3.9 33.9 1.4-6.4-6.3-12.1-13.3-16.7-21-2.7-4.6-3.5-12.3-6.3-15.7-3.9-4.7-13.7-8-19.1-11.1zM63.5 97c-1.5 2.5-.4 5.8 4.1 14.3 5.1 9.7 7.4 14.8 10.3 17.3 4.6 3.7 11.5 5.5 16.4 9.7-4.6-7.5-8.4-15.4-11.3-23.6-1.9-5.3 0-10.8-3.6-15.2-3.1-3.7-7.7-5-11.1-5.4-1.6.3-3.7 1.1-4.8 2.9zM16.8 216.6c-4.9-1.3-1.8 16.4-.6 18.8 2.5 5.3 7.1 8.6 12 11.3 2.2 1.2 10.6 3.8 15.9 2.5 7.4-1.7 13.3-.8 20.8.6-6.4-4.5-12.1-9.9-16.9-16.1-1.9-2.5-5-9.7-10.5-11.6-6.6-2.4-13.8-3.7-20.7-5.5zM9.3 271.1c-8.5-1.4-9.1 9-6.2 14.1 3.4 5.9 25.1 18.5 28.7 19 4 .6 2.8-.3 7-2.9 8.3-5.1 21.1-3.4 30.4-4.4-6.1-3.3-11.7-7.4-16.7-12.2-4.2-4.1-7-10.2-11.1-14-3.2-2.8-26.1 1.3-32.1.4zM106.6 61.3c-3.3-.3-4.3 10.7-4.3 15.7 0 3.9.6 7.8 1.6 11.5 1.1 4.9 3 9.7 5.7 14 1.6 2.4 3.4 4.7 5.4 6.9 3.5 4.2 6.7 7.5 8.9 9.8-1-6.6-1.2-13.3-.7-19.9.7-7.4-1.9-12.1-5-19-1.5-3.1-7-18.6-11.6-19zM23.2 326.8c-1.7 1.1-15.9 10.3-14.5 17.3 1.1 5.6 12.1 10.1 27 9 8.9-8.6 19.6-15.1 31.2-19.3-6.5-1.6-14.3-3.8-19.9-7.8-1.4-1.1-3-2-4.7-2.6-5.5-1.9-10.7-.4-12.5.1-2.4.9-4.6 1.9-6.6 3.3zM29.9 394c-.7 1.6-2.5 5.8-.9 8 2.7 3.9 13.9.4 23.1-2.5 7.1-2.2 12.2-2 14.9-6.4 3.7-5.9 6.7-10.8 12.3-15.1-12.7 1.8-25.6 1.2-38-1.9-1.3 3.8-3.2 7.3-5.7 10.4-2.3 3-4.2 4.2-5.7 7.5zM56.5 426.9c-4 4.5-6.5 13-3.3 17.4 2.9 3.9 9.4 2.9 21.6 1.1 14.3-2.1 22.3-3.7 27.1-10 2-2.5 2.9-11.3 4.6-14.8 2.3-4.7 4.9-9.3 7.8-13.6-7.7 3.7-15.6 7.4-23.8 9.7-5 1.5-12.7-.9-20.3 1.8-2.7 1-5.3 2.3-7.8 3.8-2.1 1.2-4.1 2.8-5.9 4.6zM112.6 445.1c-3.5 1.3-13.9 12.6-10.6 17.8 6.4 9.8 36.5-10.8 41.4-15.4 29.2-27.2 33.9-47.5 36-50-7.3 8.6-15 14.3-24.6 20.2-6 3.6-28.4 22.3-42.2 27.4z"/><path d="M112.6 445.1c13.8-5.1 36.2-23.8 42.3-27.5 9.5-5.9 17.2-11.6 24.6-20.2-2.1 2.5-6.9 22.8-36 50-4.9 4.6-35 25.2-41.4 15.4-3.4-5.1 6.9-16.4 10.5-17.7zM56.5 426.9c1.7-1.8 3.7-3.3 5.8-4.6 2.5-1.5 5.1-2.8 7.8-3.8 7.6-2.7 15.3-.3 20.3-1.8 8.3-2.4 16.1-6 23.8-9.7-2.9 4.4-5.5 8.9-7.8 13.6-1.8 3.6-2.7 12.3-4.6 14.8-4.8 6.3-12.8 7.9-27.1 10-12.2 1.8-18.7 2.8-21.6-1.1-3.1-4.4-.6-12.9 3.4-17.4zM35.7 386.5c2.5-3.1 4.5-6.6 5.8-10.4 12.4 3 25.3 3.7 38 1.9-5.7 4.4-8.6 9.3-12.3 15.1-2.8 4.4-7.8 4.1-14.9 6.4-9.2 2.9-20.3 6.4-23.1 2.5-1.6-2.3.2-6.4.9-8 1.3-3.3 3.2-4.5 5.6-7.5zM29.7 323.7c1.8-.5 7-2 12.5-.1 1.7.6 3.3 1.4 4.7 2.5 5.5 4 13.3 6.2 19.9 7.8-11.7 4.1-22.4 10.7-31.3 19.3-14.9 1.1-25.9-3.4-27-9-1.3-7 12.8-16.2 14.5-17.3 2.1-1.5 4.4-2.5 6.7-3.2zM41.4 270.8c4.1 3.8 6.9 9.9 11.1 14 5 4.8 10.6 8.9 16.7 12.2-9.3 1-22.1-.7-30.4 4.4-4.2 2.6-3 3.5-7 2.9-3.7-.6-25.4-13.1-28.7-19-3-5.1-2.4-15.5 6.2-14.1 6 .8 28.9-3.3 32.1-.4zM37.5 222.1c5.5 1.9 8.6 9.2 10.5 11.6 4.8 6.2 10.5 11.6 16.9 16.1-7.4-1.4-13.4-2.3-20.7-.6-5.3 1.2-13.7-1.3-15.9-2.5-5-2.8-9.5-6-12-11.3-1.1-2.4-4.3-20.1.6-18.8 6.8 1.8 14 3.1 20.6 5.5zM53 175.6c2.8 3.4 3.6 11.1 6.3 15.7C64 199 69.6 206 76 212.3c-8.8-5.3-28-17.2-33.9-1.4-5.5-7.2-10.3-15.4-12.5-24.2-1.1-4.3-2.7-23.1 4.3-22.2 5.3 3.2 15.1 6.5 19.1 11.1zM67.4 135c3.2 4.6 4.4 14.9 7.2 20.8 4.7 9.6 10.3 18.8 16.6 27.4-7-4.9-14.3-12.6-22.5-15.3-3.5-1.1-6-.6-8.6-2.6-1.8-1.4-20.9-25.4-15.3-42.7.6-1.7 2.4-2.5 4-2 .3.1.5.2.8.4 6.2 4.2 14.1 8.7 17.8 14zM79.4 99.5c3.7 4.4 1.8 9.9 3.6 15.2 2.9 8.2 6.7 16.2 11.3 23.6-4.9-4.2-11.9-6-16.4-9.7-2.9-2.4-5.2-7.5-10.3-17.3-4.5-8.5-5.6-11.8-4.1-14.3 1.1-1.8 3.2-2.6 4.9-3 3.3.6 8 1.8 11 5.5zM102.2 77c0-5 1-16 4.3-15.7 4.7.4 10.2 15.9 11.6 18.9 3.1 6.8 5.7 11.6 5 19-.6 6.6-.3 13.3.7 19.9-2.2-2.3-5.3-5.6-8.9-9.8-1.9-2.2-3.7-4.5-5.3-6.9-2.7-4.3-4.6-9.1-5.7-14-1.1-3.6-1.6-7.5-1.7-11.4z" class="st0"/></svg>