<svg xmlns="http://www.w3.org/2000/svg" id="teddybear" viewBox="0 0 1024 1234" width="64" height="64"><path d="M987 351q-25 25-63 33 36 79 36 165 0 113-60 209T737 909.5 512 965t-225-55.5T124 758 64 549q0-86 36-165-38-8-63-33-42-42-36-108t56.5-117T174 69t109 37q27 27 34 68 93-41 195-41t195 41q8-41 34-68 43-43 109-37t116.5 57 56.5 117-36 108zM233 155q-25-26-64.5-22t-70 34.5-34 70T86 302q19 20 49 22 48-69 120-116-1-33-22-53zm86.5 234q-26.5 0-45 18.5t-18.5 45 18.5 45.5 45 19 45.5-19 19-45.5-19-45-45.5-18.5zm385 0q-26.5 0-45.5 18.5t-19 45 19 45.5 45.5 19 45-19 18.5-45.5-18.5-45-45-18.5zM512 581q-106 0-181 47t-75 113 75 113 181 47 181-47 75-113-75-113-181-47zm413.5-413.5q-30.5-30.5-70-34T791 155q-21 21-22 53 72 47 120 116 30-2 49-22 25-25 21.5-64.5t-34-70zM512 773q-32 0-80-21t-48-43q0-48 16-56t112-8 112 8 16 56q0 23-48 43.5T512 773z"/></svg>