<svg xmlns="http://www.w3.org/2000/svg" id="thinking" viewBox="0 0 1024 1234" width="64" height="64"><path d="M1024 309q0 42-18.5 78T955 448q5 20 5 37 0 66-47 113t-113 47q-35 0-69-16-26 37-67 58.5T576 709q-53 0-97.5-27T409 609q-38 36-89 36-53 0-90.5-37.5T192 517q-80 0-136-56T0 325t56-136 136-56q41 0 79 17 24-64 81-104.5T480 5q50 0 94 21.5T650 85q14-36 46-58t72-22q53 0 90.5 37.5T896 133q0 1-.5 3.5t-.5 3.5q57 16 93 62.5t36 106.5zM192 901q27 0 45.5 18.5t18.5 45-19 45.5-45.5 19-45-19-18.5-45 18.5-45 45.5-19zm160-192q40 0 68 28t28 68-28 68-68 28-68-28-28-68 28-68 68-28z"/></svg>