<svg id="svg2" xmlns="http://www.w3.org/2000/svg" viewBox="0 0 438.38 246.1"><defs><style>.cls-1{fill:#fff;}</style></defs><path id="path14" class="cls-1" d="M275.27,116.9H264.78V73.57H250.19V63.69h39.67v9.88H275.27V116.9" transform="translate(0.01 0)"/><path id="path16" class="cls-1" d="M316.23,87.71c-7.06,0-10.64,4.78-10.64,12v17.18h-9.65v-38h6.46l1.07,8.21c2.81-5.32,7.9-8.74,15-8.74h1.59v9.35h-3.88" transform="translate(0.01 0)"/><path id="path18" class="cls-1" d="M365.86,112c0,11.09-7.21,19.38-19,19.38A26.08,26.08,0,0,1,330,125.48l5.47-5.85a23.36,23.36,0,0,0,11.4,3c5.48,0,9.28-2.81,9.28-8.36v-2.43c-2.44,3.12-6.46,4.49-10.42,4.49-11,0-16.64-7.53-16.64-18.55V78.89h9.65V97.21c0,7,3.34,9.73,8.52,9.73,5.46,0,9-3.27,9-10.57V78.89h9.65V112" transform="translate(0.01 0)"/><path id="path20" class="cls-1" d="M286,184.62V162.8H265.4v21.82H254.9V131.41h10.49v21.51H286V131.41h10.49v53.21H286" transform="translate(0.01 0)"/><path id="path22" class="cls-1" d="M336.83,165.61a9.81,9.81,0,0,0-19.61-.63q0,.32,0,.63a9.81,9.81,0,0,0,19.61.63q0-.31,0-.63Zm2.44,19-.54-5.4a15.85,15.85,0,0,1-12.62,5.85c-10.79,0-18.54-8.66-18.54-19.46s7.75-19.53,18.54-19.53A16,16,0,0,1,338.73,152l.54-5.4h6.46v38h-6.46" transform="translate(0.01 0)"/><path id="path24" class="cls-1" d="M390.87,153.15l-5.78,6.23c-3.12-2.89-5.85-3.88-9.19-3.88a10.11,10.11,0,1,0,0,20.22c3.34,0,6.07-1,9.19-3.87l5.78,6.23a19.46,19.46,0,1,1,0-24.93" transform="translate(0.01 0)"/><path id="path26" class="cls-1" d="M421.11,174.51c-2.28-3.49-3.57-4.79-7.21-4.79h-2.67v14.9h-9.65V131.41h9.65v29h2.36c3.57,0,4.86-1.22,7.14-4.79l5.93-9.05h10.72l-8.52,12.85c-1.59,2.51-3.72,4.86-5.39,5.54,1.9.61,4,3,5.78,5.71l9.12,13.91H427.65l-6.54-10.11" transform="translate(0.01 0)"/><path id="path28" class="cls-1" d="M296.63,245.64v-34l-16,19.91-16-19.91v34H254.14V192.43h6.23l20.22,25.39,20.3-25.39h6.23v53.21H296.63" transform="translate(0.01 0)"/><path id="path30" class="cls-1" d="M329.61,223.21H347a5.9,5.9,0,0,0-.92-3,8.43,8.43,0,0,0-7.67-4.25C333.25,215.92,329.76,219.56,329.61,223.21Zm25.54-5.85a18.42,18.42,0,0,1,.6,11.93H329.23c0,5.17,4.25,8,9.42,8a25.69,25.69,0,0,0,11.48-2.67l5.09,5.55a27.93,27.93,0,0,1-16.57,5.93c-11.55,0-19.38-8.36-19.38-19.46,0-10.79,7.3-19.53,19.16-19.53,8.13,0,13.83,3.87,16.72,10.26" transform="translate(0.01 0)"/><path id="path32" class="cls-1" d="M130.14,127.37v-18l-4.57,3.53-3-4.12,8.08-5.93H136v24.54h-5.79" transform="translate(0.01 0)"/><path id="path34" class="cls-1" d="M153.92,115a17.64,17.64,0,0,0-.13-2.53,13.41,13.41,0,0,0-.52-2.58,5.45,5.45,0,0,0-1.1-2,2.34,2.34,0,0,0-1.85-.82,2.38,2.38,0,0,0-1.87.82,5.51,5.51,0,0,0-1.13,2,11.39,11.39,0,0,0-.54,2.58c-.09.93-.14,1.77-.14,2.53s.05,1.65.14,2.58a11.56,11.56,0,0,0,.54,2.6,5.51,5.51,0,0,0,1.13,2,2.38,2.38,0,0,0,1.87.82,2.34,2.34,0,0,0,1.85-.82,5.45,5.45,0,0,0,1.1-2,13.61,13.61,0,0,0,.52-2.6C153.87,116.68,153.92,115.82,153.92,115Zm6,0a22.71,22.71,0,0,1-.53,5,12.42,12.42,0,0,1-1.66,4.14,8.27,8.27,0,0,1-7.38,3.9,8.4,8.4,0,0,1-7.44-3.9A12.74,12.74,0,0,1,141.2,120a24,24,0,0,1,0-9.94,12.41,12.41,0,0,1,1.68-4.09,9.39,9.39,0,0,1,11.86-2.79,8.53,8.53,0,0,1,3,2.79,12.16,12.16,0,0,1,1.66,4.09,22.18,22.18,0,0,1,.53,4.94" transform="translate(0.01 0)"/><path id="path36" class="cls-1" d="M192.42,127.37v-18l-4.57,3.53-3-4.12,8.08-5.93h5.3v24.54h-5.79" transform="translate(0.01 0)"/><path id="path38" class="cls-1" d="M216.2,115a17.64,17.64,0,0,0-.13-2.53,13.41,13.41,0,0,0-.52-2.58,5.45,5.45,0,0,0-1.1-2,2.34,2.34,0,0,0-1.85-.82,2.38,2.38,0,0,0-1.87.82,5.51,5.51,0,0,0-1.13,2,12,12,0,0,0-.54,2.58c-.09.93-.14,1.77-.14,2.53s.05,1.65.14,2.58a11.56,11.56,0,0,0,.54,2.6,5.51,5.51,0,0,0,1.13,2,2.38,2.38,0,0,0,1.87.82,2.34,2.34,0,0,0,1.85-.82,5.45,5.45,0,0,0,1.1-2,13.61,13.61,0,0,0,.52-2.6C216.16,116.68,216.2,115.82,216.2,115Zm6,0a23.32,23.32,0,0,1-.52,5,12.65,12.65,0,0,1-1.67,4.14,8.27,8.27,0,0,1-7.38,3.9,8.4,8.4,0,0,1-7.44-3.9,12.67,12.67,0,0,1-1.68-4.14,24,24,0,0,1,0-9.94,12.41,12.41,0,0,1,1.68-4.09,8.81,8.81,0,0,1,3-2.79,8.9,8.9,0,0,1,4.44-1,8.81,8.81,0,0,1,4.42,1,8.53,8.53,0,0,1,3,2.79,12.18,12.18,0,0,1,1.67,4.09,23.41,23.41,0,0,1,.52,4.94" transform="translate(0.01 0)"/><path id="path40" class="cls-1" d="M129.6,166V148l-4.6,3.51-3-4.12,8.08-5.94h5.31V166h-5.8" transform="translate(0.01 0)"/><path id="path42" class="cls-1" d="M150,166V148l-4.58,3.54-3-4.12,8.07-5.94h5.31V166H150" transform="translate(0.01 0)"/><path id="path44" class="cls-1" d="M170.33,166V148l-4.58,3.54-3-4.12,8.07-5.94h5.31V166h-5.79" transform="translate(0.01 0)"/><path id="path46" class="cls-1" d="M195.16,153.67a16.33,16.33,0,0,0-.14-2.53,12.67,12.67,0,0,0-.51-2.58,5.45,5.45,0,0,0-1.1-2,2.34,2.34,0,0,0-1.85-.82,2.4,2.4,0,0,0-1.88.82,5.49,5.49,0,0,0-1.12,2,11.39,11.39,0,0,0-.54,2.58c-.09.92-.14,1.77-.14,2.53s.05,1.64.14,2.58a11.56,11.56,0,0,0,.54,2.6,5.49,5.49,0,0,0,1.12,2,2.4,2.4,0,0,0,1.88.82,2.34,2.34,0,0,0,1.85-.82,5.45,5.45,0,0,0,1.1-2,12.86,12.86,0,0,0,.51-2.6C195.11,155.31,195.16,154.45,195.16,153.67Zm6,0a22.71,22.71,0,0,1-.53,5,12.68,12.68,0,0,1-1.66,4.15,8.31,8.31,0,0,1-7.38,3.9,8.4,8.4,0,0,1-7.44-3.9,12.3,12.3,0,0,1-1.68-4.15,23.88,23.88,0,0,1,0-9.89,11.92,11.92,0,0,1,1.68-4.09,8.84,8.84,0,0,1,3-2.8,9,9,0,0,1,4.44-1,8.9,8.9,0,0,1,4.41,1,8.65,8.65,0,0,1,3,2.8,12.37,12.37,0,0,1,1.66,4.09,22.18,22.18,0,0,1,.53,4.94" transform="translate(0.01 0)"/><path id="path48" class="cls-1" d="M141.33,193.53V180.44L138,183l-2.19-3,5.87-4.31h3.85v17.82h-4.21" transform="translate(0.01 0)"/><path id="path50" class="cls-1" d="M170.8,193.53V180.44L167.47,183l-2.19-3,5.87-4.31H175v17.82h-4.2" transform="translate(0.01 0)"/><path id="path52" class="cls-1" d="M129.56,184.57a16.21,16.21,0,0,0-.1-1.84,9.22,9.22,0,0,0-.38-1.88,4,4,0,0,0-.79-1.45,1.7,1.7,0,0,0-1.35-.59,1.72,1.72,0,0,0-1.36.59,4.07,4.07,0,0,0-.81,1.45,8.63,8.63,0,0,0-.4,1.88c-.06.67-.1,1.29-.1,1.84a12.56,12.56,0,0,0,.1,1.87,8.16,8.16,0,0,0,.4,1.89,3.89,3.89,0,0,0,.81,1.46,1.72,1.72,0,0,0,1.36.59,1.7,1.7,0,0,0,1.35-.59,4.07,4.07,0,0,0,.79-1.46,9.31,9.31,0,0,0,.38-1.89A16.74,16.74,0,0,0,129.56,184.57Zm4.33,0a16.74,16.74,0,0,1-.38,3.6,9.1,9.1,0,0,1-1.21,3,6.09,6.09,0,0,1-2.15,2.07,6.29,6.29,0,0,1-3.21.76,6.45,6.45,0,0,1-3.22-.76,6.26,6.26,0,0,1-2.18-2.07,9,9,0,0,1-1.22-3,17.09,17.09,0,0,1,0-7.19,8.83,8.83,0,0,1,1.22-3,6.84,6.84,0,0,1,8.61-2,6.33,6.33,0,0,1,2.15,2,9.1,9.1,0,0,1,1.21,3,16.65,16.65,0,0,1,.38,3.59" transform="translate(0.01 0)"/><path id="path54" class="cls-1" d="M159.19,184.57a16.21,16.21,0,0,0-.1-1.84,9.22,9.22,0,0,0-.38-1.88,4,4,0,0,0-.79-1.45,1.7,1.7,0,0,0-1.35-.59,1.72,1.72,0,0,0-1.36.59,3.85,3.85,0,0,0-.81,1.45,7.58,7.58,0,0,0-.39,1.88c-.07.61-.1,1.23-.11,1.84a16.75,16.75,0,0,0,.11,1.87,7.66,7.66,0,0,0,.39,1.89,3.89,3.89,0,0,0,.81,1.46,1.72,1.72,0,0,0,1.36.59,1.7,1.7,0,0,0,1.35-.59,4.07,4.07,0,0,0,.79-1.46,9.31,9.31,0,0,0,.38-1.89A16.74,16.74,0,0,0,159.19,184.57Zm4.33,0a16.74,16.74,0,0,1-.38,3.6,9.1,9.1,0,0,1-1.21,3,6,6,0,0,1-5.36,2.83,6.45,6.45,0,0,1-3.22-.76,6.26,6.26,0,0,1-2.18-2.07,9,9,0,0,1-1.22-3,17.09,17.09,0,0,1,0-7.19,8.83,8.83,0,0,1,1.22-3,6.44,6.44,0,0,1,10.76,0,9.1,9.1,0,0,1,1.21,3,16.65,16.65,0,0,1,.38,3.59" transform="translate(0.01 0)"/><path id="path56" class="cls-1" d="M219.84,193.53V180.44L216.52,183l-2.19-3,5.86-4.31h3.86v17.82h-4.21" transform="translate(0.01 0)"/><path id="path58" class="cls-1" d="M208.23,184.57a13.44,13.44,0,0,0-.09-1.84,8.61,8.61,0,0,0-.39-1.88,4,4,0,0,0-.79-1.45,1.68,1.68,0,0,0-1.34-.59,1.72,1.72,0,0,0-1.36.59,4.25,4.25,0,0,0-.82,1.45,8.61,8.61,0,0,0-.39,1.88,16.21,16.21,0,0,0-.1,1.84,16.74,16.74,0,0,0,.1,1.87,8.7,8.7,0,0,0,.39,1.89,4.14,4.14,0,0,0,.82,1.46,1.72,1.72,0,0,0,1.36.59,1.68,1.68,0,0,0,1.34-.59,3.71,3.71,0,0,0,.79-1.46,8.7,8.7,0,0,0,.39-1.89C208.2,185.76,208.23,185.14,208.23,184.57Zm4.33,0a16.73,16.73,0,0,1-.37,3.6,9.56,9.56,0,0,1-1.21,3,6.36,6.36,0,0,1-2.15,2.07,7.2,7.2,0,0,1-6.43,0,6.26,6.26,0,0,1-2.18-2.07,9,9,0,0,1-1.22-3,17.09,17.09,0,0,1,0-7.19,8.83,8.83,0,0,1,1.22-3A6.44,6.44,0,0,1,211,178a9.1,9.1,0,0,1,1.21,3,16.64,16.64,0,0,1,.37,3.59" transform="translate(0.01 0)"/><path id="path60" class="cls-1" d="M203.67,214.52V201.44L200.35,204l-2.19-3,5.86-4.3h3.85v17.82h-4.2" transform="translate(0.01 0)"/><path id="path62" class="cls-1" d="M192.06,205.56c0-.61,0-1.23-.1-1.84a8.5,8.5,0,0,0-.38-1.87,4.07,4.07,0,0,0-.79-1.46,1.68,1.68,0,0,0-1.34-.59,1.72,1.72,0,0,0-1.36.59,4.05,4.05,0,0,0-.82,1.46,8.52,8.52,0,0,0-.39,1.87c-.06.61-.1,1.23-.1,1.84a16.79,16.79,0,0,0,.1,1.88,8.7,8.7,0,0,0,.39,1.89,4.05,4.05,0,0,0,.82,1.46,1.71,1.71,0,0,0,1.36.58,1.68,1.68,0,0,0,1.34-.58,4.07,4.07,0,0,0,.79-1.46,8.68,8.68,0,0,0,.38-1.89A16.79,16.79,0,0,0,192.06,205.56Zm4.33,0a16.73,16.73,0,0,1-.37,3.6,9.1,9.1,0,0,1-1.21,3,6.23,6.23,0,0,1-2.15,2.06,6.3,6.3,0,0,1-3.21.77,6.37,6.37,0,0,1-3.23-.77,6.21,6.21,0,0,1-2.17-2.06,8.83,8.83,0,0,1-1.22-3,17.15,17.15,0,0,1,0-7.18,8.56,8.56,0,0,1,1.22-3,6.21,6.21,0,0,1,2.17-2,6.49,6.49,0,0,1,3.23-.76,6.42,6.42,0,0,1,3.21.76,6.33,6.33,0,0,1,2.15,2,9.1,9.1,0,0,1,1.21,3,16.61,16.61,0,0,1,.37,3.58" transform="translate(0.01 0)"/><path id="path64" class="cls-1" d="M135.45,214.26V205.2l-2.3,1.77-1.51-2.07,4.06-3h2.67v12.34h-2.92" transform="translate(0.01 0)"/><path id="path66" class="cls-1" d="M127.41,208.06a11,11,0,0,0-.07-1.28,6.37,6.37,0,0,0-.26-1.3,2.72,2.72,0,0,0-.55-1,1.27,1.27,0,0,0-1.79-.08l-.08.08a2.77,2.77,0,0,0-.57,1,5.78,5.78,0,0,0-.27,1.3,11,11,0,0,0-.07,1.28,11.15,11.15,0,0,0,.07,1.29,4.85,4.85,0,0,0,.27,1.31,2.77,2.77,0,0,0,.57,1,1.27,1.27,0,0,0,1.79.08l.08-.08a2.72,2.72,0,0,0,.55-1,6.61,6.61,0,0,0,.26-1.31A11.15,11.15,0,0,0,127.41,208.06Zm3,0a12.24,12.24,0,0,1-.26,2.49,6.33,6.33,0,0,1-.84,2.09,4.2,4.2,0,0,1-3.71,2,4.37,4.37,0,0,1-2.24-.54,4.56,4.56,0,0,1-1.51-1.42,6.12,6.12,0,0,1-.84-2.09,12.05,12.05,0,0,1,0-5,6,6,0,0,1,.84-2.06,4.27,4.27,0,0,1,3.75-1.93,4.41,4.41,0,0,1,2.22.53,4.34,4.34,0,0,1,1.49,1.4,6.18,6.18,0,0,1,.84,2.06,11.57,11.57,0,0,1,.26,2.49" transform="translate(0.01 0)"/><path id="path68" class="cls-1" d="M171.7,230.12v-9.06l-2.3,1.77-1.51-2.07,4.06-3h2.66V230.1H171.7" transform="translate(0.01 0)"/><path id="path70" class="cls-1" d="M163.66,223.92a11,11,0,0,0-.07-1.28,6.37,6.37,0,0,0-.26-1.3,2.72,2.72,0,0,0-.55-1,1.27,1.27,0,0,0-1.79-.08l-.08.08a2.77,2.77,0,0,0-.57,1,5.78,5.78,0,0,0-.27,1.3,10.86,10.86,0,0,0-.08,1.28,11.17,11.17,0,0,0,.08,1.29,5.43,5.43,0,0,0,.27,1.32,2.77,2.77,0,0,0,.57,1,1.28,1.28,0,0,0,1.82.05l.05-.05a2.88,2.88,0,0,0,.55-1,6.56,6.56,0,0,0,.26-1.32A11.15,11.15,0,0,0,163.66,223.92Zm3,0a12.24,12.24,0,0,1-.26,2.49,6.5,6.5,0,0,1-.84,2.08,4.11,4.11,0,0,1-3.72,2,4.15,4.15,0,0,1-3.74-2,6.07,6.07,0,0,1-.84-2.08,11.71,11.71,0,0,1,0-5,6,6,0,0,1,.84-2.06,4.4,4.4,0,0,1,1.51-1.4,4.55,4.55,0,0,1,2.23-.52,4.17,4.17,0,0,1,3.72,1.92,6.39,6.39,0,0,1,.84,2.06,11.57,11.57,0,0,1,.26,2.49" transform="translate(0.01 0)"/><path id="path72" class="cls-1" d="M221.47,205.56c0-.61,0-1.23-.1-1.84a9.26,9.26,0,0,0-.38-1.87,4.07,4.07,0,0,0-.79-1.46,1.7,1.7,0,0,0-1.35-.59,1.75,1.75,0,0,0-1.36.59,4.11,4.11,0,0,0-.81,1.46,8,8,0,0,0-.39,1.87c-.06.61-.1,1.23-.1,1.84a16.79,16.79,0,0,0,.1,1.88,7.66,7.66,0,0,0,.39,1.89,4.11,4.11,0,0,0,.81,1.46,1.76,1.76,0,0,0,1.36.58,1.7,1.7,0,0,0,1.35-.58,4.07,4.07,0,0,0,.79-1.46,9.31,9.31,0,0,0,.38-1.89A16.79,16.79,0,0,0,221.47,205.56Zm4.33,0a16.74,16.74,0,0,1-.38,3.6,9.1,9.1,0,0,1-1.21,3,6.23,6.23,0,0,1-2.15,2.06,6.3,6.3,0,0,1-3.21.77,6.1,6.1,0,0,1-5.4-2.83,9,9,0,0,1-1.22-3,17.15,17.15,0,0,1,0-7.18,8.83,8.83,0,0,1,1.22-3,6.16,6.16,0,0,1,5.4-2.78,6.42,6.42,0,0,1,3.21.76,6.24,6.24,0,0,1,2.15,2,8.61,8.61,0,0,1,1.21,3,16.62,16.62,0,0,1,.38,3.58" transform="translate(0.01 0)"/><path id="path74" class="cls-1" d="M213.35,85.28a43.33,43.33,0,0,0-51.11-33.79l-.59.13a62.07,62.07,0,0,0-122.22-.81,43.39,43.39,0,0,0,4,86.6h64.92a6,6,0,0,0,0-12H43.4A31.4,31.4,0,1,1,60.94,68a6,6,0,0,0,6.72-10,42.8,42.8,0,0,0-16.12-6.62,50.07,50.07,0,0,1,98.61,4.48,41.24,41.24,0,0,0-4.69,2.92A6,6,0,0,0,152,68.85a4.84,4.84,0,0,0,.46-.33,31.4,31.4,0,0,1,49.11,19.14,6,6,0,0,0,5.88,4.79,6.13,6.13,0,0,0,1.21-.12,6,6,0,0,0,4.67-7.08" transform="translate(0.01 0)"/></svg>