<svg id="svg2" xmlns="http://www.w3.org/2000/svg" viewBox="0 0 438.37 246.08"><defs><style>.cls-1{fill:#c11111;}</style></defs><title>tryhackme_logo_full-col</title><path id="path14" d="M275.27,116.89H264.78V73.56H250.19V63.68h39.67v9.88H275.27v43.33" transform="translate(0 0.01)"/><path id="path16" d="M316.23,87.7c-7.06,0-10.64,4.78-10.64,12v17.18h-9.65v-38h6.46l1.07,8.21c2.81-5.32,7.9-8.74,15-8.74h1.59V87.7h-3.88" transform="translate(0 0.01)"/><path id="path18" d="M365.86,112c0,11.09-7.21,19.38-19,19.38A26.09,26.09,0,0,1,330,125.47l5.47-5.85a23.38,23.38,0,0,0,11.4,3c5.48,0,9.28-2.81,9.28-8.36v-2.43c-2.44,3.12-6.46,4.49-10.42,4.49-11,0-16.64-7.53-16.64-18.55V78.88h9.65V97.2c0,7,3.34,9.73,8.52,9.73,5.46,0,9-3.27,9-10.57V78.88h9.65V112" transform="translate(0 0.01)"/><path id="path20" class="cls-1" d="M286,184.61V162.79h-20.6v21.82H254.9V131.4h10.49v21.51H286V131.4h10.49v53.21H286" transform="translate(0 0.01)"/><path id="path22" class="cls-1" d="M336.83,165.6a9.81,9.81,0,1,0-19.61,0,9.81,9.81,0,1,0,19.61,0Zm2.44,19-.54-5.4a15.87,15.87,0,0,1-12.62,5.85c-10.79,0-18.54-8.66-18.54-19.46s7.75-19.53,18.54-19.53A16,16,0,0,1,338.73,152l.54-5.4h6.46v38h-6.46" transform="translate(0 0.01)"/><path id="path24" class="cls-1" d="M390.87,153.14l-5.78,6.23c-3.12-2.89-5.85-3.88-9.19-3.88a10.11,10.11,0,0,0,0,20.22c3.34,0,6.07-1,9.19-3.87l5.78,6.23a19.46,19.46,0,1,1,0-24.93" transform="translate(0 0.01)"/><path id="path26" class="cls-1" d="M421.11,174.5c-2.28-3.49-3.57-4.79-7.21-4.79h-2.67v14.9h-9.65V131.4h9.65v29h2.36c3.57,0,4.86-1.22,7.14-4.79l5.93-9.05h10.72l-8.52,12.85c-1.59,2.51-3.72,4.86-5.39,5.54,1.9.61,4,3,5.78,5.71l9.12,13.91H427.65l-6.54-10.11" transform="translate(0 0.01)"/><path id="path28" d="M296.63,245.63v-34l-16,19.91-16-19.91v34H254.14V192.42h6.23l20.22,25.39,20.3-25.39h6.23v53.21H296.63" transform="translate(0 0.01)"/><path id="path30" d="M329.61,223.2H347a5.86,5.86,0,0,0-.92-3,8.43,8.43,0,0,0-7.67-4.25C333.25,215.91,329.76,219.55,329.61,223.2Zm25.54-5.85a18.4,18.4,0,0,1,.6,11.93H329.23c0,5.17,4.25,8,9.42,8a25.72,25.72,0,0,0,11.48-2.67l5.09,5.55a28,28,0,0,1-16.57,5.93c-11.55,0-19.38-8.36-19.38-19.46,0-10.79,7.3-19.53,19.16-19.53,8.13,0,13.83,3.87,16.72,10.26" transform="translate(0 0.01)"/><path id="path32" class="cls-1" d="M130.14,127.36v-18l-4.57,3.53-3-4.12,8.08-5.93h5.3v24.54h-5.79" transform="translate(0 0.01)"/><path id="path34" class="cls-1" d="M153.92,115c0-.76,0-1.6-.13-2.53a13.39,13.39,0,0,0-.52-2.58,5.56,5.56,0,0,0-1.1-2,2.32,2.32,0,0,0-1.85-.82,2.37,2.37,0,0,0-1.87.82,5.46,5.46,0,0,0-1.13,2,11.45,11.45,0,0,0-.54,2.58c-.09.93-.14,1.77-.14,2.53s.05,1.65.14,2.58a11.4,11.4,0,0,0,.54,2.6,5.46,5.46,0,0,0,1.13,2,2.37,2.37,0,0,0,1.87.82,2.32,2.32,0,0,0,1.85-.82,5.56,5.56,0,0,0,1.1-2,13.3,13.3,0,0,0,.52-2.6C153.87,116.67,153.92,115.81,153.92,115Zm6,0a22.78,22.78,0,0,1-.53,5,12.57,12.57,0,0,1-1.66,4.14,8.27,8.27,0,0,1-7.38,3.9,8.4,8.4,0,0,1-7.44-3.9A12.59,12.59,0,0,1,141.2,120a22.79,22.79,0,0,1-.52-5,22.54,22.54,0,0,1,.52-4.94,12.23,12.23,0,0,1,1.68-4.09,9.38,9.38,0,0,1,11.86-2.79,8.6,8.6,0,0,1,3,2.79,12.21,12.21,0,0,1,1.66,4.09,22.53,22.53,0,0,1,.53,4.94" transform="translate(0 0.01)"/><path id="path36" class="cls-1" d="M192.42,127.36v-18l-4.57,3.53-3-4.12,8.08-5.93h5.3v24.54h-5.79" transform="translate(0 0.01)"/><path id="path38" class="cls-1" d="M216.2,115c0-.76,0-1.6-.13-2.53a13.39,13.39,0,0,0-.52-2.58,5.56,5.56,0,0,0-1.1-2,2.32,2.32,0,0,0-1.85-.82,2.37,2.37,0,0,0-1.87.82,5.46,5.46,0,0,0-1.13,2,12,12,0,0,0-.54,2.58c-.09.93-.14,1.77-.14,2.53s.05,1.65.14,2.58a12,12,0,0,0,.54,2.6,5.46,5.46,0,0,0,1.13,2,2.37,2.37,0,0,0,1.87.82,2.32,2.32,0,0,0,1.85-.82,5.56,5.56,0,0,0,1.1-2,13.3,13.3,0,0,0,.52-2.6C216.16,116.67,216.2,115.81,216.2,115Zm6,0a23.42,23.42,0,0,1-.52,5,12.58,12.58,0,0,1-1.67,4.14,8.27,8.27,0,0,1-7.38,3.9,8.4,8.4,0,0,1-7.44-3.9,12.59,12.59,0,0,1-1.68-4.14,23.42,23.42,0,0,1-.52-5,23.17,23.17,0,0,1,.52-4.94,12.23,12.23,0,0,1,1.68-4.09,8.81,8.81,0,0,1,3-2.79,8.92,8.92,0,0,1,4.44-1,8.81,8.81,0,0,1,4.42,1,8.6,8.6,0,0,1,3,2.79,12.22,12.22,0,0,1,1.67,4.09,23.17,23.17,0,0,1,.52,4.94" transform="translate(0 0.01)"/><path id="path40" d="M129.6,166V148L125,151.51l-3-4.12,8.08-5.94h5.31V166h-5.8" transform="translate(0 0.01)"/><path id="path42" d="M150,166V148l-4.58,3.54-3-4.12,8.07-5.94h5.31V166H150" transform="translate(0 0.01)"/><path id="path44" d="M170.33,166V148l-4.58,3.54-3-4.12,8.07-5.94h5.31V166h-5.79" transform="translate(0 0.01)"/><path id="path46" d="M195.16,153.66c0-.76,0-1.61-.14-2.53a13.25,13.25,0,0,0-.51-2.58,5.56,5.56,0,0,0-1.1-2,2.32,2.32,0,0,0-1.85-.82,2.39,2.39,0,0,0-1.88.82,5.59,5.59,0,0,0-1.12,2,11.33,11.33,0,0,0-.54,2.58c-.09.92-.14,1.77-.14,2.53s.05,1.64.14,2.58a11.51,11.51,0,0,0,.54,2.6,5.59,5.59,0,0,0,1.12,2,2.39,2.39,0,0,0,1.88.82,2.32,2.32,0,0,0,1.85-.82,5.56,5.56,0,0,0,1.1-2,13.46,13.46,0,0,0,.51-2.6C195.11,155.3,195.16,154.44,195.16,153.66Zm6,0a22.69,22.69,0,0,1-.53,5,12.76,12.76,0,0,1-1.66,4.15,8.3,8.3,0,0,1-7.38,3.9,8.4,8.4,0,0,1-7.44-3.9,12.35,12.35,0,0,1-1.68-4.15,23.77,23.77,0,0,1,0-9.89,12,12,0,0,1,1.68-4.09,8.84,8.84,0,0,1,3-2.8,9,9,0,0,1,4.44-1,8.88,8.88,0,0,1,4.41,1,8.57,8.57,0,0,1,3,2.8,12.42,12.42,0,0,1,1.66,4.09,22.53,22.53,0,0,1,.53,4.94" transform="translate(0 0.01)"/><path id="path48" class="cls-1" d="M141.33,193.52V180.43L138,183l-2.19-3,5.87-4.31h3.85v17.82h-4.21" transform="translate(0 0.01)"/><path id="path50" class="cls-1" d="M170.8,193.52V180.43L167.47,183l-2.19-3,5.87-4.31H175v17.82h-4.2" transform="translate(0 0.01)"/><path id="path52" class="cls-1" d="M129.56,184.56a17.82,17.82,0,0,0-.1-1.84,9.21,9.21,0,0,0-.38-1.88,4,4,0,0,0-.79-1.45,1.7,1.7,0,0,0-1.35-.59,1.72,1.72,0,0,0-1.36.59,4.08,4.08,0,0,0-.81,1.45,8.59,8.59,0,0,0-.4,1.88c-.06.67-.1,1.29-.1,1.84s0,1.19.1,1.87a8.32,8.32,0,0,0,.4,1.89,4,4,0,0,0,.81,1.46,1.72,1.72,0,0,0,1.36.59,1.7,1.7,0,0,0,1.35-.59,4,4,0,0,0,.79-1.46,8.91,8.91,0,0,0,.38-1.89A18.23,18.23,0,0,0,129.56,184.56Zm4.33,0a16.77,16.77,0,0,1-.38,3.6,9.17,9.17,0,0,1-1.21,3,6.17,6.17,0,0,1-2.15,2.07,6.3,6.3,0,0,1-3.21.76,6.37,6.37,0,0,1-3.22-.76,6.26,6.26,0,0,1-2.18-2.07,9,9,0,0,1-1.22-3,17.2,17.2,0,0,1,0-7.19,8.81,8.81,0,0,1,1.22-3,6.83,6.83,0,0,1,8.61-2,6.33,6.33,0,0,1,2.15,2,9,9,0,0,1,1.21,3,16.6,16.6,0,0,1,.38,3.59" transform="translate(0 0.01)"/><path id="path54" class="cls-1" d="M159.19,184.56a17.82,17.82,0,0,0-.1-1.84,9.21,9.21,0,0,0-.38-1.88,4,4,0,0,0-.79-1.45,1.69,1.69,0,0,0-1.35-.59,1.72,1.72,0,0,0-1.36.59,3.93,3.93,0,0,0-.81,1.45,8,8,0,0,0-.39,1.88,18,18,0,0,0-.11,1.84,18.42,18.42,0,0,0,.11,1.87,7.81,7.81,0,0,0,.39,1.89,3.9,3.9,0,0,0,.81,1.46,1.72,1.72,0,0,0,1.36.59,1.69,1.69,0,0,0,1.35-.59,4,4,0,0,0,.79-1.46,8.91,8.91,0,0,0,.38-1.89A18.23,18.23,0,0,0,159.19,184.56Zm4.33,0a16.77,16.77,0,0,1-.38,3.6,9.17,9.17,0,0,1-1.21,3,6,6,0,0,1-5.36,2.83,6.37,6.37,0,0,1-3.22-.76,6.26,6.26,0,0,1-2.18-2.07,9,9,0,0,1-1.22-3,17.2,17.2,0,0,1,0-7.19,8.81,8.81,0,0,1,1.22-3,6.44,6.44,0,0,1,10.76,0,9,9,0,0,1,1.21,3,16.6,16.6,0,0,1,.38,3.59" transform="translate(0 0.01)"/><path id="path56" d="M219.84,193.52V180.43L216.52,183l-2.19-3,5.86-4.31h3.86v17.82h-4.21" transform="translate(0 0.01)"/><path id="path58" d="M208.23,184.56c0-.55,0-1.17-.09-1.84a9.21,9.21,0,0,0-.39-1.88,3.9,3.9,0,0,0-.79-1.45,1.67,1.67,0,0,0-1.34-.59,1.71,1.71,0,0,0-1.36.59,4.26,4.26,0,0,0-.82,1.45,9.21,9.21,0,0,0-.39,1.88,17.82,17.82,0,0,0-.1,1.84,18.23,18.23,0,0,0,.1,1.87,8.9,8.9,0,0,0,.39,1.89,4.21,4.21,0,0,0,.82,1.46,1.71,1.71,0,0,0,1.36.59,1.67,1.67,0,0,0,1.34-.59,3.87,3.87,0,0,0,.79-1.46,8.9,8.9,0,0,0,.39-1.89C208.2,185.75,208.23,185.13,208.23,184.56Zm4.33,0a16.77,16.77,0,0,1-.37,3.6,9.39,9.39,0,0,1-1.21,3,6.26,6.26,0,0,1-2.15,2.07,7.18,7.18,0,0,1-6.43,0,6.26,6.26,0,0,1-2.18-2.07,9,9,0,0,1-1.22-3,17.2,17.2,0,0,1,0-7.19,8.81,8.81,0,0,1,1.22-3A6.44,6.44,0,0,1,211,178a9.22,9.22,0,0,1,1.21,3,16.61,16.61,0,0,1,.37,3.59" transform="translate(0 0.01)"/><path id="path60" class="cls-1" d="M203.67,214.51V201.43L200.35,204l-2.19-3,5.86-4.3h3.85v17.82h-4.2" transform="translate(0 0.01)"/><path id="path62" class="cls-1" d="M192.06,205.55a18,18,0,0,0-.1-1.84,8.49,8.49,0,0,0-.38-1.87,4,4,0,0,0-.79-1.46,1.7,1.7,0,0,0-1.34-.59,1.74,1.74,0,0,0-1.36.59,4,4,0,0,0-.82,1.46,9.11,9.11,0,0,0-.39,1.87,18,18,0,0,0-.1,1.84,18.27,18.27,0,0,0,.1,1.88,9.17,9.17,0,0,0,.39,1.89,4,4,0,0,0,.82,1.46,1.73,1.73,0,0,0,1.36.58,1.69,1.69,0,0,0,1.34-.58,4,4,0,0,0,.79-1.46,8.55,8.55,0,0,0,.38-1.89A18.27,18.27,0,0,0,192.06,205.55Zm4.33,0a16.77,16.77,0,0,1-.37,3.6,9.23,9.23,0,0,1-1.21,3,6.23,6.23,0,0,1-2.15,2.06,6.33,6.33,0,0,1-3.21.77,6.41,6.41,0,0,1-3.23-.77,6.2,6.2,0,0,1-2.17-2.06,8.82,8.82,0,0,1-1.22-3,16.77,16.77,0,0,1-.38-3.6,16.58,16.58,0,0,1,.38-3.58,8.58,8.58,0,0,1,1.22-3,6.27,6.27,0,0,1,2.17-2,6.51,6.51,0,0,1,3.23-.76,6.43,6.43,0,0,1,3.21.76,6.3,6.3,0,0,1,2.15,2,9,9,0,0,1,1.21,3,16.59,16.59,0,0,1,.37,3.58" transform="translate(0 0.01)"/><path id="path64" d="M135.45,214.25v-9.06l-2.3,1.77-1.51-2.07,4.06-3h2.67v12.34h-2.92" transform="translate(0 0.01)"/><path id="path66" d="M127.41,208.05a12,12,0,0,0-.07-1.28,6.51,6.51,0,0,0-.26-1.3,2.8,2.8,0,0,0-.55-1,1.27,1.27,0,0,0-1.87,0,2.69,2.69,0,0,0-.57,1,5.35,5.35,0,0,0-.27,1.3,12,12,0,0,0-.07,1.28,12.18,12.18,0,0,0,.07,1.29,5.24,5.24,0,0,0,.27,1.31,2.69,2.69,0,0,0,.57,1,1.27,1.27,0,0,0,1.87,0,2.8,2.8,0,0,0,.55-1,6.33,6.33,0,0,0,.26-1.31A12.18,12.18,0,0,0,127.41,208.05Zm3,0a11.81,11.81,0,0,1-.26,2.49,6.41,6.41,0,0,1-.84,2.09,4.2,4.2,0,0,1-3.71,2,4.37,4.37,0,0,1-2.24-.54,4.55,4.55,0,0,1-1.51-1.42,6.2,6.2,0,0,1-.84-2.09,11.18,11.18,0,0,1-.26-2.49,11.06,11.06,0,0,1,.26-2.49,6,6,0,0,1,.84-2.06,4.28,4.28,0,0,1,3.75-1.93,4.39,4.39,0,0,1,2.22.53,4.25,4.25,0,0,1,1.49,1.4,6.24,6.24,0,0,1,.84,2.06,11.67,11.67,0,0,1,.26,2.49" transform="translate(0 0.01)"/><path id="path68" class="cls-1" d="M171.7,230.11v-9.06l-2.3,1.77-1.51-2.07,4.06-3h2.66v12.34H171.7" transform="translate(0 0.01)"/><path id="path70" class="cls-1" d="M163.66,223.91a12,12,0,0,0-.07-1.28,6.51,6.51,0,0,0-.26-1.3,2.8,2.8,0,0,0-.55-1,1.27,1.27,0,0,0-1.87,0,2.69,2.69,0,0,0-.57,1,5.35,5.35,0,0,0-.27,1.3,12.19,12.19,0,0,0-.08,1.28,12.37,12.37,0,0,0,.08,1.29,5.42,5.42,0,0,0,.27,1.32,2.77,2.77,0,0,0,.57,1,1.29,1.29,0,0,0,1.87,0,2.89,2.89,0,0,0,.55-1,6.57,6.57,0,0,0,.26-1.32A12.18,12.18,0,0,0,163.66,223.91Zm3,0a11.81,11.81,0,0,1-.26,2.49,6.48,6.48,0,0,1-.84,2.08,4.09,4.09,0,0,1-3.72,2,4.16,4.16,0,0,1-3.74-2,6.06,6.06,0,0,1-.84-2.08,11.62,11.62,0,0,1,0-5,6,6,0,0,1,.84-2.06,4.41,4.41,0,0,1,1.51-1.4,4.46,4.46,0,0,1,2.23-.52,4.41,4.41,0,0,1,2.23.52,4.35,4.35,0,0,1,1.49,1.4,6.46,6.46,0,0,1,.84,2.06,11.74,11.74,0,0,1,.26,2.49" transform="translate(0 0.01)"/><path id="path72" class="cls-1" d="M221.47,205.55a18,18,0,0,0-.1-1.84,9.11,9.11,0,0,0-.38-1.87,4.09,4.09,0,0,0-.79-1.46,1.72,1.72,0,0,0-1.35-.59,1.76,1.76,0,0,0-1.36.59,4.13,4.13,0,0,0-.81,1.46,8,8,0,0,0-.39,1.87,18,18,0,0,0-.1,1.84,18.27,18.27,0,0,0,.1,1.88,8,8,0,0,0,.39,1.89,4.13,4.13,0,0,0,.81,1.46,1.75,1.75,0,0,0,1.36.58,1.71,1.71,0,0,0,1.35-.58,4.09,4.09,0,0,0,.79-1.46,9.17,9.17,0,0,0,.38-1.89A18.27,18.27,0,0,0,221.47,205.55Zm4.33,0a16.77,16.77,0,0,1-.38,3.6,9,9,0,0,1-1.21,3,6.14,6.14,0,0,1-2.15,2.06,6.3,6.3,0,0,1-3.21.77,6.11,6.11,0,0,1-5.4-2.83,9,9,0,0,1-1.22-3,16.77,16.77,0,0,1-.38-3.6,16.58,16.58,0,0,1,.38-3.58,8.77,8.77,0,0,1,1.22-3,6.16,6.16,0,0,1,5.4-2.78,6.41,6.41,0,0,1,3.21.76,6.21,6.21,0,0,1,2.15,2,8.76,8.76,0,0,1,1.21,3,16.58,16.58,0,0,1,.38,3.58" transform="translate(0 0.01)"/><path id="path74" class="cls-1" d="M213.35,85.27a43.32,43.32,0,0,0-51.7-33.66A62.07,62.07,0,0,0,39.43,50.8a43.39,43.39,0,0,0,4,86.6h64.92a6,6,0,0,0,0-12H43.4A31.4,31.4,0,1,1,60.94,68,6,6,0,1,0,67.66,58a42.88,42.88,0,0,0-16.12-6.62,50.07,50.07,0,0,1,98.61,4.48,41.59,41.59,0,0,0-4.69,2.92,6,6,0,1,0,7,9.73,31.39,31.39,0,0,1,49.11,19.14,6,6,0,0,0,5.88,4.79,6.36,6.36,0,0,0,1.21-.12,6,6,0,0,0,4.67-7.08" transform="translate(0 0.01)"/></svg>