<?xml version="1.0" encoding="utf-8"?>
<!-- Generator: Adobe Illustrator 23.0.6, SVG Export Plug-In . SVG Version: 6.00 Build 0)  -->
<svg version="1.1" id="Layer_1" xmlns="http://www.w3.org/2000/svg" xmlns:xlink="http://www.w3.org/1999/xlink" x="0px" y="0px"
	 viewBox="0 0 576 167" style="enable-background:new 0 0 576 167;" xml:space="preserve">
<style type="text/css">
	.st0{fill-rule:evenodd;clip-rule:evenodd;fill:#EA5252;}
</style>
<g id="Page-1">
	<path id="Fill-1" class="st0" d="M529.9,140.2h16.5l28.5-72.3h-16.3l-11.8,36l-12.4-36h-18.2l21.7,52.2L529.9,140.2z M448,85.1
		v37.1h-16.6V67.9h11.7l3.5,4.7c4.5-3.8,9.4-6,15-6c7.5,0,13.2,2.2,16.6,7.7c5.1-4.6,10.4-7.7,17.3-7.7c12.9,0,20.3,6.6,20.3,24.7
		v30.9h-16.6v-29c0-8.3-3.4-10.7-8.7-10.7c-3.2,0-5.8,0.8-8.7,2.7c0.2,1.9,0.3,3.9,0.3,6.1v30.9h-16.6v-29c0-8.3-3.4-10.7-8.8-10.7
		C453.4,82.4,450.9,83.2,448,85.1L448,85.1z M390,89.7h21.4c-1.2-7.1-5-10.4-10.6-10.4C395.9,79.3,391.2,82.1,390,89.7L390,89.7z
		 M401.9,123.2c-16,0-28.9-7.9-28.9-28.8c0-19.5,12.4-27.9,26.8-27.9c17.3,0,25,12.1,25,31.2h-34.9c1.2,9.4,7,12.1,14.6,12.1
		c7.4,0,13.3-1.8,17.8-4.9l-2.3,13.2C415.7,121.5,410.6,123.2,401.9,123.2L401.9,123.2z M339.9,109.2c3.8,0,6.6-0.6,9.6-2.8V82.7
		c-2.6-1.6-5.3-2.3-9.1-2.3c-8.1,0-12.7,5.5-12.7,14.6C327.7,104,332.4,109.2,339.9,109.2L339.9,109.2z M352.8,118.1
		c-4.3,3.3-9.3,5.3-16.3,5.3c-14.9,0-25.6-9.2-25.6-28c0-18.8,12.3-28.9,28.1-28.9c3.7,0,7.3,0.5,10.5,1.8v-23h16.6v76.9h-10.5
		L352.8,118.1z M240.3,90V49.8h17.3v39.9c0,14.3,6.4,17.3,15.3,17.3c9.6,0,14.5-4.2,14.5-17.3V49.8h17.4V90
		c0,23.7-10.3,33.6-32.8,33.6C251.2,123.6,240.3,115.1,240.3,90L240.3,90z"/>
	<path id="Fill-4" class="st0" d="M196.3,93c-0.7-0.6-1.5-0.9-2.3-1.1c-5.1,5.1-11.2,10.4-16.7,13.9c-2.5,1.7-5.7,2.5-7.8,2.5
		c-4.9,0-7-4.6-7.6-12c-0.8-9.9-1.4-21.7-1.4-40c0-18.8-4.3-31.5-15.6-32.5c-0.5,0-1-0.1-1.5-0.1c-7,0-10.3,3.6-14.8,12.6
		c-3.8,7.8-9.7,19.1-20.7,40.6c-9.5,18.5-20.1,34.9-29.1,46.3c-2.5,3.1-4.5,5.3-6.4,6.5c-1.3,0.8-2.5,1.2-3.7,1.2
		c-3.6,0-6.2-3-7.1-10.1c-0.2-1.7-0.3-3.6-0.3-5.7c0-14.5,5.5-38.1,15-72.8C83.1,17.2,80.2,0,65,0c0,0,0,0-0.1,0c0,0-0.1,0-0.1,0
		l0,0c-3.4,0-6.3,1.3-9,3.4c-2.7,2.1-5.4,6.7-7.9,12.9C44.9,23.3,27.6,58.1,0,76c-0.3,6.8,3.5,13.6,11.3,14.4
		c7.1,0.7,12.2-2.3,18.7-6.7c-0.5,2.2-0.9,4.2-1.3,6.1c-0.5,2.2-0.9,4.1-1.2,5.6c-0.5,2.3-0.8,3.7-0.9,4.1c-0.9,4.1-1.5,8.1-2,11.8
		c-3.9,34.8,12.2,51.9,31.1,51.9c3.2,0,6.3-0.4,9.4-1.2c20.8-5.3,40.8-29.1,64.5-84c-0.4,6-0.4,11.6-0.1,16.7
		c1.6,31.5,14,40.9,31.6,40.9c13.3,0,25.8-6.9,32.1-15.6c4.6-6.1,6.5-12.8,6.5-18.1C199.6,97.9,198.3,94.7,196.3,93"/>
</g>
</svg>
