<svg xmlns="http://www.w3.org/2000/svg" id="web" viewBox="0 0 717 1086" width="64" height="64"><path d="M0 541v-1c9-116 51-203 124-258 72-56 150-83 235-83 89-1 172 29 246 89 75 59 112 147 112 261v7c0 115-37 201-112 260-75 60-158 90-247 90h-4c-87-1-167-31-241-91C39 756 1 665 0 541zm337-157V226h-24c-5 6-9 13-13 19s-8 12-12 19c-4 6-9 14-12 20-4 6-7 12-10 19-6 10-11 20-15 29-5 9-9 18-12 26 6 4 13 9 21 12 9 3 18 6 27 8 10 2 19 3 27 4 9 1 17 2 23 2zm42-158v157c5 0 11 1 17 0 6 0 13-1 19-2 11-2 24-5 34-8 11-4 21-9 28-15-12-29-25-52-38-74s-28-41-44-57v-1h-16zm-108 9v-1c-7 3-14 8-22 11-7 3-16 7-23 11-14 7-28 15-42 24-13 9-26 19-37 29 4 4 9 8 13 11s9 7 14 11c4 2 9 5 14 9 5 3 11 7 17 11 8-18 16-37 26-54 10-18 21-35 32-50 1-2 2-4 4-6 1-1 2-4 4-6zm306 74v-1c-25-19-47-35-69-45s-44-20-64-28c16 16 30 36 39 55 10 20 20 41 28 61 4-2 9-4 15-8 5-3 12-6 18-9 6-4 11-8 17-12 6-5 12-9 16-13zm-17 223h115c0-37-8-72-23-108-14-35-34-64-59-89v-1c-5 8-12 15-19 20-8 5-15 9-23 13-5 3-10 7-15 9-5 3-12 5-17 8 4 8 8 17 12 25 3 9 8 19 10 28 6 16 10 33 14 50 3 15 5 31 5 45zM198 384v-1c-8-4-17-7-24-11-7-5-14-10-20-14-6-3-12-7-17-11s-9-8-13-12c-26 25-45 53-57 86-13 33-22 70-26 110h123c0-28 4-55 11-82 6-28 15-49 23-65zm139 147V416c-8 1-18 1-27 0-10-1-20-4-29-7-8-2-18-4-26-7-9-2-18-6-25-10-6 10-11 22-15 35-5 12-8 25-11 37-2 12-3 25-4 36s-2 22-2 31h139zm42-113v113h148c0-6 0-13-1-21-2-7-3-16-4-24-3-12-6-25-10-37-4-11-8-22-13-31-2-5-4-11-6-15-3-5-6-8-8-11-11 8-26 13-44 17-17 4-37 8-55 9h-7zM164 564H41c0 17 3 36 8 59 5 24 15 46 26 70 5 12 11 24 17 36 7 11 15 23 23 34 6-4 12-7 17-10 6-3 13-7 19-10 7-3 14-6 22-10 7-3 16-7 25-11-8-25-17-49-23-76-7-26-11-52-11-81v-1zm173 117V564H198c0 8 1 20 3 32 1 12 4 25 6 38 4 14 7 28 11 40s8 22 12 31c18-7 36-12 48-15 13-4 25-7 37-8h11c4-1 8-1 11-1zm42-117v116c7 1 15 2 23 3 9 1 20 3 29 5l15 3c5 2 11 3 16 4 6 2 12 3 18 5 5 2 10 3 14 5 13-33 21-60 26-83 5-22 7-41 7-57v-1H379zm296 1v-1H560v6c-1 19-4 41-8 64-4 22-13 48-25 80 16 8 31 16 43 24s23 17 31 25c17-17 32-40 45-70 13-29 22-59 27-91 1-6 1-12 2-18v-19zM337 869V713c-25 4-46 9-62 13s-28 8-36 12c6 15 12 28 18 40 6 11 13 23 19 33 2 4 6 8 9 13 3 4 5 9 8 13 3 5 6 11 9 17 4 5 7 11 11 15h24zm42 0h23c9-7 18-17 25-28 8-11 17-24 23-35 7-13 14-25 20-37s11-23 15-31c-11-4-26-8-41-12s-36-8-65-12v155zm198-82v-1c-2-3-6-7-9-10s-8-7-13-10c-4-3-9-6-15-9s-14-7-21-11c-4 8-11 22-21 41-9 19-25 42-45 67 25-4 47-13 67-25 22-11 41-26 57-42zm-372-32v-1c-7 4-18 9-29 14-12 5-25 11-37 19 7 6 14 12 20 16 6 5 13 9 19 13 11 7 24 14 37 20s29 12 49 18c-7-8-12-18-17-26s-11-16-16-24-9-17-13-25c-5-8-9-16-13-24z"/></svg>