<?xml version="1.0" standalone="no"?>
<!DOCTYPE svg PUBLIC "-//W3C//DTD SVG 20010904//EN"
 "http://www.w3.org/TR/2001/REC-SVG-20010904/DTD/svg10.dtd">
<svg version="1.0" xmlns="http://www.w3.org/2000/svg"
 width="2991.000000pt" height="2991.000000pt" viewBox="0 0 2991.000000 2991.000000"
 preserveAspectRatio="xMidYMid meet">
<metadata>
Created by potrace 1.11, written by Peter Selinger 2001-2013
</metadata>
<g transform="translate(0.000000,2991.000000) scale(0.100000,-0.100000)"
fill="#000000" stroke="none">
<path d="M14549 27685 c-2 -2 -74 -6 -159 -10 -223 -10 -355 -18 -595 -40 -72
-6 -86 -8 -195 -19 -108 -12 -199 -23 -295 -37 -38 -5 -88 -12 -109 -14 -22
-3 -51 -7 -65 -10 -14 -2 -44 -6 -66 -10 -23 -3 -52 -8 -65 -10 -14 -3 -41 -7
-60 -10 -43 -5 -105 -15 -134 -21 -26 -5 -65 -12 -108 -19 -18 -3 -40 -8 -48
-10 -8 -2 -31 -6 -50 -9 -37 -6 -69 -12 -110 -21 -14 -4 -34 -8 -45 -9 -48 -8
-92 -18 -125 -26 -19 -5 -46 -11 -60 -14 -14 -3 -36 -8 -50 -11 -14 -3 -34 -8
-45 -10 -45 -8 -83 -17 -140 -32 -33 -8 -68 -17 -78 -19 -10 -2 -27 -6 -37 -9
-10 -3 -28 -8 -39 -10 -48 -11 -80 -19 -231 -60 -8 -2 -71 -20 -140 -40 -69
-20 -129 -37 -135 -39 -5 -1 -37 -11 -70 -21 -33 -10 -64 -19 -70 -21 -5 -1
-37 -11 -70 -22 -33 -10 -85 -27 -115 -36 -30 -9 -62 -20 -70 -23 -8 -3 -19
-7 -25 -9 -28 -7 -314 -109 -380 -135 -16 -7 -34 -13 -40 -14 -12 -3 -338
-131 -380 -150 -16 -7 -75 -32 -130 -55 -112 -48 -182 -79 -270 -120 -33 -15
-98 -45 -145 -66 -149 -68 -538 -267 -730 -373 -231 -128 -474 -272 -478 -283
-2 -4 -8 -8 -13 -8 -9 0 -110 -59 -119 -70 -3 -3 -27 -19 -53 -34 -95 -54
-452 -295 -602 -406 -120 -88 -211 -156 -225 -167 -8 -6 -82 -63 -165 -127
-82 -63 -159 -123 -170 -133 -11 -10 -38 -32 -59 -48 -22 -17 -53 -42 -69 -56
-15 -14 -64 -55 -107 -90 -44 -35 -79 -67 -80 -72 0 -10 212 -293 223 -296 5
-2 81 58 170 131 361 300 732 576 1077 803 74 49 137 93 138 97 2 4 8 8 14 8
5 0 33 15 61 34 116 76 424 260 557 334 25 13 69 38 98 54 30 17 82 46 115 64
68 37 631 317 712 354 95 43 420 182 520 222 55 22 111 45 125 51 14 5 30 11
35 13 14 3 256 94 280 104 31 14 538 179 550 180 3 0 21 6 40 14 19 8 35 12
35 9 0 -3 7 0 15 7 8 7 15 10 15 7 0 -3 28 4 63 15 34 11 69 21 77 23 8 2 92
24 185 50 94 25 179 47 190 50 11 2 31 7 45 10 14 3 36 8 49 11 14 3 28 7 32
10 4 2 27 7 51 10 24 4 51 10 61 15 9 6 17 8 17 5 0 -3 15 0 33 5 17 5 43 11
57 14 14 3 34 7 45 9 63 13 275 56 300 60 17 3 41 8 55 11 14 3 41 8 60 10 19
3 46 7 60 10 56 12 76 15 105 19 17 3 44 7 60 10 17 3 50 8 75 11 25 3 56 8
70 10 14 2 43 6 65 10 23 3 50 7 60 9 11 2 51 7 88 11 37 3 76 8 85 10 9 1 44
6 77 9 33 4 74 9 90 11 39 5 121 14 210 21 39 3 90 7 115 9 517 44 1233 52
1730 20 206 -13 259 -17 290 -20 19 -2 67 -6 105 -10 105 -9 155 -14 210 -20
28 -3 73 -8 100 -11 28 -3 61 -7 75 -9 14 -2 50 -7 80 -10 30 -4 64 -8 75 -10
43 -6 112 -16 145 -20 19 -2 46 -7 60 -10 14 -3 45 -8 70 -11 25 -3 52 -7 60
-9 8 -2 35 -7 60 -10 25 -3 52 -8 61 -11 9 -2 32 -7 50 -9 19 -3 45 -7 59 -10
14 -3 50 -9 80 -15 90 -16 103 -19 150 -30 25 -5 56 -12 70 -14 14 -2 48 -10
75 -16 28 -7 59 -14 70 -15 11 -2 48 -10 83 -19 34 -9 82 -21 105 -25 23 -5
114 -28 202 -51 88 -23 167 -43 175 -45 8 -2 87 -24 175 -50 88 -26 167 -48
175 -50 8 -2 65 -20 125 -40 61 -20 115 -38 120 -39 6 -2 17 -6 25 -9 8 -3 42
-15 76 -25 123 -40 480 -170 541 -198 17 -8 34 -14 37 -14 6 0 216 -86 281
-114 17 -8 64 -28 105 -46 338 -145 733 -342 1135 -565 104 -57 384 -224 505
-301 74 -48 144 -91 154 -98 11 -6 25 -14 30 -19 6 -4 83 -56 172 -116 323
-219 681 -488 994 -750 80 -66 148 -121 151 -121 14 0 232 302 223 308 -6 4
-75 61 -155 127 -186 156 -300 247 -479 382 -191 144 -428 313 -439 313 -5 0
-11 4 -13 8 -3 9 -303 212 -313 212 -3 0 -26 15 -52 34 -177 125 -713 431
-1098 625 -322 163 -797 380 -817 373 -5 -1 -8 3 -8 8 0 5 -3 9 -7 8 -5 -1
-21 4 -38 11 -16 7 -82 33 -145 58 -63 24 -124 49 -135 54 -21 9 -152 58 -170
63 -5 2 -21 8 -35 13 -29 12 -260 94 -275 97 -5 2 -17 6 -25 9 -8 3 -46 16
-85 27 -38 12 -95 30 -125 40 -30 10 -95 31 -145 45 -49 15 -101 30 -115 35
-14 5 -86 25 -160 45 -74 20 -155 43 -180 50 -45 14 -374 92 -420 101 -14 3
-33 7 -42 10 -17 5 -42 10 -92 20 -16 2 -32 6 -35 8 -3 2 -22 7 -41 10 -19 3
-46 8 -60 11 -33 7 -87 17 -150 29 -19 3 -46 8 -60 11 -14 3 -50 9 -80 15 -30
6 -66 12 -80 15 -14 3 -41 7 -60 10 -19 3 -46 7 -60 10 -14 3 -45 8 -70 11
-25 3 -52 7 -60 9 -8 2 -37 7 -65 10 -27 3 -61 8 -75 10 -22 4 -80 12 -150 20
-86 10 -138 16 -161 20 -14 3 -52 7 -85 10 -32 3 -77 7 -99 10 -152 17 -235
23 -500 40 -55 4 -129 9 -165 11 -79 6 -1077 14 -1081 9z"/>
<path d="M14395 25830 c4 -729 1 -657 27 -666 13 -4 50 -19 83 -34 33 -15 83
-38 110 -50 28 -12 95 -43 150 -67 55 -25 118 -53 140 -63 22 -10 71 -32 109
-49 38 -18 87 -39 110 -48 22 -9 45 -20 50 -24 5 -4 10 -109 12 -233 l3 -226
-112 -1 c-62 -1 -139 -2 -172 -3 l-60 -1 -5 90 c-3 50 -5 138 -5 198 l0 107
-217 0 -217 0 2 -409 c2 -355 4 -410 17 -413 8 -2 134 -3 280 -2 146 1 414 2
595 3 l330 1 -1 298 c-1 163 -2 426 -3 583 l-1 287 -37 15 c-21 8 -69 29 -108
47 -224 102 -259 118 -435 197 -80 36 -160 72 -178 80 l-32 15 2 216 3 216
173 4 172 3 0 -198 0 -198 217 0 218 0 -1 315 c-1 173 -2 359 -3 413 l-1 98
-609 -3 -608 -3 2 -495z"/>
<path d="M16199 26253 c0 -10 -2 -25 -4 -33 -1 -8 -6 -35 -9 -60 -4 -25 -9
-56 -11 -70 -3 -14 -7 -38 -9 -55 -3 -16 -7 -43 -10 -60 -8 -53 -17 -109 -21
-145 -3 -19 -7 -46 -10 -60 -3 -14 -8 -45 -10 -70 -3 -25 -8 -52 -10 -60 -2
-8 -7 -35 -10 -60 -3 -25 -8 -58 -11 -75 -10 -65 -13 -82 -19 -125 -3 -25 -8
-52 -10 -60 -3 -8 -7 -35 -10 -60 -3 -25 -7 -56 -10 -70 -2 -14 -7 -43 -10
-65 -3 -22 -10 -65 -15 -95 -5 -30 -12 -73 -15 -95 -3 -23 -7 -50 -9 -60 -2
-11 -7 -40 -10 -65 -3 -25 -8 -56 -11 -70 -3 -14 -7 -43 -10 -65 -3 -22 -7
-51 -10 -65 -3 -14 -7 -43 -10 -65 -3 -22 -7 -51 -10 -65 -5 -26 -15 -88 -30
-194 -6 -47 -14 -92 -20 -126 -3 -14 -7 -38 -9 -55 -26 -168 -26 -177 -1 -181
11 -2 40 -6 65 -9 25 -3 52 -8 60 -10 8 -2 38 -7 65 -10 28 -4 59 -8 70 -10
110 -17 103 -18 109 12 6 29 11 60 21 128 3 23 7 50 9 61 2 12 7 45 11 75 4
30 8 56 10 59 2 3 6 29 10 59 4 30 9 63 11 75 2 12 7 41 10 66 3 25 8 54 10
65 2 11 7 40 10 65 3 25 8 54 10 65 2 11 7 40 10 65 3 25 8 54 10 65 2 11 7
38 10 60 3 22 8 55 12 73 l7 33 172 -138 172 -138 -5 -49 c-3 -27 -8 -58 -10
-70 -2 -11 -6 -38 -9 -61 -7 -44 -13 -84 -21 -130 -3 -16 -7 -41 -9 -55 -2
-14 -6 -45 -10 -70 -4 -25 -9 -56 -11 -70 -1 -14 -5 -38 -8 -55 -2 -16 -7 -48
-11 -70 -3 -22 -8 -51 -11 -65 -2 -14 -7 -45 -10 -70 -3 -25 -8 -48 -11 -52
-2 -5 -1 -9 4 -9 4 -1 17 -3 28 -4 11 -2 36 -6 55 -9 19 -4 46 -9 60 -11 14
-2 44 -6 68 -10 23 -4 52 -8 65 -10 12 -1 43 -6 68 -9 34 -6 46 -4 47 6 0 7 3
27 6 43 3 17 8 48 11 69 3 22 7 51 10 65 2 14 6 44 10 66 3 23 7 52 10 65 3
13 7 42 10 65 6 41 11 74 20 123 2 15 7 47 11 72 6 48 9 68 17 115 11 63 20
121 23 150 2 17 6 41 9 55 3 14 8 45 10 70 3 25 8 52 10 60 2 8 7 35 10 60 2
25 7 56 10 70 2 13 7 40 10 60 3 20 7 45 9 55 2 11 7 43 10 70 8 57 16 108 22
138 2 12 6 39 9 62 3 22 10 65 15 95 8 49 17 106 25 165 2 11 6 34 8 50 3 17
11 66 17 110 7 44 14 89 16 100 2 11 7 40 10 65 3 25 8 54 10 65 2 11 7 40 10
65 3 25 8 53 10 63 1 9 -3 17 -9 18 -7 0 -21 2 -32 4 -11 2 -40 7 -65 11 -59
8 -76 11 -190 29 -98 16 -96 16 -97 -2 0 -19 -10 -84 -18 -137 -3 -17 -8 -43
-10 -57 -3 -15 -7 -44 -10 -65 -3 -22 -7 -50 -10 -64 -2 -13 -7 -42 -10 -65
-3 -22 -10 -65 -15 -95 -5 -30 -12 -73 -15 -95 -3 -23 -8 -52 -10 -65 -3 -14
-8 -45 -11 -70 -5 -43 -9 -72 -18 -115 -6 -33 -16 -98 -21 -139 -7 -57 -15
-100 -20 -104 -2 -2 -81 54 -175 124 l-172 129 6 50 c3 27 8 61 11 74 2 12 7
42 9 65 3 22 7 50 10 61 2 11 7 43 10 70 4 28 9 57 11 65 2 8 7 38 11 65 17
126 26 188 30 210 2 10 6 35 9 55 3 20 8 47 10 60 3 14 8 46 11 71 l6 47 -69
11 c-37 7 -79 14 -93 16 -14 2 -43 6 -65 10 -22 3 -55 8 -74 11 -19 2 -47 7
-63 9 -22 4 -28 1 -29 -12z"/>
<path d="M13706 26253 c-1 -2 -20 -5 -42 -8 -21 -3 -50 -7 -64 -10 -13 -2 -40
-7 -60 -10 -20 -3 -47 -8 -60 -10 -14 -3 -38 -7 -55 -9 -16 -3 -46 -7 -65 -11
-19 -3 -48 -8 -65 -11 -16 -3 -43 -7 -60 -10 -36 -7 -57 -10 -110 -18 -22 -3
-51 -8 -65 -11 -14 -3 -41 -7 -60 -10 -19 -3 -46 -7 -60 -10 -13 -2 -40 -7
-60 -10 -35 -5 -59 -10 -110 -20 -41 -8 -169 -29 -185 -30 -5 0 -9 -9 -8 -20
7 -57 19 -140 28 -185 10 -47 13 -65 19 -110 3 -25 8 -56 11 -70 8 -37 14 -70
20 -114 4 -21 9 -48 11 -60 2 -11 6 -37 9 -56 3 -19 7 -46 10 -60 2 -13 7 -40
10 -60 3 -20 8 -47 10 -60 3 -14 7 -41 10 -60 3 -19 7 -46 10 -60 3 -14 7 -38
9 -55 3 -16 7 -45 10 -62 3 -18 8 -48 11 -65 3 -18 8 -40 10 -48 2 -8 6 -35 9
-60 3 -25 8 -56 11 -70 3 -14 7 -38 10 -55 2 -16 7 -41 9 -55 5 -26 43 -252
52 -305 2 -16 6 -41 9 -55 3 -14 7 -40 10 -57 3 -18 7 -48 10 -65 3 -18 7 -44
10 -58 3 -14 7 -38 9 -55 3 -16 8 -45 11 -62 3 -18 7 -48 10 -65 14 -85 35
-206 40 -228 2 -8 4 -18 4 -22 1 -4 11 -5 23 -3 12 3 38 7 58 10 20 3 47 7 60
10 13 3 40 7 60 10 20 3 47 7 60 10 13 3 42 7 65 11 22 3 47 8 55 9 8 2 21 4
29 4 13 1 11 47 -4 121 -3 14 -7 41 -10 60 -3 19 -7 46 -10 60 -2 13 -7 40
-10 60 -3 20 -7 47 -10 60 -3 13 -7 40 -10 60 -3 20 -8 47 -10 60 -3 14 -7 41
-10 60 -3 19 -7 46 -10 60 -3 14 -7 39 -10 55 -2 17 -6 39 -9 50 -2 11 -7 42
-10 69 -4 27 -9 52 -10 55 -2 3 -7 26 -10 51 -3 25 -8 54 -10 65 -2 11 -7 40
-11 65 -4 25 -9 55 -11 68 -3 12 -3 22 -2 22 2 0 35 -9 73 -21 39 -11 77 -22
85 -24 8 -2 53 -16 100 -30 47 -15 91 -28 99 -29 8 -1 16 -11 17 -22 4 -29 17
-108 20 -119 2 -10 8 -46 20 -121 5 -35 8 -47 18 -104 5 -22 11 -62 20 -125 8
-49 17 -103 21 -125 7 -36 13 -70 20 -115 3 -23 8 -52 10 -65 3 -14 7 -38 10
-55 8 -51 10 -60 19 -73 4 -7 15 -11 24 -8 17 5 68 15 107 21 73 10 112 17
125 20 8 3 33 7 55 10 22 3 49 7 60 9 11 3 26 5 34 5 14 1 12 42 -8 148 -6 29
-13 74 -17 100 -3 26 -8 51 -10 54 -1 3 -6 28 -10 55 -3 27 -8 58 -10 69 -2
10 -6 35 -9 55 -3 20 -8 47 -11 60 -2 14 -7 41 -9 60 -3 19 -7 46 -10 60 -2
14 -7 41 -10 60 -3 19 -8 42 -10 50 -2 8 -7 33 -10 55 -3 23 -8 52 -10 65 -3
14 -7 39 -10 55 -6 43 -16 104 -21 129 -2 11 -7 41 -10 66 -6 47 -13 60 -35
64 -32 6 -169 51 -169 56 0 3 36 41 80 84 51 51 78 86 75 95 -2 9 -7 32 -10
51 -3 19 -8 49 -11 65 -5 28 -11 65 -18 110 -2 11 -6 34 -9 50 -4 17 -9 46
-12 65 -3 19 -7 46 -10 60 -3 14 -7 41 -10 60 -3 19 -8 46 -10 60 -2 14 -7 41
-10 60 -3 19 -10 60 -15 90 -5 30 -12 69 -14 85 -27 169 -26 165 -58 163 -16
-1 -30 -4 -32 -5z m-289 -492 c-1 -5 10 -77 18 -121 4 -21 14 -81 21 -130 3
-19 7 -42 9 -50 2 -8 7 -33 10 -55 3 -23 7 -50 9 -60 17 -89 17 -103 4 -101
-24 5 -163 47 -200 61 -21 8 -38 12 -38 9 0 -4 -6 -2 -12 3 -7 6 -34 16 -60
23 -27 7 -48 15 -49 19 -1 10 -9 52 -20 111 -5 30 -12 66 -14 80 -2 14 -6 39
-9 55 -17 97 -17 105 -2 106 9 1 19 2 24 3 4 1 29 5 55 10 27 4 57 9 67 11 9
2 35 6 56 10 69 10 98 16 101 19 6 5 32 3 30 -3z"/>
<path d="M17955 25958 c-2 -7 -18 -58 -36 -113 -17 -55 -43 -134 -56 -175 -14
-41 -26 -79 -28 -85 -1 -5 -5 -17 -8 -25 -3 -8 -47 -143 -97 -300 -51 -157
-101 -312 -112 -345 -11 -33 -21 -64 -23 -70 -1 -5 -5 -17 -8 -25 -7 -18 -78
-241 -82 -255 -1 -5 -5 -17 -8 -25 -3 -8 -22 -64 -41 -125 -47 -150 -50 -159
-52 -167 -1 -5 -3 -10 -4 -13 -1 -3 -3 -8 -4 -12 -1 -5 -4 -12 -7 -18 -5 -8
-14 -36 -24 -75 0 -3 -23 -72 -50 -155 -27 -82 -50 -152 -50 -155 0 -3 -4 -11
-8 -17 -5 -7 -6 -13 -3 -13 2 0 -4 -22 -13 -49 l-18 -48 31 -11 c71 -24 292
-94 306 -97 8 -2 28 -8 43 -14 16 -6 30 -11 32 -11 3 0 93 269 100 300 2 8 19
61 39 118 19 56 32 102 29 102 -3 0 -1 6 4 13 6 6 14 26 18 42 13 47 13 48 26
85 14 41 22 63 24 70 1 3 14 45 29 93 l29 88 26 -23 c14 -13 77 -73 140 -134
l114 -112 -17 -43 c-10 -24 -17 -44 -16 -44 1 0 -1 -7 -4 -15 -8 -27 -100
-315 -101 -320 -1 -3 -4 -12 -7 -20 -19 -54 -59 -178 -62 -196 -2 -11 -11 -37
-20 -58 -9 -21 -16 -42 -16 -47 0 -7 281 -103 332 -114 9 -2 26 -9 38 -15 12
-6 27 -9 34 -7 9 4 60 138 71 187 1 3 16 50 34 105 18 55 34 107 37 115 2 8
11 35 20 60 9 25 17 52 19 60 2 8 16 53 32 100 17 47 30 87 31 90 0 3 3 12 6
20 3 8 24 74 47 145 59 189 147 459 175 542 14 40 27 80 28 90 2 10 26 86 54
168 70 211 124 378 127 390 1 6 5 19 9 30 31 80 35 95 31 95 -2 0 3 16 11 35
11 28 12 36 2 40 -55 19 -266 87 -278 90 -8 2 -57 17 -109 35 -52 18 -99 33
-105 35 -6 1 -20 5 -31 9 -71 27 -91 34 -98 34 -4 0 -114 35 -245 77 -130 43
-241 78 -247 79 -5 1 -16 5 -23 9 -7 5 -14 3 -17 -5z m500 -604 c60 -19 110
-36 112 -38 3 -3 -11 -48 -93 -301 -26 -77 -47 -144 -49 -150 -1 -5 -5 -17 -8
-25 -3 -8 -18 -55 -33 -105 -15 -49 -30 -93 -33 -97 -4 -4 -68 52 -144 125
l-138 132 32 95 c17 52 32 100 34 105 1 6 5 19 9 30 9 23 12 31 62 186 l37
116 51 -20 c28 -10 100 -34 161 -53z"/>
<path d="M11837 25875 c-65 -23 -120 -42 -123 -43 -3 0 -17 -4 -32 -10 -35
-13 -66 -23 -72 -24 -4 0 -31 -9 -95 -34 -11 -4 -24 -8 -30 -10 -19 -5 -280
-94 -295 -101 -8 -3 -17 -7 -20 -7 -27 -7 -327 -110 -333 -116 -4 -3 8 -54 27
-111 63 -187 157 -464 163 -479 3 -8 7 -17 8 -20 6 -24 18 -59 25 -75 5 -11
43 -121 84 -245 144 -428 252 -746 259 -756 3 -6 8 -21 11 -35 3 -19 81 -252
103 -309 4 -8 7 -18 8 -22 2 -5 3 -9 5 -10 1 -2 3 -10 5 -18 4 -18 57 -174 61
-178 2 -3 175 49 214 65 8 3 20 7 25 9 81 24 165 59 165 68 0 12 -102 320
-120 361 -11 27 -180 530 -180 538 0 3 10 4 22 2 12 -3 44 -7 72 -10 28 -3 65
-7 81 -10 17 -2 57 -7 90 -11 33 -4 67 -8 75 -10 8 -1 22 -3 31 -3 11 -1 26
-31 49 -103 18 -57 36 -107 39 -113 3 -5 6 -14 7 -20 3 -10 131 -389 141 -415
4 -8 7 -17 8 -20 11 -43 29 -80 39 -77 6 2 94 32 196 67 102 34 189 65 193 69
4 4 -4 41 -19 82 -25 71 -35 101 -35 106 0 1 -9 26 -20 55 -11 29 -21 58 -23
63 -1 6 -15 48 -31 95 -16 47 -30 88 -31 93 -1 4 -2 8 -3 10 -3 4 -71 201 -75
217 -6 21 -120 356 -140 410 -9 25 -18 52 -20 60 -2 8 -16 49 -30 90 -15 41
-66 190 -113 330 -48 140 -116 343 -153 450 -43 128 -71 195 -80 196 -8 1 -68
-17 -133 -41z m-64 -681 c32 -93 60 -176 62 -184 2 -8 27 -82 55 -163 45 -136
53 -176 30 -162 -4 3 -32 7 -62 10 -30 3 -66 8 -79 10 -13 3 -44 8 -69 11 -25
3 -54 7 -65 9 -11 2 -31 4 -45 4 -14 1 -31 5 -38 9 -7 5 -33 69 -57 143 -25
74 -48 141 -52 149 -3 8 -7 20 -9 25 -1 6 -16 52 -33 104 -17 52 -29 97 -25
100 9 10 308 110 319 107 5 -1 36 -79 68 -172z"/>
<path d="M19590 25122 c-63 -125 -118 -229 -121 -232 -3 -3 -31 -56 -63 -118
-31 -63 -85 -168 -120 -235 -35 -67 -110 -212 -166 -322 -57 -110 -135 -263
-175 -340 -40 -77 -121 -234 -180 -350 -59 -115 -119 -230 -132 -254 -13 -24
-21 -47 -16 -51 4 -5 85 -47 178 -95 94 -48 229 -118 300 -155 72 -37 229
-118 350 -180 121 -62 225 -117 232 -122 8 -7 20 6 39 44 29 57 158 308 262
508 35 69 105 204 154 300 50 96 125 243 168 325 133 258 234 453 340 660 57
110 113 219 126 242 22 39 22 43 6 52 -253 132 -372 190 -375 184 -6 -10 -188
-362 -402 -778 -48 -93 -122 -237 -165 -320 -43 -82 -121 -235 -175 -340 -106
-208 -154 -295 -161 -295 -7 0 -278 142 -291 152 -10 8 -9 16 5 37 10 14 47
82 82 151 35 69 89 175 120 235 32 61 103 200 160 310 56 110 137 268 180 350
43 83 119 231 170 330 51 99 110 213 132 253 21 40 37 76 34 81 -3 5 -20 14
-38 22 -18 7 -35 16 -38 19 -3 4 -73 41 -155 82 l-151 76 -114 -226z"/>
<path d="M10204 25259 c-21 -12 -77 -42 -124 -67 -47 -25 -115 -61 -152 -81
-43 -22 -64 -39 -59 -45 5 -6 35 -63 69 -126 33 -63 71 -135 84 -160 38 -69
134 -251 165 -311 16 -30 30 -56 33 -59 3 -3 12 -19 21 -35 14 -27 14 -36 1
-73 -7 -23 -18 -40 -23 -36 -5 3 -17 7 -26 9 -10 2 -56 16 -103 30 -47 14 -92
28 -100 30 -8 2 -28 8 -43 14 -15 6 -42 13 -59 16 -17 3 -35 8 -39 11 -7 4
-49 80 -144 259 -18 33 -47 87 -64 119 -18 32 -44 80 -57 107 -20 37 -29 46
-42 41 -21 -9 -137 -70 -212 -111 -30 -17 -79 -43 -108 -57 -35 -18 -49 -30
-44 -38 5 -6 37 -64 71 -128 34 -65 72 -137 85 -160 13 -24 47 -88 76 -143 29
-55 73 -135 97 -179 23 -43 43 -80 43 -82 0 -2 22 -43 48 -91 53 -96 157 -290
181 -338 8 -16 17 -32 20 -35 3 -3 17 -27 31 -55 13 -27 45 -88 70 -135 26
-47 77 -143 115 -215 37 -71 71 -134 75 -140 4 -5 33 -59 65 -120 108 -205
147 -275 153 -275 4 0 63 31 132 68 69 37 151 81 182 97 32 17 58 34 58 38 0
8 -61 123 -288 547 -19 36 -47 88 -62 115 -15 28 -49 91 -75 140 -26 50 -63
118 -81 152 -19 34 -34 66 -34 72 0 5 18 3 39 -5 22 -7 51 -15 65 -18 14 -3
30 -7 36 -11 5 -3 18 -8 27 -10 30 -7 286 -86 294 -91 5 -2 22 -32 39 -66 18
-35 50 -96 72 -138 65 -121 119 -221 148 -275 15 -27 51 -95 80 -150 29 -55
54 -101 55 -103 2 -2 9 3 16 10 8 7 41 27 74 43 153 77 285 150 285 158 0 5
-19 44 -41 86 -81 148 -107 197 -159 296 -29 55 -65 123 -80 150 -15 28 -51
95 -81 150 -114 215 -101 198 -168 222 -34 11 -65 22 -69 22 -4 1 -33 9 -65
18 -55 15 -58 17 -52 42 4 14 8 33 10 41 2 8 15 51 29 95 28 86 31 106 17 120
-4 6 -32 55 -61 110 -101 191 -144 272 -230 430 -15 28 -56 104 -90 170 -89
170 -79 158 -126 134z"/>
<path d="M5290 24898 c-24 -16 -47 -48 -72 -98 -21 -41 -35 -76 -33 -79 3 -2
0 -10 -6 -18 -6 -7 -9 -13 -6 -13 4 0 0 -18 -8 -40 -8 -22 -14 -43 -14 -45 1
-3 -2 -22 -5 -43 -38 -226 -43 -574 -11 -733 3 -13 8 -37 11 -54 3 -16 10 -50
15 -75 6 -25 12 -53 14 -63 2 -10 7 -27 10 -37 3 -10 7 -27 9 -37 15 -74 74
-255 121 -369 44 -107 136 -274 187 -339 59 -77 179 -227 199 -250 21 -24 243
-276 284 -322 49 -55 260 -263 267 -263 5 0 7 4 4 8 -3 5 -7 28 -10 53 -3 24
-8 55 -11 69 -2 14 -6 45 -9 70 -3 25 -8 65 -11 90 -21 156 -29 289 -29 475 0
88 4 207 9 265 15 190 11 275 -20 425 -14 70 -63 202 -138 370 -43 99 -104
239 -134 310 -86 207 -102 243 -169 372 -101 199 -202 331 -284 372 -54 27
-119 27 -160 -1z"/>
<path d="M24546 24904 c-28 -16 -79 -59 -117 -98 -38 -40 -114 -163 -181 -292
-38 -74 -66 -134 -63 -134 3 0 -1 -10 -9 -22 -14 -22 -96 -212 -101 -233 -3
-14 -21 -57 -49 -118 -13 -29 -37 -81 -54 -117 -170 -371 -202 -524 -177 -840
10 -127 11 -413 2 -530 -11 -131 -17 -192 -23 -230 -7 -50 -14 -100 -19 -135
-6 -49 -16 -109 -20 -122 -10 -30 19 -5 137 115 240 244 538 590 640 744 97
146 171 300 228 476 32 99 55 184 75 273 2 11 6 28 9 37 3 9 8 31 11 47 6 35
13 70 20 105 27 123 27 471 1 650 -36 249 -83 372 -161 420 -39 24 -108 26
-149 4z"/>
<path d="M21190 24255 c-80 -107 -153 -205 -164 -218 -10 -12 -26 -33 -35 -47
-9 -14 -23 -34 -33 -45 -9 -11 -102 -135 -207 -275 -105 -140 -199 -266 -210
-280 -11 -14 -118 -158 -240 -320 -121 -162 -224 -299 -229 -305 -4 -5 -19
-26 -32 -45 -14 -19 -27 -37 -30 -40 -15 -14 -100 -131 -100 -138 1 -8 960
-727 971 -727 4 0 87 106 184 235 97 129 181 237 186 238 5 2 17 -14 26 -37 9
-23 19 -41 22 -41 14 1 279 368 272 376 -5 5 -33 56 -63 114 -31 58 -74 141
-98 185 -23 44 -67 127 -98 185 -30 58 -67 128 -82 155 -15 28 -35 65 -44 83
l-17 33 -111 -147 c-61 -81 -121 -162 -133 -180 l-22 -33 64 -125 64 -126
-117 -155 c-72 -96 -122 -154 -130 -151 -22 9 -263 191 -264 199 0 9 52 88 73
109 7 7 24 29 37 48 13 19 30 41 37 48 7 7 13 17 13 21 0 4 8 16 18 27 10 10
112 145 227 299 115 154 215 286 222 293 7 7 13 17 13 21 0 4 8 16 18 27 9 10
58 73 107 139 50 66 93 125 98 130 4 6 16 22 28 37 l20 28 57 -42 c31 -23 59
-44 62 -48 3 -3 35 -27 71 -53 37 -26 71 -53 77 -60 8 -9 -3 -31 -44 -84 -30
-40 -54 -76 -54 -82 0 -5 33 -33 73 -62 39 -30 78 -59 85 -66 7 -7 17 -13 20
-13 4 0 18 -10 32 -23 33 -29 131 -99 134 -95 71 89 366 490 366 497 0 5 -12
18 -27 30 -137 105 -938 701 -942 701 -3 0 -71 -88 -151 -195z"/>
<path d="M8160 23985 c-261 -201 -475 -371 -474 -378 1 -7 102 -143 224 -302
123 -160 260 -337 304 -395 132 -172 159 -205 166 -203 4 1 20 5 36 8 28 6 47
10 89 19 11 3 35 9 53 15 17 5 32 8 32 6 0 -2 18 2 40 10 22 8 40 12 40 10 0
-3 12 0 26 6 15 5 43 12 63 15 20 3 45 8 56 12 11 3 22 7 25 7 41 9 127 29
135 31 6 2 23 6 39 9 16 3 33 8 36 10 4 2 20 7 36 9 16 3 38 8 49 10 86 19 81
20 111 -21 16 -21 74 -96 130 -168 55 -71 104 -135 107 -142 5 -7 -42 -49
-124 -113 -131 -102 -159 -120 -159 -104 0 5 -10 21 -23 36 -12 14 -62 78
-111 142 -49 64 -92 116 -96 116 -4 0 -35 -21 -68 -47 -78 -62 -252 -196 -264
-204 -9 -6 132 -194 418 -562 l76 -98 37 28 c32 24 234 179 478 367 50 39 172
134 272 210 118 91 178 143 172 150 -36 48 -326 425 -366 477 -355 464 -328
431 -360 425 -16 -3 -39 -7 -50 -10 -11 -2 -42 -10 -70 -16 -27 -6 -57 -13
-65 -15 -8 -2 -46 -11 -85 -20 -38 -9 -81 -19 -95 -21 -14 -3 -33 -7 -42 -10
-10 -3 -28 -7 -40 -9 -20 -4 -184 -43 -258 -62 -118 -29 -102 -39 -248 151
l-130 169 141 108 140 108 45 -57 c24 -31 78 -101 119 -155 l75 -97 43 32
c247 187 294 224 294 231 1 7 -107 151 -249 333 -30 39 -97 126 -148 192 -52
67 -97 122 -101 122 -4 0 -220 -164 -481 -365z"/>
<path d="M14909 23518 c0 -29 -3 -108 -5 -175 l-4 -123 52 -1 c29 -1 85 -2
123 -3 l70 -1 -1 -75 c-1 -41 -4 -160 -8 -265 -3 -104 -9 -255 -11 -335 -3
-80 -7 -203 -10 -275 -2 -71 -7 -222 -10 -335 -3 -113 -8 -219 -10 -236 -2
-16 -1 -35 3 -41 5 -7 70 -13 180 -16 l172 -6 1 32 c1 18 3 68 4 112 1 44 6
181 10 305 4 124 9 259 10 300 1 41 6 176 10 300 10 283 12 357 14 448 l1 73
125 -4 125 -4 1 36 c0 20 3 99 5 176 l5 140 -58 1 c-32 0 -146 4 -253 7 -107
4 -273 10 -367 13 l-173 6 -1 -54z"/>
<path d="M14397 23554 c-1 -1 -27 -5 -57 -9 -30 -3 -65 -8 -78 -10 -45 -6
-147 -18 -160 -18 -10 0 -12 -11 -8 -41 3 -23 8 -61 11 -86 3 -25 8 -56 10
-70 4 -26 13 -90 20 -152 18 -141 24 -186 30 -218 2 -13 7 -46 10 -74 3 -28 7
-67 10 -86 2 -19 7 -55 10 -80 11 -88 23 -182 32 -235 3 -22 7 -51 8 -65 2
-14 5 -43 9 -65 3 -22 8 -62 11 -90 7 -67 16 -136 21 -160 2 -11 7 -47 10 -80
l6 -61 -40 -2 c-22 -2 -48 -4 -59 -6 -18 -4 -99 -15 -149 -21 -11 -1 -21 3
-21 9 0 6 -3 30 -7 52 -4 23 -9 64 -12 90 -2 27 -7 60 -9 74 -2 14 -7 50 -10
80 -3 30 -8 62 -10 70 -2 8 -7 44 -10 80 -4 36 -9 74 -11 85 -2 11 -6 43 -9
70 -3 28 -8 61 -10 75 -2 14 -7 48 -10 76 -3 28 -8 61 -10 74 -2 13 -7 46 -10
74 -3 28 -8 65 -10 81 -6 37 -13 95 -20 155 -6 47 -11 86 -20 143 -3 19 -7 49
-9 68 -6 58 -18 152 -21 168 -2 9 -4 19 -4 23 -1 4 -9 5 -18 4 -10 -2 -43 -7
-73 -10 -30 -4 -66 -8 -80 -10 -44 -8 -124 -18 -150 -20 -21 -2 -25 -7 -24
-32 1 -28 11 -110 19 -164 3 -14 7 -47 10 -75 3 -27 8 -61 10 -75 2 -14 7 -49
10 -79 4 -30 8 -61 10 -70 1 -9 6 -45 10 -81 4 -36 9 -72 10 -81 2 -9 6 -40
10 -70 4 -30 8 -63 10 -74 1 -11 6 -47 10 -80 3 -33 9 -71 11 -85 2 -14 6 -45
9 -70 3 -25 8 -58 10 -75 2 -16 7 -52 10 -80 4 -27 8 -61 11 -75 2 -14 6 -50
9 -80 3 -30 8 -62 10 -70 4 -13 7 -40 20 -150 3 -24 11 -91 20 -155 13 -97 16
-122 20 -140 2 -11 4 -27 4 -36 1 -14 8 -15 44 -9 39 8 116 18 177 25 38 4
121 15 160 21 35 5 93 12 140 19 14 1 50 6 80 9 30 4 66 9 80 11 14 2 45 6 70
9 66 8 122 16 145 20 11 3 33 5 48 5 28 1 28 1 22 53 -4 28 -8 58 -10 67 -1 9
-6 43 -9 76 -4 33 -9 74 -12 90 -3 17 -7 44 -9 60 -3 28 -8 72 -21 166 -2 20
-7 53 -9 73 -3 20 -7 53 -10 74 -3 20 -8 57 -11 82 -2 25 -7 57 -9 71 -6 31
-14 97 -20 153 -3 21 -7 55 -9 75 -3 20 -8 56 -11 81 -11 89 -16 125 -20 150
-6 38 -14 100 -20 147 -3 24 -8 62 -11 85 -11 83 -13 93 -18 136 -3 23 -8 59
-10 80 -4 32 -9 66 -21 157 -1 11 -3 23 -4 27 -1 6 -38 7 -44 2z"/>
<path d="M16163 23468 c0 -7 -4 -33 -8 -58 -4 -25 -9 -55 -10 -67 -2 -13 -6
-42 -10 -65 -4 -24 -8 -55 -11 -70 -2 -16 -6 -40 -8 -55 -5 -28 -16 -99 -21
-138 -2 -11 -6 -40 -9 -65 -3 -25 -8 -56 -11 -70 -7 -38 -14 -80 -20 -129 -3
-23 -7 -55 -9 -70 -7 -39 -18 -113 -21 -138 -3 -22 -12 -77 -21 -138 -3 -16
-7 -43 -9 -60 -4 -29 -12 -81 -21 -140 -3 -16 -7 -46 -10 -65 -2 -19 -6 -46
-9 -60 -3 -14 -8 -45 -11 -70 -3 -25 -7 -54 -9 -65 -2 -11 -6 -40 -10 -65 -3
-25 -8 -56 -10 -70 -7 -46 -13 -85 -20 -130 -4 -25 -9 -52 -11 -61 -4 -13 5
-18 39 -23 24 -4 55 -9 68 -11 24 -5 71 -11 143 -21 22 -3 43 -7 46 -9 15 -9
29 14 34 60 3 28 8 59 10 71 2 12 7 45 11 74 4 29 9 62 11 74 2 11 6 38 9 61
4 22 8 52 11 66 2 15 6 44 9 65 3 22 7 48 9 60 2 12 7 45 11 74 4 29 9 62 11
74 2 11 6 38 9 61 4 22 8 52 10 66 3 14 7 41 9 60 3 19 7 48 10 64 5 30 15 98
21 145 2 14 6 39 9 55 8 50 16 108 20 140 3 17 7 44 10 60 5 29 15 95 21 145
2 14 6 39 9 55 3 17 8 49 11 72 8 61 14 99 19 131 2 15 7 50 11 77 4 28 8 54
9 60 0 5 -3 10 -9 10 -5 1 -35 5 -65 10 -30 5 -64 10 -75 11 -11 1 -36 5 -55
8 -95 16 -117 16 -117 4z"/>
<path d="M3522 23386 c-208 -78 -269 -221 -196 -454 34 -110 376 -789 501
-996 97 -160 148 -215 278 -301 83 -54 97 -62 305 -166 206 -103 290 -156 414
-263 61 -53 193 -164 221 -185 19 -16 19 -15 4 9 -9 14 -84 140 -168 280 -83
140 -156 262 -161 270 -6 8 -13 22 -16 30 -3 8 -10 24 -17 35 -52 95 -160 319
-214 445 -8 19 -21 50 -29 68 -8 18 -28 70 -45 115 -17 45 -37 100 -46 122 -8
22 -17 49 -19 60 -2 11 -6 31 -9 45 -12 54 -14 71 -20 161 -21 298 -52 389
-179 515 -63 63 -176 143 -209 148 -7 1 -17 4 -22 8 -16 10 -125 45 -165 54
-19 4 -42 9 -50 11 -59 13 -100 11 -158 -11z"/>
<path d="M26254 23385 c-150 -38 -291 -109 -376 -190 -66 -61 -138 -178 -154
-248 -22 -91 -28 -136 -38 -287 -3 -36 -7 -83 -10 -105 -5 -37 -8 -50 -20
-102 -8 -34 -95 -259 -144 -373 -61 -142 -155 -336 -229 -472 -46 -86 -284
-487 -341 -577 -16 -25 -16 -26 3 -11 30 22 219 182 230 194 20 22 131 104
195 143 36 22 152 83 258 137 359 181 426 241 587 531 107 193 437 846 431
853 -3 3 -2 10 3 16 5 6 15 31 22 56 7 25 14 52 17 60 2 8 4 50 4 92 1 91 -21
142 -85 202 -54 49 -154 96 -216 100 -28 2 -86 -6 -137 -19z"/>
<path d="M16914 23352 c-3 -15 -10 -41 -15 -58 -5 -17 -11 -40 -14 -50 -2 -10
-12 -48 -23 -84 -11 -36 -22 -74 -25 -85 -3 -11 -15 -54 -27 -95 -12 -41 -23
-83 -25 -93 -2 -9 -6 -21 -9 -25 -3 -5 -8 -22 -11 -38 -8 -39 -13 -59 -15 -59
-1 0 -3 -7 -5 -15 -2 -8 -11 -40 -20 -70 -9 -30 -18 -62 -20 -70 -2 -8 -11
-37 -19 -65 -22 -75 -76 -268 -80 -285 -2 -8 -24 -85 -49 -170 -24 -85 -47
-164 -50 -175 -3 -11 -28 -100 -56 -198 -28 -98 -49 -182 -46 -187 2 -4 15
-10 27 -13 13 -3 57 -15 98 -27 41 -12 80 -23 85 -24 6 -1 37 -10 70 -20 33
-10 67 -20 75 -22 8 -2 40 -10 70 -19 30 -9 63 -18 74 -20 10 -2 48 -13 85
-24 77 -24 182 -54 196 -57 6 -1 35 -9 65 -18 102 -32 91 -40 128 97 19 67 35
127 36 132 1 6 10 37 20 70 10 33 20 67 21 75 2 8 25 87 50 175 26 88 49 167
51 175 2 8 10 40 19 70 9 30 18 66 21 79 3 13 9 32 15 43 5 10 8 18 5 18 -3 0
2 16 10 35 8 19 12 35 9 35 -3 0 -1 8 4 18 6 11 12 30 15 43 3 13 12 49 21 79
9 30 18 62 20 70 2 8 31 112 65 230 34 118 63 222 65 230 2 8 13 45 24 82 l19
67 -29 10 c-16 5 -29 8 -29 6 0 -2 -30 7 -67 19 -38 13 -70 23 -73 23 -3 0
-32 8 -65 18 -33 9 -71 19 -84 22 -13 2 -32 8 -43 14 -10 5 -18 7 -18 4 0 -3
-8 -1 -18 4 -11 6 -30 12 -43 15 -13 2 -73 19 -134 36 -60 18 -114 33 -120 34
-5 2 -41 12 -80 24 -149 44 -144 44 -151 14z m399 -453 c130 -36 119 -20 85
-129 -8 -25 -15 -48 -16 -53 0 -4 -8 -33 -17 -65 -10 -31 -18 -64 -20 -72 -2
-8 -15 -55 -30 -105 -15 -49 -29 -101 -31 -114 -3 -14 -7 -28 -10 -33 -3 -4
-7 -16 -9 -25 -2 -10 -31 -115 -65 -233 -34 -118 -63 -219 -64 -225 -9 -40
-40 -132 -46 -139 -5 -4 -25 -3 -45 4 -20 7 -42 13 -48 14 -7 2 -19 6 -27 9
-17 6 -64 18 -95 24 -32 6 -35 16 -19 68 8 27 16 59 19 70 2 11 16 61 30 110
15 50 40 137 56 195 17 58 34 120 40 138 9 33 27 96 33 122 3 8 29 102 60 208
31 107 61 212 66 234 7 26 16 38 24 35 7 -3 65 -20 129 -38z"/>
<path d="M4567 23154 c-1 -2 -15 -5 -31 -8 -16 -3 -40 -15 -53 -28 -59 -55
-63 -127 -17 -318 50 -206 135 -451 219 -635 12 -27 24 -54 25 -60 6 -23 193
-379 252 -480 124 -211 338 -537 450 -687 7 -9 38 -51 68 -93 183 -257 417
-538 535 -642 89 -80 135 -108 317 -198 81 -41 176 -91 210 -111 83 -51 190
-120 206 -134 23 -20 13 9 -29 87 -55 102 -142 276 -169 338 -11 28 -26 61
-32 75 -50 116 -81 206 -292 840 -49 146 -94 279 -101 295 -8 17 -26 62 -40
100 -33 86 -185 399 -197 403 -4 2 -8 7 -8 12 0 21 -162 270 -272 418 -138
186 -373 438 -518 554 -131 105 -323 225 -402 249 -38 13 -116 27 -121 23z"/>
<path d="M6452 23140 c-63 -28 -75 -62 -68 -184 7 -113 14 -192 21 -251 2 -22
7 -62 10 -90 3 -27 7 -61 10 -75 3 -14 7 -43 10 -65 3 -22 7 -51 10 -65 3 -14
8 -41 11 -60 11 -66 76 -325 86 -343 5 -10 11 -27 13 -37 8 -41 79 -209 127
-300 54 -102 119 -199 182 -270 88 -100 322 -325 481 -465 44 -39 95 -84 115
-102 75 -67 346 -296 368 -311 57 -38 146 4 155 73 5 35 -7 60 -78 170 -237
364 -516 843 -770 1320 -26 50 -58 108 -70 131 -13 22 -27 49 -32 60 -25 50
-32 63 -65 124 -48 88 -134 254 -258 495 -56 110 -110 208 -119 218 -36 42
-84 51 -139 27z"/>
<path d="M23454 23149 c-16 -5 -39 -19 -51 -31 -11 -13 -69 -117 -128 -233
-152 -296 -311 -601 -365 -700 -15 -27 -47 -86 -70 -130 -58 -107 -95 -176
-141 -258 -22 -38 -39 -73 -39 -78 0 -5 -4 -9 -8 -9 -4 0 -13 -12 -19 -27 -36
-86 -376 -657 -541 -908 -71 -108 -85 -137 -85 -168 1 -68 68 -115 131 -93 33
11 291 227 557 465 275 247 499 482 536 565 7 14 15 26 19 26 7 0 132 235 130
242 -1 2 4 17 10 33 46 118 58 155 53 155 -3 0 -1 6 4 13 9 11 18 40 28 87 2
8 10 40 19 70 8 30 18 71 21 90 3 19 8 42 10 50 2 8 7 29 10 45 2 17 7 41 10
55 3 14 7 41 10 60 3 19 7 46 9 60 5 27 13 91 22 180 10 101 13 134 20 246 5
96 4 115 -11 138 -29 45 -90 68 -141 55z"/>
<path d="M25408 23155 c-1 -1 -23 -6 -48 -9 -25 -3 -77 -22 -117 -40 -69 -33
-235 -138 -297 -188 -16 -13 -47 -38 -70 -56 -58 -48 -242 -228 -301 -297
-169 -195 -320 -404 -447 -620 -58 -99 -167 -308 -168 -320 0 -3 -11 -31 -26
-63 -38 -83 -193 -511 -209 -577 -1 -5 -7 -23 -13 -38 -7 -16 -12 -32 -12 -37
0 -4 -29 -95 -66 -201 -36 -107 -66 -198 -67 -204 -2 -5 -5 -14 -8 -20 -4 -5
-12 -28 -19 -50 -35 -113 -156 -377 -263 -577 -26 -48 -47 -92 -47 -97 0 -6
28 9 63 33 129 88 393 236 421 236 11 0 157 87 196 117 189 143 549 596 906
1138 208 318 361 592 498 897 50 111 159 411 171 468 2 8 10 40 19 71 16 55
22 79 32 129 3 14 7 34 11 45 21 71 8 169 -31 218 -13 16 -99 50 -108 42z"/>
<path d="M12295 23109 c-11 -4 -81 -27 -155 -50 -74 -23 -138 -43 -142 -45 -3
-2 2 -28 12 -56 21 -60 143 -438 146 -453 4 -17 61 -197 84 -265 12 -36 24
-73 25 -83 2 -9 17 -57 33 -105 16 -48 53 -161 81 -252 29 -91 62 -192 73
-225 11 -33 21 -67 23 -75 4 -20 96 -303 102 -313 3 -4 11 -3 19 4 8 6 14 9
14 6 0 -3 26 3 58 14 31 11 62 22 67 23 6 2 24 6 40 11 17 4 36 12 43 18 6 5
12 7 12 4 0 -3 26 3 58 14 31 11 62 22 67 23 58 15 71 20 80 25 6 3 15 6 22 7
6 1 73 22 150 47 76 24 172 55 213 67 41 12 79 26 84 31 8 7 -22 121 -52 199
-3 8 -6 17 -7 20 -3 13 -43 140 -88 275 -27 83 -50 155 -51 160 -15 67 -39
125 -51 126 -8 1 -18 2 -22 3 -5 1 -33 6 -63 10 -30 5 -64 10 -75 12 -11 2
-36 6 -55 9 -19 2 -53 7 -75 10 -22 3 -50 7 -62 9 -13 3 -23 1 -23 -5 0 -5 16
-58 36 -117 19 -59 37 -114 39 -122 1 -9 15 -51 30 -95 15 -44 28 -84 29 -90
12 -48 20 -72 29 -82 5 -7 6 -13 3 -13 -4 0 -3 -8 2 -17 14 -27 23 -73 15 -71
-5 1 -61 -15 -126 -36 -66 -21 -122 -34 -126 -30 -5 5 -32 83 -61 174 -28 91
-64 201 -78 245 -14 44 -27 82 -27 85 -1 3 -18 59 -39 125 -21 66 -45 143 -53
170 -9 28 -21 64 -28 80 -7 17 -16 46 -20 65 -4 19 -10 40 -14 45 -3 6 -6 12
-6 15 -1 6 -2 9 -68 215 -28 88 -51 162 -52 165 -1 3 -7 26 -14 51 -13 46 -21
52 -56 38z"/>
<path d="M18351 22888 c-5 -13 -89 -185 -186 -383 -165 -334 -248 -504 -537
-1094 -60 -122 -108 -224 -106 -226 2 -3 286 -143 311 -153 6 -3 104 192 494
987 63 128 116 231 118 229 2 -2 7 -19 10 -38 5 -31 15 -74 31 -145 3 -11 7
-29 9 -40 3 -11 7 -31 10 -45 4 -14 8 -34 10 -45 3 -11 7 -31 11 -45 20 -88
21 -84 -111 -356 -69 -142 -131 -268 -137 -279 -6 -11 -31 -60 -55 -110 -25
-49 -62 -125 -83 -167 l-39 -77 159 -80 c115 -57 162 -76 169 -67 5 6 63 121
129 256 134 274 303 619 537 1095 87 176 161 329 165 340 7 19 -8 28 -152 99
-88 43 -161 76 -162 74 -2 -1 -40 -78 -84 -170 -45 -93 -83 -168 -85 -168 -2
0 -4 6 -4 13 0 6 -8 48 -18 92 -9 44 -19 91 -21 104 -3 12 -12 53 -21 90 -8
36 -17 82 -20 101 -10 70 -16 76 -160 145 -76 37 -146 72 -156 77 -13 7 -19 4
-26 -14z"/>
<path d="M11415 22766 c-44 -23 -136 -72 -205 -108 -69 -36 -168 -88 -220
-116 -52 -27 -138 -73 -190 -101 -52 -28 -112 -59 -132 -69 -37 -16 -47 -38
-29 -57 4 -6 35 -62 68 -125 33 -63 82 -155 108 -205 26 -49 74 -142 108 -205
33 -63 77 -146 97 -185 20 -38 61 -115 90 -170 29 -55 74 -140 100 -190 26
-49 71 -135 100 -190 29 -55 70 -131 90 -170 21 -38 54 -103 75 -142 36 -71
56 -87 80 -64 6 5 73 41 150 81 77 40 163 85 190 100 28 15 104 55 170 90 66
34 166 87 222 117 l103 54 -51 97 c-116 218 -152 288 -309 587 -35 66 -77 147
-95 180 -32 59 -75 141 -198 375 -33 63 -77 147 -97 185 -20 39 -61 115 -90
170 -29 55 -53 101 -54 102 -1 1 -37 -18 -81 -41z m20 -611 c37 -72 85 -161
105 -200 21 -38 66 -124 100 -190 35 -66 80 -151 100 -190 135 -255 161 -307
158 -316 -2 -6 -54 -37 -116 -69 l-112 -60 -21 43 c-12 23 -34 65 -49 92 -15
28 -55 104 -90 170 -34 66 -82 156 -105 200 -51 96 -99 186 -212 404 -68 130
-83 165 -72 172 8 5 48 27 89 48 41 22 88 46 104 55 28 14 30 14 41 -7 6 -13
42 -81 80 -152z"/>
<path d="M2595 22176 c-104 -38 -150 -126 -172 -331 -12 -111 -7 -293 12 -385
12 -59 17 -90 16 -95 0 -2 6 -23 14 -45 8 -22 12 -40 10 -40 -3 0 0 -12 6 -27
6 -16 12 -35 14 -43 7 -32 48 -146 58 -157 5 -7 7 -13 4 -13 -8 0 67 -171 136
-305 102 -202 249 -432 392 -615 111 -142 191 -189 375 -216 153 -23 313 -91
490 -209 94 -62 252 -181 330 -248 43 -37 123 -101 187 -150 34 -26 68 -53 75
-60 8 -6 21 -16 30 -22 9 -5 55 -38 102 -72 48 -35 90 -63 95 -63 5 0 11 -4
13 -8 4 -9 133 -102 142 -102 3 0 -42 66 -101 148 -220 304 -370 523 -488 717
-27 44 -52 82 -55 85 -3 3 -14 21 -24 40 -10 19 -52 94 -93 165 -95 167 -236
452 -263 532 -26 80 -90 309 -97 348 -3 17 -9 37 -14 46 -4 9 -11 29 -14 45
-10 55 -64 213 -98 288 -58 125 -163 245 -332 380 -107 86 -249 186 -263 186
-6 0 -12 4 -14 8 -3 8 -275 189 -320 213 -30 16 -115 19 -153 5z"/>
<path d="M19496 21868 c-129 -178 -239 -327 -243 -333 -36 -44 -63 -84 -63
-93 0 -5 47 -93 103 -194 57 -100 116 -205 131 -233 16 -27 44 -78 63 -112
l34 -62 -102 -138 c-56 -76 -103 -140 -106 -142 -3 -4 -61 34 -170 114 -23 16
-42 34 -42 39 -1 6 106 158 171 242 6 8 -35 44 -124 109 -73 54 -140 100 -148
102 -15 4 -57 -50 -322 -415 -43 -59 -78 -109 -78 -112 0 -3 19 -18 43 -35 23
-16 98 -71 167 -121 471 -346 576 -422 582 -418 4 3 53 67 108 142 55 75 149
205 210 287 60 83 116 159 124 170 8 11 37 50 64 86 l49 66 -44 74 c-24 41
-48 85 -54 99 -6 13 -13 27 -17 30 -4 3 -17 25 -30 50 -38 73 -102 190 -145
265 -22 38 -40 74 -40 80 0 11 178 261 192 269 10 7 210 -136 211 -150 0 -6
-38 -63 -85 -126 -47 -64 -85 -120 -85 -125 0 -5 30 -31 68 -58 183 -134 214
-156 216 -153 72 94 386 530 386 535 -1 5 -107 86 -238 181 -130 94 -295 215
-367 268 -71 52 -142 104 -157 115 l-26 19 -236 -322z"/>
<path d="M27254 22175 c-72 -30 -568 -370 -664 -454 -137 -121 -219 -219 -269
-323 -34 -72 -75 -179 -86 -228 -2 -8 -8 -27 -14 -42 -6 -16 -8 -28 -6 -28 2
0 0 -12 -6 -27 -6 -16 -22 -68 -35 -118 -12 -49 -28 -107 -34 -129 -7 -21 -13
-46 -15 -55 -33 -156 -239 -567 -478 -951 -83 -133 -284 -438 -298 -450 -15
-14 -281 -391 -278 -395 8 -7 388 270 574 419 206 165 350 276 360 276 3 0 16
9 28 21 12 11 40 30 62 41 22 11 42 23 45 27 22 27 262 123 340 136 25 4 54 9
65 11 11 2 31 6 45 9 14 3 36 7 49 10 50 10 148 65 189 106 73 72 322 419 322
448 0 6 4 11 8 11 4 0 21 26 37 58 17 31 33 59 36 62 20 18 194 380 203 423 2
7 8 26 15 42 6 17 16 41 21 55 6 14 12 34 15 45 3 11 16 61 30 110 14 50 27
104 30 120 2 17 7 41 10 55 18 85 25 294 12 395 -28 226 -95 324 -227 330 -31
1 -70 -3 -86 -10z"/>
<path d="M9954 21886 c-131 -102 -246 -191 -254 -199 -8 -7 -75 -59 -148 -116
-89 -69 -130 -106 -125 -115 9 -14 425 -549 433 -556 3 -3 31 -40 64 -82 32
-43 62 -78 66 -78 5 0 39 7 77 16 37 9 75 17 84 19 14 3 116 27 179 42 14 3
34 8 45 10 11 2 38 8 60 14 22 6 49 13 60 15 11 2 52 12 90 22 l71 18 107
-137 c59 -75 107 -141 107 -145 -1 -8 -163 -138 -195 -156 -9 -5 -29 14 -64
60 -28 37 -57 74 -64 82 -7 8 -26 32 -41 53 -16 20 -32 37 -36 37 -5 0 -70
-48 -145 -106 l-136 -106 27 -36 c47 -62 198 -257 204 -262 3 -3 39 -49 80
-103 41 -54 80 -105 87 -114 10 -13 35 3 170 108 87 68 163 128 170 134 6 5
108 84 226 175 119 91 216 170 216 175 1 6 -47 71 -105 145 -58 74 -187 239
-285 366 l-179 231 -53 -14 c-28 -7 -65 -16 -82 -19 -16 -2 -39 -8 -50 -11
-11 -4 -27 -8 -35 -9 -33 -5 -77 -15 -105 -24 -16 -5 -41 -11 -55 -14 -23 -4
-102 -22 -140 -31 -47 -12 -154 -34 -155 -32 -1 1 -44 56 -95 122 -51 66 -97
125 -102 132 -6 8 22 36 93 92 56 45 105 81 108 81 3 -1 48 -56 100 -124 l94
-123 142 111 c94 72 139 113 133 120 -5 6 -92 119 -194 251 -102 132 -191 246
-198 253 -10 10 -59 -24 -252 -172z"/>
<path d="M4123 21366 c-50 -23 -68 -67 -67 -166 0 -95 8 -145 39 -262 3 -10 7
-27 9 -37 10 -46 63 -196 114 -326 64 -165 221 -474 244 -483 4 -2 8 -8 8 -13
0 -25 379 -598 492 -744 4 -5 84 -111 176 -236 93 -124 176 -234 185 -245 9
-10 55 -70 103 -131 48 -62 92 -113 98 -113 6 0 31 6 56 13 62 19 142 14 228
-13 75 -24 163 -66 362 -172 187 -100 223 -118 227 -115 2 2 -7 19 -20 38 -45
67 -165 266 -211 349 -54 96 -176 345 -191 390 -1 3 -6 16 -12 30 -74 176
-100 249 -109 304 -3 21 -8 48 -10 60 -12 56 -18 144 -19 281 0 125 3 154 17
175 l17 25 -97 89 c-53 49 -138 128 -187 175 -92 87 -127 120 -335 312 -283
262 -585 523 -763 662 -186 146 -280 186 -354 153z"/>
<path d="M25725 21356 c-163 -75 -576 -430 -1395 -1196 -74 -70 -150 -140
-169 -157 l-35 -30 23 -28 c21 -28 22 -34 17 -199 -3 -94 -7 -182 -10 -196 -3
-13 -9 -42 -12 -65 -14 -86 -16 -98 -28 -130 -5 -11 -17 -45 -28 -75 -11 -30
-27 -70 -35 -89 -8 -18 -16 -39 -18 -45 -16 -75 -226 -475 -371 -706 -33 -52
-63 -101 -68 -107 -5 -10 -1 -11 21 -2 15 5 32 14 38 18 5 4 73 41 150 81 343
180 398 202 520 203 48 0 68 -3 126 -18 25 -6 36 6 175 187 81 106 175 229
209 273 343 447 699 990 845 1290 61 126 164 381 174 431 2 10 11 39 20 64 8
25 17 56 20 70 3 14 9 40 15 58 5 17 8 32 6 32 -3 0 0 12 6 28 6 15 13 71 15
125 3 83 1 105 -16 138 -36 70 -105 86 -195 45z"/>
<path d="M6437 21313 c-8 -8 -12 -9 -38 -12 -11 -1 -8 -89 6 -151 3 -14 7 -37
10 -52 3 -15 9 -38 15 -52 5 -15 7 -26 5 -26 -3 0 5 -24 16 -52 11 -29 20 -54
19 -56 -2 -3 36 -107 54 -147 8 -16 26 -59 42 -95 29 -66 142 -290 174 -345
10 -16 32 -57 50 -90 266 -487 434 -735 603 -888 194 -176 224 -204 269 -255
60 -69 80 -112 83 -182 6 -96 -25 -114 -130 -80 -37 12 -188 85 -210 102 -5 4
-46 34 -90 66 -68 50 -210 177 -331 296 -101 99 -318 286 -419 361 -151 112
-256 154 -375 151 -145 -3 -177 -62 -125 -231 9 -27 18 -63 21 -80 7 -42 25
-108 32 -120 4 -5 7 -16 8 -23 5 -30 108 -219 180 -329 75 -116 204 -294 291
-403 24 -30 51 -64 60 -75 44 -54 308 -358 353 -406 28 -30 121 -124 206 -210
164 -167 205 -226 180 -263 -13 -21 -29 -25 -91 -28 -130 -4 -240 45 -535 237
-131 86 -272 175 -324 205 -17 10 -83 48 -146 85 -99 58 -255 139 -270 140 -3
0 -10 4 -17 8 -50 32 -215 73 -283 71 -68 -1 -101 -14 -129 -50 -63 -80 12
-228 255 -501 87 -99 571 -583 817 -818 103 -98 197 -194 208 -212 36 -58 59
-132 49 -158 -8 -22 -14 -24 -72 -21 -85 4 -238 44 -333 86 -11 5 -87 38 -170
74 -131 57 -409 194 -575 283 -267 144 -314 162 -407 157 -98 -5 -175 -82
-178 -178 -5 -133 132 -368 422 -726 69 -85 132 -139 486 -418 304 -240 463
-414 475 -520 5 -44 -37 -85 -108 -106 -150 -44 -288 -1 -645 204 -176 101
-342 176 -435 196 -69 15 -191 12 -255 -5 -156 -44 -202 -165 -125 -330 50
-107 107 -180 279 -355 187 -192 397 -362 583 -473 261 -156 452 -325 411
-363 -29 -28 -204 -45 -278 -27 -11 3 -33 8 -50 12 -16 4 -68 21 -115 37 -124
43 -232 78 -255 83 -11 2 -31 7 -45 10 -138 31 -273 25 -400 -20 -195 -67
-351 -231 -399 -418 -14 -53 -10 -184 7 -237 60 -193 237 -348 439 -385 16 -3
39 -7 53 -10 80 -18 322 -24 395 -11 69 12 89 16 115 21 14 3 36 8 50 11 14 3
57 11 95 19 228 46 326 35 362 -40 15 -31 15 -36 0 -59 -9 -13 -31 -36 -49
-49 -52 -39 -213 -117 -242 -117 -8 0 -17 -4 -20 -9 -3 -5 -16 -11 -28 -14
-36 -9 -86 -23 -179 -51 -47 -14 -97 -27 -110 -30 -13 -3 -60 -15 -104 -26
-78 -20 -100 -24 -160 -35 -16 -3 -43 -10 -60 -15 -16 -4 -48 -12 -70 -16 -22
-4 -44 -8 -50 -10 -5 -1 -26 -5 -45 -8 -19 -4 -43 -9 -52 -12 -23 -7 -58 -14
-92 -19 -15 -2 -36 -7 -46 -10 -10 -3 -28 -8 -41 -10 -75 -15 -190 -49 -225
-68 -55 -29 -114 -84 -143 -133 -34 -55 -38 -152 -9 -214 25 -53 112 -141 191
-193 110 -73 263 -137 364 -153 21 -3 41 -8 44 -10 8 -5 179 -18 234 -17 53 0
214 11 241 17 12 2 39 7 60 11 62 9 85 14 149 30 33 9 67 17 75 19 9 2 42 15
75 29 79 33 225 95 250 106 84 37 136 51 220 58 56 5 64 3 93 -22 100 -84 62
-163 -126 -257 -48 -23 -89 -43 -92 -44 -5 -1 -34 -11 -65 -24 -11 -4 -33 -13
-50 -19 -16 -6 -43 -16 -60 -22 -16 -7 -34 -13 -40 -14 -31 -7 -126 -61 -197
-112 -104 -75 -267 -238 -339 -339 -60 -84 -124 -194 -113 -194 4 0 2 -6 -3
-12 -24 -30 -47 -132 -46 -203 0 -49 11 -98 32 -141 22 -45 107 -134 128 -134
7 0 13 -4 13 -9 0 -16 153 -73 235 -87 52 -9 179 -10 230 -1 199 32 405 164
650 418 218 226 281 285 327 307 26 12 57 22 67 22 27 0 64 -37 81 -80 36 -88
-5 -154 -237 -380 -215 -209 -365 -411 -483 -650 -43 -85 -84 -191 -96 -245
-3 -11 -7 -29 -9 -40 -3 -11 -8 -31 -11 -45 -3 -14 -8 -70 -10 -125 -3 -101 3
-136 38 -200 15 -27 66 -73 74 -68 2 1 15 -4 29 -11 35 -19 144 -11 223 15
100 33 246 113 389 214 162 113 371 319 581 571 267 320 395 435 451 405 21
-12 51 -70 55 -109 8 -74 -90 -266 -332 -647 -28 -44 -66 -105 -85 -135 -122
-198 -167 -272 -167 -275 0 -2 -19 -36 -43 -77 -127 -217 -194 -395 -202 -533
-5 -90 60 -188 141 -213 229 -70 578 210 1071 858 60 80 123 165 139 190 16
25 31 47 35 50 11 10 157 227 204 305 89 147 231 442 250 520 1 6 5 17 8 25
26 64 88 280 81 280 -3 0 0 8 5 18 5 9 12 33 15 52 5 33 9 53 21 110 3 14 7
45 10 70 3 25 7 54 9 66 31 161 27 616 -8 829 -2 17 -8 50 -11 75 -4 25 -9 54
-11 65 -2 11 -7 33 -9 48 -5 26 -38 163 -51 212 -3 11 -7 31 -10 44 -15 75
-111 288 -197 436 -50 88 -209 348 -217 355 -13 13 -166 313 -191 375 -49 124
-127 379 -155 505 -9 36 -17 74 -20 85 -2 11 -6 31 -9 45 -3 14 -7 36 -10 50
-5 27 -16 95 -30 193 -13 96 -19 211 -19 372 0 186 6 268 29 385 3 14 7 34 9
45 11 54 48 189 74 265 69 203 126 324 406 875 132 260 260 553 291 670 5 17
9 35 11 40 9 29 45 163 49 180 2 11 7 31 10 45 3 14 8 41 11 60 3 19 7 46 10
60 20 107 27 511 12 630 -17 127 -26 183 -43 260 -4 14 -8 36 -11 50 -3 14 -8
34 -11 45 -4 11 -8 26 -10 33 -32 127 -91 302 -140 412 -83 185 -234 470 -255
478 -4 2 -8 8 -8 13 0 17 -120 190 -186 269 -82 98 -182 192 -314 293 -41 32
-221 147 -229 147 -5 0 -11 3 -13 8 -1 4 -43 32 -93 61 -262 156 -430 272
-527 362 -476 447 -680 616 -839 696 -52 26 -147 41 -162 26z"/>
<path d="M23450 21311 c-123 -38 -342 -205 -693 -529 -87 -81 -184 -171 -215
-200 -73 -67 -215 -169 -367 -261 -394 -242 -481 -300 -618 -417 -180 -153
-354 -394 -527 -729 -80 -155 -196 -436 -214 -520 -2 -5 -8 -30 -15 -55 -7
-25 -15 -55 -17 -67 -2 -12 -9 -34 -14 -48 -5 -14 -7 -25 -5 -25 2 0 0 -12 -5
-26 -6 -14 -12 -40 -14 -57 -2 -18 -7 -43 -10 -57 -3 -14 -8 -41 -10 -60 -3
-19 -8 -62 -13 -95 -16 -120 -9 -537 11 -631 2 -12 7 -38 10 -58 21 -133 112
-451 138 -483 6 -7 8 -13 5 -13 -5 0 7 -31 52 -135 53 -120 101 -221 185 -385
149 -293 267 -529 267 -537 1 -5 6 -17 12 -28 6 -11 12 -22 12 -25 1 -3 12
-30 26 -60 26 -56 108 -277 114 -308 2 -9 11 -46 20 -82 19 -73 23 -90 31
-139 3 -18 7 -42 9 -53 26 -133 26 -532 1 -688 -3 -14 -7 -47 -11 -75 -3 -27
-8 -57 -10 -65 -2 -8 -6 -31 -9 -50 -3 -19 -8 -46 -11 -60 -3 -14 -7 -36 -10
-50 -32 -166 -116 -440 -190 -620 -44 -108 -131 -269 -238 -440 -12 -20 -37
-60 -55 -90 -18 -30 -38 -64 -45 -74 -85 -137 -172 -307 -212 -411 -24 -64
-78 -256 -90 -323 -3 -15 -7 -38 -10 -52 -11 -53 -25 -137 -31 -185 -3 -22 -7
-53 -9 -70 -26 -196 -25 -637 1 -768 2 -12 7 -42 9 -67 3 -25 8 -52 10 -60 2
-8 7 -31 10 -50 12 -71 68 -285 77 -297 6 -7 8 -13 4 -13 -3 0 0 -17 8 -37 8
-21 17 -47 22 -58 4 -11 8 -24 9 -30 18 -73 148 -346 233 -490 54 -90 212
-330 244 -370 5 -5 49 -66 100 -135 256 -351 526 -649 716 -793 65 -49 143
-98 162 -102 3 -1 23 -9 45 -19 47 -21 154 -29 198 -14 82 28 137 101 141 192
3 52 -24 188 -48 241 -8 17 -17 41 -21 54 -23 75 -171 339 -355 631 -320 508
-413 683 -404 762 4 38 33 97 54 108 38 20 118 -28 209 -127 30 -32 71 -76 91
-98 20 -22 85 -98 145 -170 143 -170 236 -274 326 -362 80 -78 258 -224 299
-245 14 -7 27 -16 30 -19 10 -13 137 -86 210 -123 190 -93 364 -93 427 1 42
63 48 85 48 187 0 132 -9 184 -51 314 -36 108 -170 370 -196 380 -4 2 -8 8 -8
12 0 5 -12 26 -26 47 -90 134 -171 228 -336 392 -157 156 -192 196 -217 249
-16 35 -28 71 -26 80 12 61 61 122 96 122 64 0 121 -48 389 -324 189 -195 347
-314 506 -380 90 -37 158 -50 269 -49 81 0 150 10 180 25 11 6 20 10 20 8 0
-6 52 13 111 41 244 117 274 372 79 664 -30 44 -66 94 -80 110 -14 17 -42 50
-63 73 -54 63 -216 202 -292 249 -36 22 -132 66 -215 97 -372 141 -468 229
-366 336 38 40 41 41 98 39 32 -1 67 -6 78 -10 11 -4 52 -17 90 -29 75 -24 86
-28 210 -85 104 -49 144 -63 240 -87 94 -23 108 -26 155 -33 20 -3 46 -7 58
-10 136 -26 400 -21 532 10 14 3 36 8 49 11 13 3 32 9 43 15 10 5 18 8 18 5 0
-9 135 52 190 85 206 127 281 226 267 353 -8 70 -28 105 -96 169 -49 45 -72
58 -142 80 -46 15 -96 29 -111 32 -36 6 -90 18 -135 29 -46 11 -110 25 -133
30 -14 2 -46 9 -73 15 -26 6 -64 14 -85 17 -20 3 -40 8 -43 10 -3 2 -19 6 -35
8 -48 9 -64 13 -194 46 -69 17 -135 33 -148 36 -59 12 -332 108 -400 141 -79
39 -162 108 -162 135 0 28 45 82 75 90 33 10 145 11 185 3 14 -3 41 -7 60 -10
19 -3 46 -7 60 -10 14 -3 35 -7 48 -9 13 -3 32 -8 42 -11 64 -20 238 -41 330
-39 150 3 244 15 340 45 156 49 285 153 347 280 39 80 45 102 49 205 5 123
-29 226 -106 323 -166 209 -433 300 -697 236 -13 -3 -33 -7 -45 -10 -22 -5
-112 -32 -138 -42 -8 -3 -19 -7 -25 -9 -5 -2 -37 -13 -70 -24 -33 -12 -64 -23
-70 -24 -5 -1 -30 -8 -55 -15 -71 -21 -81 -22 -152 -25 -76 -4 -154 9 -181 29
-28 20 -13 51 58 120 75 73 184 152 325 236 348 208 758 596 871 824 67 136
62 224 -16 293 -26 22 -65 45 -92 53 -50 14 -193 18 -253 6 -112 -21 -269 -93
-515 -237 -107 -62 -255 -132 -326 -154 -148 -45 -306 -20 -348 56 -33 58 24
155 183 313 104 103 164 153 548 459 119 94 166 139 243 234 160 197 337 458
360 533 4 13 11 29 16 34 20 27 31 145 16 188 -12 35 -69 94 -105 108 -41 16
-114 17 -173 2 -48 -12 -94 -35 -309 -151 -97 -52 -466 -236 -540 -270 -81
-36 -301 -123 -325 -129 -5 -1 -43 -11 -83 -22 -83 -22 -178 -23 -191 -2 -10
15 -9 25 8 79 21 69 64 121 228 279 92 89 193 185 223 214 445 427 730 736
832 899 45 73 54 96 57 150 3 52 -23 94 -68 112 -48 20 -174 15 -231 -9 -8 -3
-20 -7 -25 -8 -6 -2 -42 -15 -80 -30 -155 -63 -403 -204 -775 -443 -107 -69
-220 -140 -251 -158 -156 -88 -356 -116 -388 -55 -19 35 34 112 162 238 529
521 1028 1181 1124 1489 32 102 73 269 73 298 0 67 -44 106 -130 113 -99 9
-194 -22 -325 -105 -62 -39 -181 -127 -195 -143 -3 -3 -43 -39 -90 -80 -47
-41 -130 -116 -185 -168 -161 -152 -249 -234 -286 -266 -77 -67 -245 -171
-334 -206 -75 -30 -132 -32 -150 -7 -17 26 -13 120 7 168 27 61 150 188 334
343 90 77 249 283 374 487 137 225 409 729 464 860 10 25 27 63 36 85 25 55
90 245 85 245 -3 0 0 11 5 26 6 14 12 37 15 52 3 15 7 38 10 52 3 14 8 47 11
74 3 28 7 53 10 58 7 11 -64 38 -100 37 -17 0 -42 -4 -56 -8z"/>
<path d="M14973 20540 c-18 -4 -33 -5 -33 -3 0 3 -7 0 -15 -7 -8 -7 -15 -10
-15 -6 0 4 -18 -3 -40 -14 -79 -40 -150 -131 -166 -211 -4 -19 -8 -223 -8
-454 -1 -231 -4 -422 -9 -425 -4 -3 -22 6 -40 20 -17 15 -99 77 -182 140 -473
361 -452 347 -544 356 -146 16 -280 -63 -340 -201 -22 -50 -22 -163 -1 -222
28 -79 61 -115 219 -236 80 -61 148 -114 151 -117 3 -3 30 -24 60 -45 30 -22
62 -45 70 -52 32 -26 259 -200 315 -243 33 -24 67 -50 75 -57 8 -8 62 -49 120
-93 l105 -79 1 -423 c0 -233 -1 -426 -3 -430 -2 -5 -76 47 -165 115 -484 370
-493 376 -547 393 -111 35 -243 3 -326 -80 -87 -88 -114 -203 -76 -326 26 -83
68 -128 231 -252 286 -217 786 -599 800 -611 8 -7 31 -25 50 -40 l35 -26 0
-673 c0 -370 -2 -673 -5 -672 -3 0 -16 7 -30 16 -49 30 -243 140 -284 162 -22
11 -43 23 -46 26 -6 7 -199 120 -204 120 -2 0 -45 25 -95 55 -51 30 -94 55
-97 55 -3 0 -18 8 -32 18 -15 11 -52 32 -82 49 -80 44 -284 164 -292 171 -5 6
-10 35 -24 142 -2 19 -6 52 -9 73 -3 20 -8 56 -11 80 -3 23 -7 53 -9 67 -2 14
-6 50 -9 80 -4 30 -8 64 -10 75 -2 11 -7 45 -10 76 -4 31 -8 65 -10 75 -2 11
-7 48 -11 84 -4 36 -9 73 -10 82 -2 9 -6 41 -9 70 -4 29 -8 64 -11 78 -3 14
-7 48 -10 75 -3 28 -7 61 -10 75 -2 14 -7 49 -10 79 -13 102 -24 135 -64 191
-36 49 -113 108 -150 115 -9 2 -16 4 -16 5 0 5 -48 11 -96 12 -95 2 -188 -42
-248 -118 -57 -71 -71 -119 -66 -231 2 -54 6 -114 9 -133 9 -58 15 -103 21
-150 4 -25 8 -56 10 -70 2 -14 7 -50 10 -80 3 -30 8 -66 10 -80 2 -14 6 -46 9
-72 3 -26 8 -63 11 -82 3 -20 7 -52 10 -71 4 -26 1 -35 -9 -35 -8 0 -16 4 -18
8 -3 7 -146 91 -288 170 -25 13 -49 28 -55 32 -5 4 -26 17 -46 28 -36 20 -322
184 -326 187 -3 1 -14 78 -28 190 -4 28 -8 62 -11 76 -2 15 -6 47 -9 70 -3 24
-8 61 -10 82 -3 20 -7 54 -10 75 -2 20 -7 55 -10 77 -2 22 -7 60 -10 85 -6 49
-14 111 -20 150 -8 54 -16 109 -20 146 -7 66 -16 138 -20 164 -2 14 -7 48 -11
75 -14 114 -22 143 -50 191 -116 198 -410 211 -539 24 -62 -90 -74 -195 -40
-371 2 -10 6 -44 10 -76 3 -32 8 -69 10 -83 4 -27 15 -108 20 -150 1 -14 5
-43 8 -65 9 -58 17 -117 22 -169 3 -26 6 -50 6 -54 1 -4 1 -11 0 -15 -1 -10
-4 -8 -424 235 -194 112 -329 183 -362 192 -56 14 -135 12 -167 -5 -10 -5 -18
-7 -18 -4 0 12 -80 -37 -111 -68 -77 -78 -103 -139 -102 -243 0 -55 29 -154
44 -154 5 0 9 -6 9 -14 0 -31 110 -108 359 -251 145 -82 282 -161 305 -175 24
-14 67 -38 95 -54 l52 -30 -38 -17 c-21 -10 -132 -57 -248 -105 -115 -47 -229
-95 -252 -105 -23 -11 -44 -19 -48 -19 -7 0 -87 -35 -145 -63 -60 -30 -92 -58
-128 -115 -38 -58 -45 -87 -46 -183 0 -64 4 -84 29 -133 16 -32 48 -74 70 -93
41 -35 115 -79 115 -67 0 4 6 2 13 -3 6 -6 44 -11 82 -12 72 -2 129 14 250 70
28 13 55 24 60 25 6 1 33 12 60 25 28 12 55 23 60 25 6 1 204 83 440 182 l430
180 40 -22 c59 -33 110 -62 210 -121 94 -55 107 -63 245 -141 47 -26 87 -51
90 -54 3 -3 24 -14 47 -25 24 -11 43 -23 43 -27 0 -5 6 -8 13 -8 6 0 22 -9 35
-18 l24 -18 -39 -17 c-79 -34 -118 -50 -128 -53 -5 -1 -28 -10 -50 -20 -22
-10 -42 -18 -45 -19 -7 -2 -59 -24 -100 -42 -88 -38 -154 -66 -165 -68 -15 -4
-174 -73 -213 -92 -97 -49 -165 -163 -165 -278 1 -103 29 -170 102 -237 74
-68 127 -88 228 -84 74 2 92 8 313 100 129 54 240 101 245 104 6 4 15 7 20 8
6 1 71 28 145 59 390 163 368 153 410 172 19 8 47 22 63 30 15 8 27 12 27 8 0
-3 13 1 29 10 29 14 32 13 108 -30 43 -25 85 -50 93 -55 8 -6 22 -13 30 -17 8
-4 43 -24 78 -45 34 -21 65 -38 67 -38 3 0 22 -11 43 -23 30 -20 158 -94 407
-237 17 -10 80 -47 142 -83 61 -35 126 -71 142 -78 17 -8 31 -17 31 -20 0 -4
14 -12 30 -19 34 -14 33 -16 -40 -57 -19 -11 -138 -80 -265 -153 -282 -163
-505 -291 -691 -399 -96 -55 -148 -79 -160 -75 -11 3 -32 12 -49 19 -16 7 -70
29 -120 50 -49 20 -103 42 -120 49 -16 8 -136 57 -265 111 -129 53 -248 102
-265 110 -16 7 -59 25 -95 40 -36 14 -79 32 -95 40 -36 16 -70 30 -151 60
-119 44 -246 20 -337 -64 -116 -107 -135 -283 -44 -417 51 -77 78 -91 462
-249 11 -5 22 -9 25 -9 3 -1 10 -4 15 -8 6 -3 51 -22 100 -43 50 -20 101 -42
115 -48 14 -6 27 -11 30 -11 3 -1 10 -4 15 -7 6 -4 27 -12 49 -19 44 -14 40
-22 -29 -60 -120 -66 -270 -156 -273 -162 -2 -5 -8 -8 -13 -8 -6 0 -51 -24
-102 -54 -51 -30 -108 -63 -127 -74 -19 -11 -64 -36 -99 -56 l-65 -37 -55 23
c-31 12 -58 23 -61 24 -3 0 -27 11 -55 23 -27 13 -54 24 -60 26 -5 1 -26 9
-45 17 -35 15 -70 30 -80 33 -3 1 -21 9 -40 17 -53 24 -399 169 -450 188 -25
10 -117 48 -205 85 -149 63 -165 68 -235 68 -41 0 -85 -2 -96 -5 -76 -21 -159
-90 -196 -162 -26 -52 -31 -70 -33 -146 -3 -104 51 -214 132 -267 19 -13 127
-61 241 -108 114 -48 221 -92 237 -100 42 -18 203 -85 245 -100 19 -7 36 -17
37 -21 3 -9 -65 -53 -104 -67 -13 -5 -23 -13 -23 -18 0 -5 -4 -9 -8 -9 -5 0
-107 -57 -228 -127 -120 -69 -248 -142 -283 -162 -35 -20 -80 -51 -102 -69
-50 -43 -98 -141 -102 -211 -4 -60 17 -157 39 -182 8 -8 14 -20 14 -26 0 -18
83 -88 133 -112 69 -33 177 -36 248 -7 46 19 642 358 723 411 23 15 29 14 28
-5 0 -6 -12 -104 -18 -140 -2 -14 -6 -50 -9 -80 -4 -30 -8 -66 -10 -80 -8 -54
-16 -113 -20 -143 -1 -18 -6 -52 -9 -77 -4 -25 -9 -61 -11 -80 -3 -19 -8 -57
-12 -85 -20 -154 3 -243 86 -325 72 -71 140 -98 241 -94 155 5 286 123 305
275 3 23 7 53 9 68 6 34 14 95 21 151 3 25 7 61 10 81 3 20 8 55 10 79 2 24 7
59 10 79 3 20 7 52 9 71 3 19 7 49 10 65 3 17 8 55 11 85 3 30 8 69 10 85 2
17 7 54 10 83 4 29 8 62 10 74 3 11 7 46 10 77 4 31 8 67 11 81 5 32 20 138
23 171 1 10 515 309 531 309 5 0 10 5 10 10 0 6 5 10 10 10 6 0 27 10 48 23
20 13 63 38 95 56 l58 33 -5 -29 c-3 -15 -8 -53 -11 -83 -3 -30 -8 -66 -10
-80 -2 -14 -7 -47 -10 -75 -3 -27 -7 -61 -10 -75 -2 -14 -7 -50 -11 -80 -4
-30 -8 -66 -10 -80 -2 -14 -6 -49 -9 -78 -4 -29 -9 -63 -11 -75 -3 -12 -7 -70
-10 -128 -4 -99 -2 -109 23 -160 30 -60 93 -127 138 -148 17 -7 39 -18 50 -24
31 -16 155 -16 205 1 68 23 128 68 164 126 42 64 51 91 61 181 2 22 7 58 10
80 10 65 14 97 20 155 3 30 8 66 10 80 2 14 6 43 9 65 11 85 17 131 21 155 5
30 16 126 20 160 4 40 16 131 21 153 2 11 6 43 9 71 3 28 8 62 10 76 8 52 22
169 24 201 1 13 193 132 346 215 71 38 191 110 193 116 2 5 8 8 13 8 5 0 100
53 211 117 112 64 223 128 248 142 25 14 47 29 48 33 2 4 8 8 14 8 6 0 32 13
57 28 l46 29 0 -677 0 -676 -60 -46 c-962 -734 -987 -753 -1016 -796 -103
-148 -61 -361 91 -457 23 -15 49 -28 59 -30 9 -3 32 -8 51 -13 19 -5 59 -7 89
-6 92 6 91 5 561 363 69 52 146 112 173 134 26 21 48 37 48 35 1 -1 2 -196 3
-432 l1 -429 -30 -24 c-51 -39 -479 -368 -754 -577 -324 -247 -353 -285 -347
-445 9 -216 229 -361 432 -283 49 18 92 46 160 102 16 14 43 35 60 47 16 12
130 99 253 193 123 93 224 170 225 170 1 0 1 -199 1 -442 l1 -443 28 -62 c35
-76 117 -155 175 -168 9 -2 30 -8 46 -13 89 -26 220 10 297 83 44 42 87 125
92 180 2 22 5 226 5 453 l1 414 108 -83 c59 -46 109 -85 112 -88 3 -3 13 -10
22 -16 9 -5 98 -73 198 -150 99 -77 199 -150 221 -163 150 -84 354 -18 436
143 20 38 27 68 29 128 6 137 -33 206 -181 318 -38 29 -140 107 -225 172 -85
66 -282 216 -437 335 l-283 216 0 434 c0 414 1 434 18 420 27 -24 50 -42 172
-134 63 -48 189 -145 280 -214 184 -141 195 -148 260 -165 113 -29 230 5 313
93 113 121 115 317 5 433 -28 30 -102 88 -378 299 -233 178 -314 239 -360 274
-30 22 -60 46 -66 51 -7 6 -53 42 -104 80 -51 39 -104 79 -117 90 l-23 20 2
673 3 672 235 -136 c298 -172 317 -183 365 -208 22 -12 42 -23 45 -26 11 -12
238 -140 248 -140 6 0 12 -4 14 -8 2 -4 57 -38 123 -76 66 -37 123 -71 127
-74 8 -8 13 -39 23 -122 3 -30 8 -66 10 -80 2 -14 6 -45 9 -70 10 -80 17 -134
21 -160 2 -14 7 -45 10 -70 13 -110 17 -137 21 -160 2 -14 6 -50 9 -80 4 -30
8 -66 10 -80 6 -35 13 -87 20 -145 3 -27 8 -63 10 -80 5 -38 12 -86 20 -150
13 -98 16 -111 39 -160 30 -65 87 -121 156 -154 45 -21 69 -26 135 -26 67 1
89 5 135 29 30 15 68 39 83 54 58 55 106 167 102 237 -3 35 -14 139 -20 175
-2 14 -7 49 -10 79 -4 30 -8 61 -10 70 -1 9 -6 41 -9 72 -4 31 -9 67 -11 80
-3 12 -7 45 -10 73 -3 28 -7 65 -9 81 -3 17 -8 57 -11 90 -4 33 -9 63 -11 67
-14 22 36 -2 195 -93 97 -56 190 -110 206 -119 17 -10 71 -41 120 -70 50 -29
115 -66 145 -82 65 -36 87 -54 87 -71 0 -6 3 -34 7 -62 4 -27 9 -66 12 -85 7
-54 11 -90 30 -230 3 -25 7 -56 9 -70 3 -34 17 -131 20 -152 2 -9 6 -41 10
-70 3 -29 8 -69 10 -88 3 -19 7 -53 10 -75 2 -22 7 -60 11 -85 3 -25 7 -56 9
-70 2 -14 6 -47 9 -75 4 -27 9 -68 12 -90 6 -46 14 -100 19 -124 14 -76 91
-168 172 -208 48 -23 69 -27 137 -27 105 1 167 27 234 98 81 85 103 183 78
346 -11 78 -14 99 -20 155 -4 28 -8 64 -11 80 -2 17 -7 53 -10 80 -4 28 -8 61
-10 75 -2 14 -7 50 -11 80 -3 30 -8 66 -10 80 -2 14 -6 49 -10 78 l-5 53 58
-33 c32 -17 60 -34 63 -37 3 -4 19 -13 35 -22 24 -12 300 -170 475 -272 98
-57 118 -66 150 -73 169 -34 308 32 380 180 24 50 31 143 17 211 -11 53 -50
116 -95 155 -34 30 -251 162 -437 264 -147 81 -324 191 -314 194 16 5 289 118
334 137 17 8 86 37 155 65 282 115 328 144 376 240 23 44 29 70 31 134 4 155
-74 270 -219 319 -68 23 -185 15 -247 -17 -14 -8 -71 -32 -126 -54 -55 -22
-147 -60 -205 -85 -58 -24 -190 -79 -295 -122 -104 -43 -210 -87 -235 -97 -25
-11 -59 -27 -77 -34 -17 -8 -34 -14 -37 -14 -3 0 -25 -9 -49 -19 -127 -59
-115 -59 -227 7 -41 25 -90 53 -107 63 -81 47 -101 58 -149 86 -27 17 -70 41
-95 55 -251 142 -290 167 -272 176 10 5 97 42 193 82 96 40 189 78 205 86 17
7 55 23 85 34 30 12 77 32 105 44 27 13 61 27 75 31 45 14 108 55 143 95 60
65 85 137 82 231 -4 90 -34 157 -101 218 -70 65 -140 91 -231 87 -66 -3 -142
-30 -398 -142 -22 -9 -44 -18 -50 -19 -5 -1 -30 -12 -55 -23 -25 -11 -112 -48
-195 -82 -82 -34 -166 -68 -185 -76 -19 -9 -46 -20 -60 -26 -34 -14 -77 -32
-122 -52 -20 -9 -39 -16 -42 -16 -3 0 -25 -8 -49 -19 -23 -10 -61 -26 -84 -36
l-42 -17 -273 157 c-150 87 -313 182 -363 210 -49 29 -106 62 -125 72 -19 11
-58 34 -86 50 -27 17 -70 41 -95 55 -255 145 -236 130 -191 153 20 11 84 47
142 81 382 222 562 324 570 324 6 0 10 5 10 10 0 6 4 10 9 10 4 0 60 30 122
66 63 37 139 81 169 97 30 17 68 38 84 48 28 17 30 17 135 -28 58 -24 111 -46
116 -47 6 -2 28 -11 50 -20 22 -10 78 -33 125 -53 47 -19 99 -41 115 -48 17
-7 136 -56 265 -110 129 -53 251 -103 270 -112 19 -8 44 -18 55 -23 11 -4 38
-16 60 -26 61 -29 204 -26 269 4 51 25 136 104 136 128 0 8 4 14 9 14 15 0 39
106 37 162 -5 126 -65 217 -183 281 -18 9 -33 14 -33 11 0 -4 -6 -2 -12 4 -7
6 -62 30 -123 55 -60 25 -159 66 -220 92 -60 26 -114 48 -120 49 -5 1 -14 4
-20 8 -5 3 -50 22 -100 43 -49 20 -91 38 -93 39 -2 3 98 63 197 118 128 72
196 113 199 120 2 4 8 8 13 8 5 0 69 35 142 77 213 123 186 116 281 75 45 -19
97 -41 116 -49 48 -20 69 -28 110 -46 132 -56 186 -79 195 -81 12 -4 43 -16
118 -49 31 -15 59 -26 62 -27 6 -1 32 -12 270 -112 105 -44 195 -81 200 -82 6
-1 15 -4 20 -8 16 -10 71 -19 112 -19 125 -1 234 66 294 181 20 38 24 59 24
140 0 86 -3 100 -30 148 -46 85 -97 123 -240 182 -11 4 -46 20 -78 34 -32 14
-62 26 -67 26 -6 0 -18 4 -28 10 -9 5 -62 28 -117 51 -55 22 -118 49 -140 58
-22 10 -77 33 -122 51 -46 18 -82 34 -80 35 2 2 175 102 248 144 352 201 487
283 521 316 59 58 91 133 91 214 0 76 -5 106 -27 153 -40 84 -119 148 -213
172 -108 28 -163 11 -380 -114 -104 -59 -271 -156 -372 -214 -101 -58 -186
-106 -188 -106 -2 0 -2 21 1 48 3 26 8 70 11 97 3 28 8 57 10 65 2 8 7 42 10
75 4 33 8 71 10 85 2 14 7 45 10 70 13 105 17 136 21 161 25 159 24 270 -3
331 -61 135 -227 220 -363 186 -50 -13 -110 -40 -110 -50 0 -4 -6 -8 -14 -8
-18 0 -70 -60 -96 -111 -21 -40 -33 -95 -45 -198 -4 -30 -8 -61 -10 -70 -3
-15 -14 -109 -20 -161 -2 -21 -8 -64 -20 -155 -1 -11 -5 -40 -9 -65 -9 -58
-22 -163 -31 -240 -8 -68 -15 -127 -19 -145 -2 -11 -7 -45 -10 -75 -4 -30 -8
-64 -10 -75 -2 -11 -7 -55 -11 -97 l-8 -78 -201 -116 c-110 -64 -221 -128
-246 -142 -25 -14 -76 -44 -115 -67 -38 -22 -77 -44 -85 -48 -8 -4 -33 -18
-55 -32 -51 -31 -53 -31 -48 3 2 15 5 43 7 62 4 36 14 105 21 150 2 14 7 51
10 83 4 32 8 66 10 76 2 10 6 42 10 72 3 30 9 72 12 94 3 22 7 51 8 65 2 14 6
50 11 80 15 103 8 165 -27 237 -91 187 -338 236 -496 98 -75 -66 -104 -131
-118 -268 -4 -32 -8 -67 -10 -79 -3 -11 -7 -46 -11 -77 -3 -31 -8 -65 -10 -76
-2 -11 -6 -44 -10 -73 -3 -29 -7 -63 -10 -75 -2 -12 -6 -46 -9 -77 -3 -31 -7
-65 -9 -76 -2 -12 -7 -45 -11 -75 -3 -30 -8 -65 -10 -79 -3 -14 -7 -47 -10
-75 -3 -27 -7 -60 -9 -72 -3 -12 -7 -49 -11 -82 -3 -33 -8 -70 -10 -83 -3 -12
-7 -47 -10 -78 -3 -30 -7 -64 -10 -75 -2 -11 -4 -23 -4 -27 -1 -6 -95 -65
-206 -128 -16 -9 -133 -77 -260 -150 -126 -73 -245 -141 -263 -151 -18 -11
-93 -54 -165 -96 -211 -122 -266 -153 -272 -153 -3 0 -5 303 -5 673 l0 673 53
39 c28 21 57 43 62 47 6 5 56 43 112 86 55 42 141 107 190 144 48 38 162 124
253 194 91 69 174 133 185 142 11 9 55 43 96 74 79 58 149 134 149 160 0 7 6
20 12 26 13 13 17 167 5 210 -19 72 -90 153 -170 194 -64 33 -190 35 -260 4
-40 -17 -250 -166 -277 -196 -4 -4 -179 -138 -366 -278 l-44 -34 0 434 0 433
63 46 c62 47 323 246 342 261 6 5 143 110 305 234 327 250 353 272 382 328 29
57 32 73 33 161 0 64 -5 90 -24 128 -61 126 -165 188 -305 183 -108 -3 -127
-15 -478 -287 -15 -11 -92 -70 -170 -130 l-143 -109 -2 68 c-2 37 -4 238 -6
447 -2 366 -3 382 -24 425 -31 65 -83 122 -140 153 -44 24 -67 30 -148 41 -11
2 -35 0 -52 -4z"/>
<path d="M1905 20131 c-68 -30 -143 -137 -159 -224 -3 -15 -7 -35 -10 -45 -48
-160 -33 -667 25 -850 6 -18 12 -39 13 -45 21 -112 155 -422 267 -617 96 -169
349 -530 371 -530 4 0 11 12 14 28 12 52 93 207 130 250 113 131 271 170 509
127 35 -7 223 -65 245 -76 8 -4 49 -22 90 -41 143 -62 287 -141 617 -339 182
-109 334 -199 338 -199 4 0 -96 102 -223 228 -254 251 -336 338 -475 505 -136
162 -238 301 -337 456 -95 150 -126 212 -159 316 -13 39 -25 77 -27 85 -3 8
-5 15 -4 15 1 0 -4 14 -10 30 -7 17 -13 37 -15 45 -12 53 -62 195 -90 251 -38
77 -52 97 -123 166 -103 101 -217 167 -675 388 -214 103 -240 109 -312 76z"/>
<path d="M27895 20114 c-33 -19 -67 -37 -75 -40 -8 -4 -60 -28 -115 -54 -55
-26 -103 -48 -107 -49 -5 0 -70 -33 -145 -72 -255 -131 -396 -243 -461 -367
-30 -56 -116 -282 -107 -282 2 0 -19 -66 -46 -146 -64 -190 -150 -338 -345
-599 -176 -235 -269 -339 -596 -667 -148 -147 -268 -270 -268 -272 0 -2 137
79 305 180 357 215 365 219 515 296 409 209 708 254 894 134 89 -58 148 -140
202 -280 16 -42 32 -76 35 -76 9 0 152 192 213 285 25 39 50 75 55 81 67 82
307 557 325 646 2 7 6 20 10 28 22 51 62 208 72 285 3 22 7 51 10 65 23 132
22 486 -1 600 -3 14 -8 41 -11 60 -13 78 -64 178 -114 224 -76 68 -150 74
-245 20z"/>
<path d="M3408 19654 c-2 -1 -15 -5 -29 -7 -120 -22 -156 -180 -83 -363 101
-253 326 -600 570 -881 140 -160 364 -384 523 -523 35 -30 89 -78 120 -106
192 -175 291 -253 384 -303 31 -17 57 -28 57 -25 0 4 6 2 13 -4 31 -26 112
-35 332 -37 234 -3 352 -17 417 -51 15 -8 31 -15 35 -15 16 -2 52 -19 196 -89
82 -39 150 -70 152 -68 2 2 -41 58 -97 123 -135 161 -183 225 -399 535 -330
474 -488 677 -578 748 -116 91 -313 245 -425 332 -394 310 -822 620 -855 620
-6 0 -11 4 -11 9 0 9 -160 86 -202 96 -29 7 -116 14 -120 9z"/>
<path d="M26528 19655 c-2 -1 -22 -5 -46 -9 -159 -21 -584 -319 -1501 -1050
-112 -90 -238 -251 -576 -736 -220 -316 -292 -414 -375 -510 -121 -140 -154
-183 -135 -173 96 50 342 164 348 161 1 -1 13 5 27 12 22 12 38 17 115 35 53
13 116 17 315 20 238 3 299 13 398 67 86 46 255 176 327 252 12 11 70 64 130
116 304 264 534 507 773 815 4 6 23 33 42 60 19 28 37 52 41 55 5 5 41 62 124
200 58 95 150 279 166 331 21 68 37 152 33 178 -2 14 -5 35 -7 46 -5 37 -47
93 -83 110 -32 15 -107 28 -116 20z"/>
<path d="M2883 17973 c-65 -22 -136 -92 -164 -160 -32 -78 -34 -228 -4 -343 2
-8 4 -15 5 -15 1 0 3 -9 5 -20 14 -71 173 -375 197 -375 4 0 8 -5 8 -11 0 -20
148 -194 257 -301 161 -160 289 -262 498 -401 55 -37 105 -70 110 -75 12 -10
199 -119 278 -162 33 -18 102 -58 155 -89 145 -85 298 -157 387 -182 111 -30
195 -30 332 2 27 6 56 12 66 14 10 2 27 7 37 10 10 3 28 8 39 10 12 3 31 8 44
11 106 26 203 21 352 -19 6 -2 68 -22 139 -46 70 -23 130 -41 132 -38 2 2 -28
37 -67 78 -74 77 -163 192 -213 276 -16 26 -53 86 -81 133 -28 47 -102 171
-165 275 -62 105 -137 228 -168 274 -59 91 -137 181 -158 181 -7 0 -14 4 -16
9 -5 15 -541 339 -747 453 -31 17 -63 37 -72 44 -8 8 -19 14 -22 14 -4 0 -58
28 -119 63 -62 34 -140 76 -173 92 -33 17 -62 32 -65 36 -11 11 -378 198 -442
224 -32 13 -58 21 -58 18 0 -3 -7 0 -15 7 -8 7 -15 9 -15 6 0 -4 -10 -2 -22 5
-33 18 -205 19 -255 2z"/>
<path d="M26908 17985 c-2 -2 -15 -6 -28 -9 -65 -13 -79 -17 -130 -38 -77 -31
-369 -181 -580 -298 -41 -22 -83 -44 -92 -47 -10 -3 -18 -9 -18 -14 0 -5 -5
-9 -11 -9 -25 0 -830 -473 -837 -492 -2 -4 -8 -8 -13 -8 -17 0 -161 -100 -183
-127 -22 -28 -133 -194 -177 -265 -74 -121 -279 -468 -279 -473 0 -3 -5 -11
-11 -18 -5 -7 -38 -54 -71 -105 -34 -52 -103 -139 -154 -195 -51 -56 -91 -103
-89 -105 2 -2 71 19 153 46 83 28 165 53 183 56 19 3 45 8 59 11 56 12 174 7
232 -11 9 -3 26 -7 37 -9 12 -3 30 -7 41 -10 241 -60 312 -63 460 -19 75 22
235 101 397 195 75 44 137 79 138 79 6 0 202 118 300 180 388 247 690 531 883
830 60 92 123 221 143 291 7 24 14 49 15 54 19 65 25 239 10 299 -21 85 -100
172 -182 199 -39 13 -186 22 -196 12z"/>
<path d="M1155 17740 c-34 -13 -73 -63 -91 -115 -14 -39 -18 -83 -18 -200 -1
-134 8 -275 19 -308 2 -7 6 -30 9 -52 32 -227 81 -344 211 -496 152 -178 468
-376 662 -413 10 -2 36 -9 58 -15 22 -5 54 -13 70 -15 17 -3 41 -8 55 -11 115
-23 271 -23 380 0 14 3 40 8 59 11 18 3 43 8 55 10 107 23 399 22 517 -1 13
-3 40 -7 59 -10 19 -3 45 -7 56 -9 12 -2 39 -7 60 -10 22 -4 46 -8 54 -11 8
-2 31 -6 50 -9 19 -3 46 -8 60 -11 14 -3 37 -7 53 -10 15 -3 59 -12 98 -20 39
-8 73 -15 75 -15 11 0 -27 30 -166 130 -155 111 -310 233 -400 315 -167 151
-421 433 -452 501 -6 13 -15 24 -20 24 -4 0 -8 6 -8 13 0 7 -32 62 -72 122
-95 147 -227 280 -321 324 -37 18 -76 34 -87 36 -11 2 -24 6 -29 10 -30 18
-535 153 -676 180 -52 11 -53 11 -105 25 -25 7 -53 14 -62 15 -10 2 -22 6 -27
10 -16 9 -105 13 -126 5z"/>
<path d="M28605 17709 c-150 -39 -171 -44 -221 -54 -15 -3 -79 -20 -143 -36
-64 -17 -124 -33 -133 -35 -10 -2 -26 -6 -35 -8 -10 -2 -43 -11 -73 -20 -30
-9 -58 -16 -62 -17 -25 -2 -208 -73 -241 -92 -56 -34 -155 -123 -207 -187 -24
-30 -82 -115 -129 -190 -46 -74 -118 -178 -160 -230 -139 -175 -413 -432 -626
-590 -33 -24 -61 -47 -63 -52 -2 -4 -8 -8 -13 -8 -8 0 -129 -86 -199 -141 -21
-17 -22 -19 -5 -15 11 3 35 8 53 11 49 8 84 14 112 20 14 3 41 8 60 11 19 3
51 9 70 14 32 8 79 17 135 25 67 10 104 16 125 20 124 24 397 24 520 0 13 -3
42 -7 64 -11 22 -3 44 -8 47 -10 34 -20 278 -20 379 1 14 3 36 7 50 10 52 10
67 13 125 29 33 9 67 18 75 20 33 9 137 50 165 67 17 10 48 27 70 39 76 41
230 158 299 225 155 153 228 291 261 490 3 17 7 41 10 55 3 14 8 48 11 75 3
28 8 61 10 75 3 14 7 96 9 182 5 191 -12 269 -67 325 -50 49 -91 50 -273 2z"/>
<path d="M2760 15926 c-68 -15 -141 -51 -176 -87 -56 -59 -72 -170 -43 -307
13 -63 13 -65 22 -79 5 -7 6 -13 3 -13 -3 0 3 -21 13 -47 38 -97 65 -153 73
-153 4 0 8 -5 8 -12 0 -17 76 -131 138 -208 151 -186 427 -426 712 -620 8 -5
47 -32 87 -59 264 -180 599 -362 683 -371 3 0 25 -7 50 -14 52 -16 138 -13
177 6 32 15 81 78 163 209 61 98 106 146 182 196 24 15 45 30 48 34 8 9 158
70 214 86 49 15 79 22 121 28 11 1 40 6 65 9 40 6 79 13 88 15 1 1 -21 22 -50
47 -281 247 -438 431 -525 614 -19 41 -48 103 -65 137 -17 38 -43 73 -66 91
-46 36 -225 132 -246 132 -9 0 -16 4 -16 8 0 5 -6 9 -12 10 -7 0 -44 12 -83
25 -66 24 -236 77 -259 81 -6 1 -69 21 -141 43 -132 42 -265 82 -294 88 -9 2
-61 15 -116 29 -55 15 -113 28 -130 31 -16 3 -37 8 -45 10 -8 2 -28 7 -45 10
-16 2 -41 7 -55 10 -14 3 -45 8 -70 11 -25 3 -56 8 -70 10 -57 11 -288 11
-340 0z"/>
<path d="M26968 15935 c-1 -1 -35 -6 -75 -9 -40 -4 -78 -8 -85 -11 -7 -2 -29
-6 -48 -9 -19 -3 -46 -8 -60 -11 -14 -3 -41 -8 -60 -11 -19 -3 -53 -10 -75
-16 -22 -7 -42 -12 -45 -13 -3 -1 -41 -9 -85 -19 -44 -10 -87 -22 -96 -27 -9
-4 -31 -11 -49 -14 -18 -3 -42 -11 -54 -17 -11 -6 -22 -11 -23 -10 -2 1 -4 2
-5 1 -2 0 -10 -2 -18 -4 -9 -1 -67 -19 -130 -40 -63 -20 -122 -38 -130 -40
-251 -64 -494 -163 -611 -249 -46 -34 -52 -44 -130 -211 -40 -86 -90 -167
-158 -255 -72 -93 -258 -282 -364 -370 -36 -30 -66 -57 -66 -60 -1 -3 7 -6 17
-6 18 -1 97 -13 190 -29 51 -8 181 -54 240 -84 32 -16 90 -53 129 -82 57 -43
82 -71 134 -153 35 -55 66 -104 68 -109 14 -37 104 -123 135 -129 29 -6 109
-2 146 7 14 3 32 8 40 10 8 2 15 4 15 5 0 1 11 4 24 6 48 9 392 185 399 205 2
5 8 9 14 9 13 0 153 90 314 203 69 48 129 87 134 87 5 0 10 4 12 8 2 4 21 21
43 37 22 17 46 35 55 42 209 166 259 211 378 338 221 236 341 456 370 679 13
97 6 163 -23 212 -57 97 -149 134 -342 139 -66 2 -123 2 -125 0z"/>
<path d="M1907 15284 c-1 -1 -49 -5 -107 -9 -108 -7 -149 -10 -260 -19 -155
-13 -198 -17 -245 -22 -27 -3 -171 -7 -320 -8 -260 -1 -272 -2 -317 -24 -169
-83 -237 -292 -183 -562 9 -47 53 -148 83 -192 35 -51 139 -152 237 -230 86
-68 243 -178 255 -178 4 0 10 -4 12 -9 4 -11 224 -151 237 -151 5 0 11 -3 13
-8 8 -19 363 -213 487 -266 72 -31 134 -43 207 -42 64 1 74 4 120 38 147 111
225 156 331 191 60 19 124 38 143 41 19 3 44 8 56 10 22 5 110 16 159 22 83 8
208 14 385 19 201 5 392 13 445 20 93 10 172 18 189 17 33 -2 19 7 -154 100
-97 53 -138 76 -197 114 -29 19 -57 34 -62 34 -5 0 -11 4 -13 8 -1 4 -41 34
-87 67 -115 80 -279 216 -377 311 -91 89 -155 168 -268 332 -98 142 -186 253
-248 314 -46 45 -83 62 -158 75 -26 4 -359 11 -363 7z"/>
<path d="M27731 15278 c-80 -12 -134 -40 -192 -100 -55 -56 -180 -220 -270
-353 -29 -44 -56 -82 -59 -85 -3 -3 -25 -30 -50 -60 -75 -92 -82 -99 -191
-196 -114 -101 -264 -219 -356 -280 -32 -21 -60 -40 -63 -43 -3 -3 -21 -15
-41 -26 -20 -11 -81 -45 -135 -76 -55 -31 -126 -71 -159 -89 -68 -37 -81 -46
-63 -47 14 -1 146 -13 193 -19 57 -6 231 -14 435 -19 195 -5 312 -10 390 -19
127 -14 155 -18 160 -21 3 -2 25 -6 49 -10 58 -8 162 -41 236 -73 57 -25 144
-80 249 -159 43 -32 57 -37 110 -39 105 -4 144 7 316 89 95 45 334 179 338
189 2 4 9 8 15 8 24 0 385 239 527 349 240 186 329 310 356 499 47 320 -102
543 -356 532 -179 -9 -392 -3 -590 15 -19 1 -70 6 -113 9 -43 4 -95 9 -115 11
-183 18 -532 26 -621 13z"/>
<path d="M4109 13736 c-2 -2 -29 -7 -59 -10 -30 -3 -66 -8 -80 -11 -13 -3 -42
-7 -65 -10 -22 -3 -48 -8 -58 -11 -10 -3 -30 -7 -45 -9 -35 -5 -81 -13 -112
-21 -14 -4 -180 -7 -370 -9 -308 -2 -493 -9 -562 -20 -13 -2 -39 -6 -58 -9
-32 -5 -47 -8 -105 -20 -11 -2 -48 -14 -83 -25 -160 -54 -249 -158 -260 -301
-10 -148 82 -255 323 -375 164 -81 563 -217 735 -250 12 -2 29 -6 38 -9 9 -3
33 -7 52 -10 19 -3 46 -8 60 -11 14 -3 45 -8 70 -11 25 -3 52 -7 60 -9 61 -16
393 -24 490 -12 57 7 111 17 130 24 8 3 21 7 27 9 15 3 69 33 163 91 36 22
103 57 150 78 47 21 104 46 127 56 72 32 229 89 288 105 17 4 32 8 35 9 3 1
20 6 38 10 38 9 36 12 -38 51 -107 55 -216 133 -288 205 -69 70 -74 79 -122
204 -85 218 -99 243 -150 273 -42 25 -54 27 -186 29 -77 2 -143 1 -145 -1z"/>
<path d="M25595 13726 c-88 -28 -99 -43 -169 -231 -60 -160 -80 -196 -142
-259 -77 -77 -153 -133 -269 -197 -52 -29 -93 -54 -91 -56 2 -2 12 -6 22 -8
11 -2 37 -9 59 -15 22 -6 45 -12 50 -13 6 -2 35 -12 65 -22 30 -11 57 -20 60
-20 3 -1 17 -7 32 -13 15 -6 67 -28 115 -47 119 -50 259 -119 297 -148 57 -44
131 -76 211 -93 117 -24 443 -23 567 2 13 2 43 7 68 9 25 3 52 8 60 10 8 2 29
7 45 9 25 5 214 47 267 60 51 13 365 120 376 129 6 5 12 7 12 4 0 -4 35 9 78
27 247 106 372 202 418 322 22 57 15 155 -15 217 -59 122 -182 191 -411 232
-114 20 -254 27 -625 30 -192 1 -361 5 -375 9 -14 3 -41 9 -60 12 -19 4 -44 8
-55 11 -11 2 -35 6 -54 9 -18 3 -43 8 -55 10 -11 2 -39 7 -61 9 -22 3 -67 9
-100 14 -93 13 -275 12 -320 -3z"/>
<path d="M2057 12844 c-1 -1 -29 -5 -62 -9 -32 -3 -62 -8 -66 -11 -4 -2 -24
-6 -45 -10 -22 -3 -47 -10 -56 -15 -10 -5 -18 -7 -18 -3 0 3 -7 1 -15 -6 -8
-7 -15 -10 -15 -7 0 10 -119 -41 -195 -82 -202 -111 -481 -332 -626 -497 -58
-64 -107 -137 -134 -197 -35 -76 -38 -91 -39 -177 0 -60 4 -86 25 -130 51
-109 176 -207 363 -284 36 -15 197 -61 249 -72 63 -12 137 -24 192 -31 66 -8
465 -11 490 -4 12 3 60 40 106 83 267 243 545 436 864 598 151 77 281 138 310
146 6 1 62 22 125 46 63 25 141 53 173 63 31 11 57 22 57 26 0 5 -93 32 -160
45 -28 6 -127 32 -265 70 -89 25 -222 68 -260 84 -11 5 -49 21 -85 36 -106 43
-219 104 -315 169 -78 54 -186 112 -219 120 -6 1 -18 5 -26 8 -24 10 -98 28
-138 33 -37 6 -210 12 -215 8z"/>
<path d="M27745 12839 c-45 -6 -94 -16 -120 -23 -108 -30 -181 -66 -314 -156
-102 -68 -205 -122 -321 -168 -85 -33 -107 -41 -118 -43 -4 -1 -23 -7 -42 -15
-56 -21 -200 -62 -405 -113 l-189 -48 59 -23 c33 -12 96 -35 140 -50 78 -28
160 -60 247 -96 89 -38 356 -175 446 -229 226 -135 501 -340 666 -495 37 -36
78 -68 91 -71 27 -8 440 -3 499 5 22 3 55 8 75 11 20 4 45 8 56 10 175 27 348
89 475 170 112 72 171 138 201 227 61 181 -45 387 -331 643 -100 89 -339 265
-360 265 -5 0 -10 4 -10 8 0 8 -179 101 -235 123 -59 23 -193 56 -260 65 -75
9 -194 11 -250 3z"/>
<path d="M4150 12153 c-71 -17 -85 -21 -85 -23 0 -1 -9 -3 -20 -5 -11 -2 -81
-26 -155 -54 -74 -27 -191 -70 -260 -95 -69 -25 -134 -50 -145 -55 -11 -5 -36
-15 -55 -22 -19 -7 -57 -22 -85 -35 -27 -12 -79 -34 -115 -50 -465 -201 -885
-517 -1006 -756 -13 -26 -22 -48 -19 -48 3 0 1 -9 -5 -19 -28 -53 -14 -166 30
-237 52 -83 231 -185 388 -219 12 -3 32 -7 45 -10 12 -3 33 -7 47 -10 14 -3
34 -7 45 -9 22 -4 100 -15 160 -21 194 -22 684 -22 900 -1 22 3 74 8 115 11
41 4 86 8 100 10 14 1 50 5 80 9 30 3 64 8 76 10 12 2 45 7 75 11 51 5 69 8
129 20 14 3 40 8 59 11 18 3 43 8 55 10 11 2 37 7 56 10 19 3 53 10 75 16 40
10 57 14 105 23 39 7 247 61 330 85 41 12 82 23 90 25 8 2 17 4 20 5 3 1 8 2
13 1 10 -1 9 8 -7 55 -15 41 -29 135 -29 189 -1 32 18 170 23 170 1 0 3 7 5
15 1 9 17 50 34 92 41 97 129 231 220 332 39 43 70 80 69 82 -2 1 -66 5 -143
9 -77 3 -151 7 -165 9 -14 2 -48 7 -75 10 -28 4 -58 9 -67 12 -9 3 -25 6 -35
8 -10 2 -38 9 -63 16 -25 7 -49 13 -55 15 -5 1 -17 5 -25 8 -8 3 -37 13 -65
23 -119 43 -184 83 -276 171 -51 48 -100 96 -108 106 -9 10 -40 36 -68 59 -44
34 -61 40 -105 42 -29 2 -78 -3 -108 -11z"/>
<path d="M25680 12158 c-27 -10 -67 -45 -212 -184 -107 -103 -156 -136 -278
-181 -57 -22 -85 -31 -98 -34 -4 -1 -18 -6 -32 -11 -35 -13 -193 -45 -265 -54
-55 -6 -141 -10 -269 -13 l-49 -1 37 -42 c157 -182 230 -295 277 -428 51 -144
55 -272 14 -408 -9 -30 -15 -56 -13 -57 2 -2 15 -6 28 -9 14 -2 49 -12 79 -21
30 -9 62 -18 70 -20 9 -2 72 -18 141 -35 69 -18 132 -33 140 -35 8 -2 35 -8
60 -14 49 -11 107 -22 130 -26 8 -1 29 -5 45 -8 17 -4 44 -9 60 -12 17 -3 41
-7 55 -10 13 -2 42 -7 65 -10 22 -4 51 -8 65 -10 14 -2 45 -7 70 -10 25 -3 65
-8 90 -11 25 -4 56 -8 70 -9 214 -22 220 -22 420 -31 240 -11 605 -6 690 10
14 3 48 7 75 10 28 3 64 8 80 11 244 46 388 104 488 195 50 45 88 128 90 194
2 128 -54 228 -220 394 -86 85 -270 232 -332 263 -14 8 -28 17 -31 20 -21 24
-489 269 -515 269 -4 0 -21 7 -38 14 -67 31 -212 88 -359 142 -296 108 -373
135 -418 145 -25 6 -54 13 -65 15 -38 10 -122 11 -145 2z"/>
<path d="M5225 10502 c-82 -14 -334 -115 -355 -141 -3 -3 -30 -19 -60 -35 -52
-28 -174 -109 -355 -234 -558 -388 -856 -722 -912 -1022 -16 -88 0 -207 40
-285 23 -46 94 -118 140 -141 121 -64 326 -71 545 -19 12 3 30 7 40 9 67 15
125 32 177 52 11 4 22 8 25 9 27 6 117 40 285 105 110 43 270 103 355 133 85
31 169 61 185 68 17 7 35 13 40 14 37 9 323 128 430 181 157 76 248 138 286
194 26 39 28 47 24 123 -2 45 -6 93 -8 107 -22 124 -26 204 -13 265 20 98 73
249 128 360 16 33 36 74 43 92 15 36 25 35 -90 8 -110 -26 -123 -28 -250 -29
-187 -1 -229 9 -368 92 -155 91 -186 104 -255 101 -31 -2 -66 -5 -77 -7z"/>
<path d="M24540 10469 c-41 -22 -103 -58 -137 -80 -34 -21 -68 -39 -76 -39 -7
0 -18 -5 -25 -12 -7 -7 -12 -9 -12 -6 0 3 -28 0 -62 -8 -62 -12 -266 -13 -318
0 -14 3 -37 8 -53 11 -15 3 -53 12 -84 20 -31 8 -58 13 -61 11 -2 -2 8 -25 22
-50 56 -101 148 -340 163 -426 12 -66 7 -172 -12 -260 -12 -53 -13 -196 -1
-217 46 -84 155 -154 439 -282 38 -17 72 -31 76 -31 4 0 26 -9 49 -20 22 -11
45 -20 50 -20 5 0 30 -9 55 -20 48 -21 168 -66 352 -129 61 -22 198 -74 305
-116 188 -74 318 -121 369 -131 13 -3 32 -9 43 -15 10 -5 18 -7 18 -4 0 3 8 1
18 -4 9 -5 35 -12 57 -15 22 -4 47 -8 55 -11 46 -13 88 -18 210 -21 76 -2 152
1 175 7 144 38 252 139 282 262 25 109 24 159 -6 277 -19 73 -87 200 -159 296
-82 111 -274 303 -412 412 -58 46 -114 91 -124 99 -11 9 -53 40 -95 69 -42 30
-80 57 -86 62 -5 4 -60 42 -121 84 -345 237 -559 338 -734 344 -83 3 -87 2
-160 -37z"/>
<path d="M2296 10308 c-76 -202 -174 -359 -322 -523 -55 -60 -111 -126 -126
-145 -26 -35 -88 -150 -92 -173 -2 -7 -6 -19 -9 -27 -44 -112 -58 -254 -31
-319 20 -49 70 -98 124 -124 38 -18 64 -21 170 -22 113 0 178 5 250 20 14 3
34 7 45 9 11 2 58 14 105 26 47 12 96 24 109 27 14 2 28 6 33 9 4 3 18 7 29 9
26 5 46 11 199 60 111 36 126 40 179 51 14 3 28 7 33 10 4 3 17 7 28 10 11 2
28 6 38 8 9 2 40 10 67 16 28 6 58 14 68 16 9 2 27 6 39 9 40 9 123 37 173 60
84 38 151 98 212 193 201 312 253 382 377 510 50 51 137 130 195 175 162 128
155 120 96 113 -27 -3 -61 -8 -75 -11 -14 -3 -48 -8 -76 -10 -28 -3 -62 -8
-75 -10 -13 -3 -53 -7 -89 -11 -36 -3 -76 -7 -89 -9 -136 -23 -617 -23 -831 0
-19 2 -62 6 -95 9 -33 3 -69 8 -80 10 -11 2 -42 7 -70 10 -61 8 -102 15 -135
21 -14 3 -36 7 -50 10 -14 3 -38 8 -55 11 -16 4 -39 8 -50 10 -11 2 -30 5 -42
8 -13 4 -31 8 -42 10 -10 2 -36 9 -57 15 -22 6 -42 11 -45 11 -3 0 -18 -33
-33 -72z"/>
<path d="M27555 10354 c-55 -13 -113 -26 -130 -28 -16 -3 -41 -8 -55 -11 -48
-10 -116 -22 -185 -31 -27 -3 -59 -8 -70 -10 -11 -2 -49 -7 -85 -10 -36 -3
-78 -7 -95 -10 -176 -23 -577 -22 -830 1 -76 7 -152 16 -171 19 -12 2 -45 7
-74 11 -29 4 -62 8 -73 11 -61 11 -131 15 -122 6 6 -5 66 -55 135 -109 69 -55
161 -138 206 -184 109 -114 172 -199 347 -471 53 -81 91 -129 129 -159 50 -40
138 -87 176 -94 9 -2 18 -4 20 -5 1 -2 5 -3 10 -4 4 -2 27 -8 52 -15 25 -7 53
-15 62 -17 10 -2 26 -6 36 -8 9 -2 40 -10 67 -16 120 -28 138 -33 165 -42 16
-6 159 -50 175 -54 6 -2 57 -17 115 -34 157 -48 236 -68 330 -86 47 -9 94 -18
105 -21 11 -3 79 -7 150 -8 152 -4 214 11 272 66 56 54 73 100 69 194 -2 44
-7 93 -10 109 -13 57 -78 210 -110 260 -36 55 -43 64 -145 176 -121 132 -173
205 -244 342 -38 73 -56 115 -99 231 -6 15 -13 27 -17 26 -3 0 -51 -11 -106
-25z"/>
<path d="M22642 9584 c3 -5 12 -25 21 -44 8 -19 29 -65 45 -101 27 -60 34 -81
47 -149 15 -77 24 -234 30 -519 4 -198 7 -228 24 -265 74 -151 448 -490 826
-749 290 -198 502 -295 647 -295 69 0 110 16 146 56 90 102 30 366 -177 782
-9 17 -85 158 -114 210 -48 86 -72 125 -79 128 -4 2 -8 8 -8 14 0 27 -200 311
-287 408 -89 100 -146 121 -358 135 -113 8 -150 15 -215 41 -50 20 -163 82
-225 122 -47 32 -188 133 -195 141 -11 13 -133 94 -128 85z"/>
<path d="M7205 9489 c-66 -49 -128 -96 -138 -104 -9 -8 -19 -15 -22 -15 -2 0
-35 -19 -72 -43 -152 -97 -227 -122 -403 -133 -47 -2 -94 -6 -105 -8 -75 -14
-96 -19 -101 -27 -3 -5 -9 -7 -13 -5 -15 10 -109 -73 -174 -154 -58 -72 -160
-219 -243 -350 -89 -141 -237 -425 -300 -578 -37 -87 -95 -252 -89 -252 2 0
-3 -23 -10 -51 -8 -28 -13 -83 -12 -123 2 -60 7 -80 29 -113 91 -138 344 -77
728 174 398 261 824 639 900 800 19 40 21 66 25 260 9 479 22 567 107 736 10
20 15 37 11 37 -4 0 -2 5 5 12 13 13 16 28 5 27 -5 0 -62 -41 -128 -90z"/>
<path d="M8610 9273 c-213 -238 -496 -475 -826 -689 -305 -199 -389 -257 -614
-425 -129 -96 -323 -238 -430 -315 -107 -76 -196 -142 -198 -146 -2 -5 -8 -8
-12 -8 -5 0 -58 -33 -117 -73 -281 -190 -563 -349 -748 -422 -89 -35 -171 -93
-262 -186 -164 -169 -281 -348 -318 -489 -19 -70 -16 -170 5 -217 28 -64 83
-117 152 -149 56 -25 75 -29 178 -30 109 -3 174 6 280 36 25 8 50 14 55 16 6
1 35 12 65 23 30 11 75 27 100 36 65 23 349 164 460 227 245 140 524 327 675
450 164 135 577 565 800 833 336 404 654 908 834 1325 13 30 41 92 62 137 l37
81 -32 29 c-62 58 -54 60 -146 -44z"/>
<path d="M21248 9328 l-46 -43 36 -76 c20 -42 45 -96 56 -120 10 -24 53 -116
96 -205 221 -455 529 -903 933 -1359 111 -125 480 -498 568 -575 152 -132 447
-332 711 -483 149 -85 459 -236 498 -243 3 0 14 -4 25 -9 11 -4 35 -14 54 -22
29 -11 124 -38 171 -48 8 -2 34 -8 57 -13 45 -10 253 -10 292 1 75 20 161 90
198 160 24 48 26 162 3 242 -67 235 -359 574 -565 656 -98 39 -322 153 -438
223 -60 36 -111 66 -113 66 -3 0 -10 5 -17 10 -7 6 -88 61 -182 123 -229 152
-359 245 -909 651 -116 85 -221 161 -235 168 -14 7 -30 17 -36 21 -5 4 -91 60
-190 125 -99 64 -182 119 -185 122 -3 3 -57 44 -120 92 -193 144 -405 339
-556 511 l-60 67 -46 -42z"/>
<path d="M5759 8967 c-124 -61 -247 -119 -360 -171 -31 -14 -61 -26 -67 -26
-7 0 -12 -4 -12 -10 0 -5 -8 -10 -18 -10 -10 0 -22 -4 -28 -8 -5 -5 -40 -21
-79 -37 -38 -15 -88 -36 -110 -45 -22 -9 -65 -26 -95 -37 -30 -12 -75 -29
-100 -38 -54 -21 -137 -49 -245 -82 -77 -25 -91 -25 -390 -28 -362 -2 -403 -7
-580 -62 -134 -42 -455 -222 -562 -315 -107 -93 -177 -183 -237 -307 -43 -89
-64 -148 -82 -238 -12 -65 -14 -84 -15 -153 -1 -232 117 -383 325 -418 83 -13
304 -7 456 13 19 2 57 7 84 11 27 3 57 7 66 9 9 2 41 6 70 10 29 4 61 8 70 10
9 2 41 6 70 10 29 4 60 8 69 10 9 1 36 6 61 10 25 4 52 9 60 10 8 2 35 6 60 9
25 4 52 8 60 10 8 1 38 7 65 11 28 5 52 10 55 10 3 1 23 5 45 9 22 5 76 17
120 28 44 10 87 21 95 22 38 9 136 39 145 44 6 4 16 7 24 8 25 4 181 83 229
116 181 124 264 251 308 473 2 11 15 67 30 125 14 58 28 114 30 125 3 11 6 25
8 30 32 133 211 465 428 793 49 72 88 134 88 137 0 10 -16 3 -141 -58z"/>
<path d="M24085 9022 c6 -4 31 -38 56 -77 25 -38 71 -109 102 -156 32 -47 57
-91 57 -97 0 -6 4 -12 8 -14 9 -3 38 -52 90 -148 20 -36 38 -67 41 -70 3 -3
36 -66 73 -140 60 -119 108 -253 124 -343 2 -17 7 -33 9 -37 2 -4 7 -22 10
-41 3 -19 15 -67 26 -108 12 -41 23 -85 25 -99 3 -13 12 -38 20 -53 8 -16 12
-29 9 -29 -14 0 61 -103 112 -154 100 -101 254 -195 378 -232 6 -2 29 -10 52
-18 38 -14 162 -48 222 -61 81 -18 133 -28 206 -41 48 -8 152 -25 175 -29 14
-2 43 -7 65 -10 22 -4 52 -8 66 -11 15 -2 44 -6 65 -9 22 -3 48 -7 60 -9 12
-2 45 -7 74 -11 29 -4 60 -8 69 -10 9 -2 41 -6 71 -10 30 -3 69 -8 85 -10 155
-20 387 -26 450 -13 17 4 40 9 51 12 132 29 240 147 269 293 11 55 6 212 -8
258 -3 11 -9 35 -12 53 -11 67 -105 282 -126 290 -5 2 -9 8 -9 14 0 9 -20 37
-75 106 -22 27 -164 141 -237 190 -125 84 -366 204 -437 218 -13 3 -31 9 -40
14 -9 4 -43 13 -76 19 -33 6 -76 13 -95 17 -19 4 -168 8 -330 9 -275 2 -369 7
-391 21 -5 3 -17 7 -26 9 -10 2 -72 22 -138 45 -66 22 -124 42 -130 44 -5 2
-23 9 -40 15 -16 7 -34 14 -40 15 -13 4 -63 23 -90 36 -11 5 -69 30 -130 56
-144 61 -265 117 -528 243 -81 39 -153 71 -160 71 -8 0 -8 -3 -2 -8z"/>
<path d="M12629 7467 c-3 -7 -169 -670 -173 -694 -3 -15 0 -23 10 -23 22 0 21
0 64 -15 22 -8 40 -12 40 -10 0 3 11 0 25 -5 14 -5 36 -12 48 -14 21 -5 42
-10 87 -21 11 -3 29 -7 40 -10 60 -15 59 -16 71 28 6 23 13 52 15 64 2 12 9
34 14 48 5 14 7 25 5 25 -2 0 0 11 5 26 6 14 12 38 15 54 9 50 25 82 38 77 7
-2 62 -17 122 -33 l111 -28 -58 -225 c-31 -124 -57 -229 -58 -232 0 -5 -99
-31 -115 -30 -2 0 -23 -6 -45 -14 -22 -8 -40 -12 -40 -10 0 3 -11 0 -26 -5
-14 -6 -37 -12 -52 -15 -15 -3 -119 -29 -231 -58 l-205 -52 -23 -90 c-12 -49
-25 -103 -28 -119 -3 -16 -8 -32 -10 -36 -2 -3 -6 -17 -9 -31 -2 -13 -14 -60
-25 -105 -12 -45 -23 -90 -25 -100 -2 -10 -12 -48 -21 -84 -9 -36 -19 -73 -21
-82 -4 -16 -11 -45 -18 -73 -1 -5 -5 -19 -9 -30 -3 -11 -8 -31 -11 -45 -10
-52 -15 -70 -21 -80 -7 -11 28 -27 75 -35 16 -3 40 -9 54 -15 15 -5 26 -7 26
-5 0 2 11 0 26 -5 14 -6 37 -12 52 -15 15 -3 204 -50 420 -104 216 -54 394
-96 396 -92 4 6 30 105 40 151 17 79 24 107 29 120 4 8 9 26 11 40 3 14 12 54
21 90 9 36 18 73 21 83 2 9 6 25 9 35 2 9 9 37 16 62 6 25 13 54 16 65 16 65
18 61 -34 75 -46 11 -61 15 -100 24 -10 2 -47 12 -83 21 -36 9 -72 18 -80 20
-8 2 -27 6 -42 10 -16 4 -28 4 -28 0 0 -3 -11 -50 -25 -104 -14 -54 -28 -108
-30 -120 -3 -11 -7 -30 -10 -41 -3 -11 -7 -30 -10 -41 -2 -12 -6 -23 -7 -24
-2 -2 -58 11 -125 28 -85 20 -123 34 -123 44 0 8 14 69 31 136 29 115 36 145
38 157 1 4 29 12 64 20 34 7 67 14 72 16 6 2 138 35 294 74 157 39 286 72 288
74 2 2 6 13 8 25 3 11 7 30 10 41 3 11 7 29 10 40 3 11 7 28 10 38 2 9 14 55
25 102 11 47 23 93 25 103 9 31 28 108 51 202 4 17 8 35 10 40 2 6 17 66 33
135 17 69 41 167 54 218 23 91 22 103 -8 108 -5 1 -57 14 -115 29 -58 15 -113
29 -122 31 -10 2 -27 6 -38 9 -11 3 -28 7 -37 9 -10 2 -164 41 -343 85 -371
92 -360 90 -361 88z"/>
<path d="M17210 7409 c-193 -48 -213 -53 -258 -63 -13 -3 -32 -8 -42 -11 -10
-3 -27 -7 -37 -9 -10 -2 -67 -16 -128 -31 -60 -15 -119 -29 -130 -31 -11 -3
-24 -6 -30 -8 -5 -1 -54 -13 -108 -26 -97 -23 -98 -23 -92 -49 9 -33 15 -59
21 -91 3 -14 16 -68 30 -121 14 -53 27 -106 29 -118 6 -26 5 -22 50 -206 20
-82 38 -157 40 -165 2 -8 11 -44 20 -80 9 -36 19 -73 21 -83 2 -10 6 -27 9
-37 3 -10 7 -27 9 -37 2 -10 9 -38 16 -63 7 -25 14 -56 16 -70 2 -14 7 -36 10
-50 3 -14 6 -26 5 -27 0 -2 5 -17 10 -35 10 -34 16 -55 23 -85 2 -10 14 -58
26 -108 12 -49 24 -98 26 -107 2 -10 6 -27 9 -38 3 -11 7 -29 10 -40 3 -11 7
-28 9 -37 2 -10 21 -85 41 -168 20 -82 39 -163 42 -178 9 -53 30 -102 44 -100
21 2 53 10 189 44 69 17 135 33 147 35 12 2 34 9 48 14 14 5 25 7 25 5 0 -2
12 0 27 6 14 5 38 12 52 14 14 2 46 9 71 15 25 7 53 14 63 16 38 9 58 14 222
54 94 23 176 42 183 43 7 0 10 7 8 16 -5 16 -45 184 -51 211 -4 15 -34 142
-41 170 -2 8 -11 44 -19 80 -9 36 -19 75 -21 87 -2 12 -9 34 -14 48 -5 14 -8
25 -5 25 2 0 -2 18 -10 40 -8 22 -12 40 -10 40 3 0 0 11 -5 26 -6 14 -12 39
-15 57 -3 18 -11 50 -17 72 -6 22 -12 47 -14 55 -1 8 -5 24 -8 35 -5 19 -30
123 -42 175 -3 14 -19 79 -35 145 -29 114 -34 131 -43 173 -2 9 -23 94 -46
187 -23 94 -43 177 -45 185 -2 8 -12 51 -24 95 -11 44 -22 92 -25 107 -6 35
-14 48 -29 47 -7 0 -100 -23 -207 -50z m-50 -466 c6 -27 14 -63 16 -82 3 -19
7 -38 10 -42 3 -5 7 -18 10 -29 2 -11 6 -30 10 -42 3 -13 7 -34 10 -48 3 -14
16 -68 30 -121 14 -53 26 -105 28 -115 3 -11 23 -94 46 -186 22 -91 43 -176
45 -188 2 -12 7 -30 10 -40 3 -10 8 -29 11 -42 3 -13 7 -32 9 -43 3 -11 20
-81 38 -155 19 -74 33 -137 31 -138 -1 -2 -20 -8 -41 -13 -21 -5 -45 -11 -53
-14 -15 -4 -132 -31 -177 -41 -17 -3 -24 1 -27 18 -3 13 -26 109 -52 213 -25
105 -48 198 -50 208 -2 9 -6 26 -9 37 -3 11 -7 28 -9 38 -2 9 -16 67 -31 127
-15 61 -29 118 -31 128 -2 9 -6 26 -9 37 -3 11 -7 28 -9 38 -7 31 -71 292 -81
332 -3 11 -7 29 -10 40 -3 11 -7 29 -10 41 -2 11 -7 29 -10 39 -6 20 4 30 38
35 12 2 32 6 45 9 50 13 68 17 97 23 17 2 36 8 42 12 7 4 26 8 42 9 26 2 30
-2 41 -45z"/>
<path d="M13999 7112 c-2 -58 -4 -101 -13 -222 -7 -98 -12 -175 -21 -320 -6
-108 -13 -216 -20 -305 -2 -38 -7 -110 -10 -160 -3 -49 -8 -119 -10 -155 -2
-36 -7 -108 -10 -160 -3 -52 -8 -122 -10 -155 -3 -33 -7 -103 -11 -155 -3 -52
-7 -120 -9 -150 -2 -30 -6 -102 -10 -159 -3 -58 -8 -108 -10 -111 -12 -19 20
-29 110 -35 55 -3 134 -8 175 -11 41 -2 111 -7 155 -9 44 -3 112 -7 150 -10
90 -7 173 -12 310 -20 61 -4 125 -8 143 -10 38 -3 44 4 48 59 1 23 5 86 8 141
4 55 9 132 11 170 3 39 7 106 10 151 2 44 7 112 10 150 2 38 7 107 10 154 3
47 7 121 10 165 7 113 15 229 20 305 3 36 7 101 10 145 13 214 22 359 30 480
4 44 8 108 10 143 l3 62 -31 1 c-62 2 -192 10 -382 24 -27 2 -95 6 -150 10
-109 6 -185 11 -315 20 -47 3 -113 8 -147 10 l-63 4 -1 -47z m541 -377 c30 -2
74 -4 98 -4 24 -1 41 -5 38 -9 -3 -5 -7 -53 -11 -108 -3 -54 -8 -128 -10 -164
-2 -36 -7 -110 -10 -165 -3 -55 -8 -127 -11 -160 -2 -33 -6 -96 -9 -140 -3
-44 -8 -118 -11 -165 -3 -47 -7 -114 -9 -150 -2 -36 -7 -110 -11 -165 -4 -55
-7 -107 -8 -116 0 -13 -10 -15 -61 -12 -127 9 -161 11 -202 12 l-42 1 4 63 c3
34 7 109 11 167 3 58 7 123 9 145 1 22 6 90 10 150 4 61 8 133 10 160 2 28 7
100 10 160 4 61 8 128 10 150 5 70 18 268 20 310 2 22 3 43 4 47 0 3 27 4 59
2 31 -3 82 -6 112 -9z"/>
<path d="M15937 7154 c-1 -2 -36 -5 -77 -8 -41 -4 -104 -9 -140 -13 -36 -3
-75 -6 -87 -6 -18 1 -42 -32 -49 -67 0 -3 -6 -18 -13 -35 -15 -34 -55 -138
-56 -145 -1 -3 -7 -18 -14 -35 -6 -16 -17 -43 -23 -60 -6 -16 -15 -35 -20 -42
-5 -6 -5 -14 0 -16 8 -6 115 -1 157 7 12 2 22 -1 22 -7 0 -15 12 -155 18 -217
3 -25 7 -72 10 -105 10 -119 15 -181 19 -220 3 -22 7 -76 11 -120 3 -44 8
-100 11 -125 2 -25 6 -72 9 -105 2 -33 7 -80 10 -105 2 -25 7 -83 10 -130 3
-47 8 -96 10 -110 2 -14 7 -61 10 -105 3 -44 7 -98 9 -120 16 -173 22 -235 25
-258 1 -4 13 -5 29 -3 15 3 59 7 97 10 39 3 102 9 140 12 39 4 82 7 96 7 24
-1 26 2 24 41 -3 40 -13 157 -20 226 -2 19 -6 70 -9 112 -6 76 -12 146 -21
238 -5 51 -12 134 -20 230 -3 36 -8 85 -10 110 -3 25 -8 72 -10 105 -6 78 -13
165 -20 240 -10 99 -14 146 -20 225 -3 41 -8 98 -11 125 -2 28 -7 75 -9 105
-10 118 -16 177 -21 235 -4 33 -7 76 -8 95 -2 31 -5 35 -29 35 -15 1 -29 0
-30 -1z"/>
<path d="M11381 6998 c-89 -212 -122 -301 -115 -307 5 -5 32 -17 59 -27 28
-10 59 -23 70 -30 11 -6 38 -17 60 -24 22 -7 45 -16 50 -20 6 -4 21 -11 35
-15 14 -4 43 -16 65 -26 22 -10 88 -38 147 -63 107 -45 128 -46 128 -6 0 9 4
20 9 26 6 7 71 162 118 281 3 7 -12 19 -34 28 -127 55 -420 177 -428 179 -5 1
-31 12 -57 23 -85 39 -83 39 -107 -19z"/>
<path d="M18682 7038 c-7 -7 -12 -9 -12 -6 0 4 -26 -5 -57 -19 -71 -31 -105
-45 -118 -49 -20 -6 -360 -149 -372 -157 -12 -7 -9 -18 32 -112 7 -16 32 -75
55 -130 23 -55 45 -104 49 -108 7 -7 87 22 226 83 22 9 67 27 100 40 33 13 65
26 70 30 6 4 28 13 50 20 22 7 49 18 60 25 11 6 37 17 57 24 21 7 40 16 43 21
5 7 -6 38 -43 120 -8 19 -16 37 -16 40 -1 3 -19 47 -40 98 -39 92 -56 108 -84
80z"/>
<path d="M6840 5540 c-61 -82 -110 -154 -108 -159 8 -25 455 -385 728 -588
434 -322 939 -648 1380 -890 30 -17 93 -52 140 -78 99 -55 625 -317 720 -359
36 -16 99 -45 140 -64 41 -19 80 -35 85 -36 6 -1 19 -7 30 -13 11 -6 56 -25
100 -43 44 -18 84 -37 90 -41 5 -5 15 -9 23 -9 7 0 32 -8 55 -19 23 -10 110
-44 192 -76 83 -31 159 -61 170 -66 11 -5 54 -20 95 -35 41 -14 113 -39 160
-55 126 -45 551 -178 584 -184 16 -3 36 -9 45 -14 15 -7 119 -38 159 -46 9 -2
62 -16 117 -30 55 -15 105 -28 110 -29 6 -1 19 -5 30 -9 11 -3 31 -8 45 -11
14 -2 45 -9 70 -16 25 -7 56 -14 70 -17 14 -2 43 -9 65 -15 22 -5 49 -12 60
-14 11 -2 31 -7 45 -10 14 -3 32 -7 40 -8 8 -2 29 -6 45 -9 17 -4 39 -9 50
-11 11 -2 54 -11 95 -20 41 -8 89 -17 105 -20 17 -3 41 -8 55 -11 14 -3 39 -8
55 -10 17 -3 41 -7 55 -10 14 -3 39 -7 55 -10 17 -3 41 -8 55 -10 14 -3 41 -7
60 -9 19 -3 50 -7 68 -10 33 -6 64 -11 117 -20 17 -3 53 -8 80 -11 28 -4 59
-8 70 -10 11 -2 43 -6 70 -9 28 -3 66 -8 85 -11 31 -4 87 -11 170 -20 14 -2
57 -6 95 -10 39 -3 81 -8 95 -10 14 -2 61 -7 105 -10 44 -3 100 -8 125 -10 40
-3 169 -12 320 -21 106 -6 556 -18 690 -18 135 0 567 12 690 19 130 7 292 19
415 29 39 4 95 9 125 11 81 7 216 22 280 30 19 3 58 7 86 10 28 3 61 8 75 10
13 3 48 8 78 11 30 3 64 8 75 10 12 3 39 7 61 9 22 3 51 7 65 10 30 6 73 13
126 20 50 8 83 13 114 19 13 3 40 8 60 11 20 3 47 8 60 10 14 3 36 7 50 10 14
3 36 7 50 10 14 3 39 8 55 11 17 3 64 12 105 21 41 8 84 17 95 19 52 10 68 14
83 18 9 3 28 7 42 10 14 2 43 9 65 14 22 6 51 13 65 15 14 3 45 10 70 17 43
12 54 14 101 25 11 2 29 7 39 10 10 3 28 8 39 10 12 3 31 7 44 11 12 3 31 7
42 9 11 3 83 23 160 45 77 22 149 43 160 45 11 3 51 15 90 27 38 12 72 22 75
23 3 0 52 16 110 35 58 19 107 34 110 35 3 1 19 5 35 10 17 4 35 10 40 14 6 3
15 6 20 8 69 15 671 241 823 309 29 13 55 24 57 24 3 0 24 9 48 19 23 11 83
37 132 59 182 79 246 110 545 259 288 143 546 282 696 373 36 22 67 40 69 40
2 0 52 30 112 66 423 259 735 471 1093 742 248 188 619 490 628 512 1 3 -48
74 -110 157 l-113 150 -75 -64 c-104 -90 -390 -320 -540 -434 -228 -174 -678
-489 -699 -489 -6 0 -14 -6 -18 -13 -4 -8 -15 -17 -23 -20 -8 -4 -42 -25 -75
-46 -33 -22 -114 -72 -180 -112 -66 -40 -121 -76 -123 -81 -2 -4 -10 -8 -17
-8 -8 0 -20 -6 -27 -12 -8 -7 -29 -21 -48 -32 -19 -10 -51 -28 -70 -39 -70
-40 -277 -155 -355 -197 -152 -83 -583 -295 -740 -365 -16 -7 -57 -26 -90 -41
-33 -15 -64 -28 -70 -30 -9 -2 -213 -88 -270 -114 -36 -16 -248 -98 -350 -135
-55 -20 -122 -45 -149 -56 -27 -10 -52 -19 -57 -19 -4 0 -20 -5 -36 -12 -15
-6 -30 -12 -33 -13 -3 -1 -25 -7 -50 -14 -25 -7 -49 -16 -55 -19 -5 -4 -14 -7
-20 -8 -5 -1 -50 -15 -100 -32 -70 -23 -207 -67 -245 -77 -3 -1 -25 -7 -50
-14 -25 -6 -52 -15 -60 -18 -8 -3 -19 -7 -25 -8 -5 -2 -35 -10 -65 -18 -85
-24 -213 -58 -230 -63 -8 -2 -51 -12 -94 -24 -44 -11 -89 -22 -100 -25 -12 -2
-30 -6 -41 -9 -11 -2 -42 -10 -70 -16 -27 -6 -59 -14 -70 -16 -11 -3 -31 -7
-45 -10 -14 -3 -33 -7 -42 -10 -10 -3 -30 -7 -45 -10 -24 -4 -42 -8 -93 -19
-54 -12 -70 -15 -95 -20 -16 -3 -41 -7 -55 -10 -14 -3 -41 -8 -60 -11 -19 -3
-43 -7 -53 -10 -10 -3 -31 -7 -47 -10 -47 -7 -83 -13 -110 -18 -24 -6 -80 -15
-130 -21 -14 -2 -38 -6 -55 -9 -16 -3 -50 -8 -75 -11 -25 -4 -54 -8 -65 -10
-11 -2 -40 -6 -65 -9 -25 -4 -63 -9 -85 -12 -22 -3 -51 -7 -65 -9 -22 -3 -50
-6 -180 -20 -14 -1 -50 -5 -80 -9 -30 -3 -82 -8 -115 -11 -33 -3 -80 -8 -105
-10 -25 -3 -88 -8 -140 -11 -52 -4 -113 -8 -135 -9 -170 -13 -420 -19 -775
-20 -423 0 -627 7 -924 30 -210 16 -303 24 -336 30 -14 2 -56 7 -95 10 -116
11 -221 23 -256 30 -20 4 -61 10 -149 20 -14 2 -38 5 -55 8 -16 3 -50 9 -75
12 -25 3 -52 8 -60 10 -8 2 -39 7 -69 10 -30 3 -57 8 -60 10 -4 2 -25 6 -47 9
-22 4 -49 8 -59 10 -11 2 -40 7 -65 12 -25 4 -47 8 -50 9 -18 4 -97 20 -105
20 -5 1 -23 4 -40 8 -29 7 -51 12 -105 22 -14 3 -36 7 -50 11 -36 8 -111 25
-140 30 -14 3 -33 7 -42 10 -9 3 -26 7 -37 9 -12 3 -31 7 -43 11 -13 3 -34 7
-48 10 -14 3 -59 14 -100 26 -41 11 -83 21 -93 23 -9 2 -67 18 -127 35 -60 17
-118 33 -127 35 -10 2 -72 20 -138 40 -66 20 -140 42 -165 50 -25 7 -76 23
-115 36 -38 13 -72 24 -75 24 -3 1 -12 4 -20 8 -20 8 -124 41 -130 42 -3 0
-18 5 -35 12 -53 20 -137 51 -240 88 -122 45 -488 191 -527 211 -15 8 -28 12
-28 8 0 -4 -6 -2 -12 4 -7 5 -47 24 -88 42 -79 35 -144 63 -250 112 -116 54
-573 283 -670 338 -52 29 -118 65 -146 80 -180 98 -531 310 -696 421 -32 22
-62 39 -67 39 -5 0 -11 3 -13 8 -1 4 -43 34 -93 67 -49 33 -129 88 -177 123
-48 34 -92 62 -97 62 -5 0 -11 4 -13 8 -1 5 -37 33 -78 63 -41 29 -81 59 -88
66 -7 7 -17 13 -20 13 -4 0 -18 10 -32 23 -14 12 -41 33 -60 47 -59 40 -367
287 -497 396 l-121 104 -112 -150z"/>
</g>
</svg>
