<?xml version="1.0" standalone="no"?>
<!DOCTYPE svg PUBLIC "-//W3C//DTD SVG 20010904//EN"
 "http://www.w3.org/TR/2001/REC-SVG-20010904/DTD/svg10.dtd">
<svg version="1.0" xmlns="http://www.w3.org/2000/svg"
 width="824.000000pt" height="824.000000pt" viewBox="0 0 824.000000 824.000000"
 preserveAspectRatio="xMidYMid meet">
<metadata>
Created by potrace 1.14, written by Peter Selinger 2001-2017
</metadata>
<g transform="translate(0.000000,824.000000) scale(0.100000,-0.100000)"
fill="#000000" stroke="none">
<path d="M8088 8212 c-66 -41 -214 -137 -223 -145 -5 -4 -44 -30 -85 -56 -41
-27 -154 -100 -250 -163 -96 -63 -213 -139 -260 -168 -47 -30 -89 -58 -95 -63
-23 -19 -148 -97 -155 -97 -5 0 -10 -3 -12 -8 -1 -4 -59 -44 -128 -88 -115
-75 -276 -180 -612 -400 -71 -46 -132 -84 -137 -84 -5 0 -11 -4 -13 -8 -3 -8
-84 -66 -103 -73 -11 -4 -127 -81 -135 -89 -3 -3 -13 -9 -22 -15 -9 -5 -76
-48 -148 -95 -72 -47 -138 -89 -147 -95 -9 -5 -22 -14 -27 -18 -6 -5 -74 -49
-151 -99 -77 -50 -203 -133 -280 -183 -219 -144 -348 -228 -367 -240 -28 -16
-322 -209 -333 -217 -5 -5 -104 -70 -220 -144 -115 -75 -253 -165 -305 -199
-322 -211 -479 -313 -507 -330 -18 -11 -33 -23 -33 -27 0 -4 -4 -8 -10 -8 -5
0 -74 -42 -152 -93 -79 -52 -190 -124 -248 -162 -58 -38 -158 -104 -224 -147
-65 -43 -120 -78 -123 -78 -2 0 -9 -5 -16 -11 -7 -6 -62 -43 -123 -82 -60 -40
-155 -101 -210 -137 -54 -35 -196 -127 -315 -205 -118 -77 -223 -144 -231
-150 -9 -5 -55 -36 -104 -68 -49 -32 -95 -62 -103 -67 -13 -8 -15 -45 -7 -135
2 -22 7 -82 11 -134 4 -51 9 -103 11 -115 2 -11 7 -61 10 -111 4 -49 7 -96 8
-103 3 -17 1704 -1709 1719 -1709 28 -1 197 -14 243 -19 52 -6 103 -9 250 -19
l92 -6 123 193 c121 188 178 278 199 308 5 8 40 62 77 120 36 58 70 107 75
108 4 2 8 8 8 13 0 8 65 112 171 273 22 32 39 60 39 62 0 1 31 49 68 106 38
57 89 134 113 172 91 144 148 231 158 243 6 7 11 14 11 17 0 5 91 150 108 171
4 6 23 35 42 65 19 30 38 57 42 58 5 2 8 7 8 12 0 7 288 461 309 486 4 5 14
21 21 34 7 14 18 30 24 37 6 6 43 61 81 123 39 61 105 165 148 230 42 66 77
124 77 129 0 6 6 14 13 18 6 4 17 17 23 28 11 19 213 333 299 466 24 36 76
117 116 180 40 63 77 117 83 121 6 4 8 8 4 8 -4 0 17 36 47 80 30 44 55 82 55
85 0 3 5 11 10 18 6 7 32 46 59 87 26 41 68 107 93 145 25 39 67 104 94 145
27 41 53 83 59 92 5 10 57 90 115 179 58 88 110 168 115 178 25 43 119 187
125 191 4 3 10 12 13 20 4 8 20 34 35 57 15 24 51 80 80 125 29 46 80 124 113
173 33 50 62 98 66 108 3 9 9 17 14 17 5 0 9 5 9 10 0 6 5 16 10 23 6 7 54 80
106 162 53 83 111 173 129 200 18 28 55 86 83 130 28 44 56 85 62 92 5 7 10
17 10 23 0 5 5 10 10 10 6 0 10 4 10 9 0 6 42 74 93 153 51 79 115 178 143
222 27 43 64 98 81 122 35 47 33 52 -9 26z m-691 -738 c-23 -36 -50 -80 -61
-97 -10 -18 -22 -33 -27 -35 -5 -2 -9 -8 -9 -14 0 -5 -13 -28 -28 -51 -52 -76
-241 -370 -267 -415 -5 -9 -13 -19 -16 -22 -3 -3 -12 -16 -19 -29 -7 -14 -17
-30 -22 -35 -5 -6 -49 -74 -98 -151 -49 -77 -92 -145 -97 -151 -4 -5 -12 -18
-18 -27 -41 -69 -201 -313 -207 -315 -4 -2 -8 -8 -8 -12 0 -8 -177 -288 -190
-300 -3 -3 -23 -34 -44 -69 -49 -81 -161 -252 -175 -268 -6 -7 -11 -14 -11
-17 0 -9 -144 -231 -152 -234 -5 -2 -8 -10 -8 -18 0 -8 -4 -14 -10 -14 -5 0
-10 -4 -10 -10 0 -5 -33 -61 -74 -122 -72 -111 -386 -599 -575 -893 -53 -82
-99 -154 -104 -160 -14 -18 -117 -179 -124 -195 -4 -8 -11 -19 -16 -25 -9 -11
-170 -260 -207 -320 -13 -22 -28 -44 -33 -50 -4 -5 -54 -82 -110 -170 -56 -88
-107 -166 -114 -173 -7 -7 -13 -19 -13 -27 0 -7 -4 -15 -8 -17 -4 -1 -45 -61
-91 -133 -45 -71 -108 -169 -139 -217 -31 -49 -103 -159 -158 -245 -56 -87
-119 -184 -140 -217 -22 -32 -43 -66 -49 -75 -35 -58 -60 -97 -67 -106 -10
-12 -33 -47 -122 -187 -37 -60 -72 -106 -77 -103 -4 3 -41 8 -81 10 -40 3 -98
7 -128 10 -30 2 -84 7 -119 10 l-65 5 -599 598 c-329 328 -688 686 -798 796
-224 223 -199 180 -214 366 -9 121 -15 184 -19 205 -4 23 20 55 41 55 7 0 16
7 19 15 4 8 11 15 18 15 7 0 21 7 31 15 11 9 63 43 115 77 52 34 141 92 198
130 57 37 105 68 108 68 3 0 10 5 17 10 27 23 209 140 218 140 5 0 9 3 9 8 0
4 27 23 60 42 33 19 60 38 60 43 0 4 4 7 9 7 8 0 39 20 131 81 24 16 568 371
835 545 83 54 203 133 269 176 65 43 122 78 126 78 5 0 10 3 12 8 2 4 28 23
58 42 30 19 57 37 60 40 3 3 23 17 45 30 34 21 373 241 415 270 8 5 67 44 130
84 63 41 120 79 125 84 6 4 33 21 60 37 28 16 55 33 60 38 14 11 267 177 271
177 1 0 39 25 83 55 44 30 85 55 91 55 5 0 10 5 10 10 0 6 5 10 10 10 6 0 16
5 23 11 7 5 73 50 147 98 74 49 194 126 265 173 399 261 456 297 458 295 1 -1
13 7 25 19 12 11 35 27 50 35 15 8 29 16 32 19 3 3 30 21 60 40 30 19 57 38
58 42 2 5 8 8 13 8 4 0 52 29 104 65 53 36 98 65 99 65 2 0 34 20 72 45 38 25
76 50 84 56 286 188 443 289 451 289 5 0 9 4 9 9 0 5 8 12 19 16 10 3 31 17
47 30 50 43 55 27 11 -41z"/>
<path d="M5520 5718 c-85 -33 -164 -64 -175 -69 -20 -9 -432 -167 -450 -173
-17 -5 -48 -17 -82 -32 -17 -8 -37 -14 -45 -14 -8 0 -18 -4 -23 -8 -6 -5 -50
-24 -100 -42 -180 -66 -168 -56 -473 -364 l-283 -286 373 -370 c205 -203 376
-370 380 -370 3 0 136 130 294 289 l287 289 39 104 c21 56 41 110 45 118 3 8
7 17 8 20 0 3 11 32 23 65 27 73 31 83 33 93 0 4 6 16 12 27 6 11 12 27 13 35
2 8 7 23 12 35 24 51 275 716 269 714 -1 -1 -72 -28 -157 -61z m-90 -198 c0
-5 -9 -33 -21 -62 -22 -57 -131 -344 -236 -622 -34 -93 -69 -179 -77 -190 -19
-29 -446 -456 -455 -456 -5 0 -131 122 -281 271 l-272 271 231 232 c166 166
243 236 269 245 54 20 350 133 557 213 99 38 185 71 190 72 6 1 20 8 33 14 12
7 22 9 22 5 0 -4 5 -2 12 5 14 14 28 16 28 2z"/>
<path d="M3797 7814 c-1 -1 -56 -5 -122 -8 -66 -3 -136 -8 -155 -11 -79 -10
-136 -18 -160 -20 -195 -23 -551 -120 -775 -212 -147 -60 -302 -133 -415 -196
-30 -16 -64 -35 -75 -41 -11 -6 -27 -16 -35 -22 -8 -6 -35 -22 -60 -35 -25
-13 -47 -26 -50 -29 -7 -7 -123 -84 -134 -89 -14 -6 -246 -180 -287 -215 -211
-181 -387 -357 -525 -526 -74 -90 -219 -287 -261 -355 -38 -62 -113 -187 -138
-230 -40 -70 -161 -315 -170 -345 -4 -14 -11 -29 -15 -35 -21 -27 -170 -471
-184 -547 -2 -13 -9 -43 -16 -68 -7 -25 -13 -52 -15 -60 -1 -8 -6 -35 -11 -60
-4 -25 -8 -47 -9 -50 -1 -6 -15 -82 -21 -125 -9 -49 -15 -97 -29 -230 -3 -22
-8 -129 -11 -237 -5 -145 -4 -198 5 -198 6 0 11 8 12 18 4 96 16 252 24 312 2
19 7 56 10 82 8 77 13 105 41 268 3 14 7 33 10 42 3 10 7 29 10 42 2 13 18 75
34 138 17 62 32 118 33 123 1 6 6 16 10 23 5 6 6 12 3 12 -3 0 4 24 15 53 12
28 22 59 24 67 17 85 246 579 324 700 102 158 186 286 191 290 3 3 38 49 78
103 41 53 79 97 85 97 5 0 8 3 4 6 -6 6 9 24 123 147 145 158 291 290 515 465
15 12 208 145 231 159 128 80 471 263 504 269 3 0 16 5 30 11 52 23 85 36 95
39 6 1 45 17 89 34 144 56 471 149 616 174 19 3 46 8 60 11 47 10 144 25 185
30 17 2 46 7 65 10 19 4 53 8 75 10 22 1 90 6 150 11 190 14 683 7 776 -11 13
-3 47 -7 74 -10 208 -21 689 -130 860 -195 19 -7 25 -6 25 3 0 22 -222 128
-400 192 -58 20 -114 41 -125 46 -11 4 -54 17 -95 29 -41 11 -97 27 -125 35
-27 8 -61 16 -75 19 -14 2 -70 13 -125 24 -55 12 -122 24 -150 27 -173 22
-188 24 -285 30 -81 6 -329 13 -333 9z"/>
<path d="M7270 5845 c0 -3 11 -22 24 -43 19 -31 136 -268 166 -337 48 -110
112 -288 160 -440 18 -58 65 -248 76 -305 2 -14 7 -36 9 -50 11 -55 15 -76 20
-115 3 -22 8 -51 10 -65 5 -25 13 -88 21 -165 22 -207 22 -589 0 -770 -2 -16
-7 -58 -10 -92 -4 -34 -8 -70 -10 -80 -2 -10 -7 -38 -11 -63 -4 -25 -9 -54
-11 -65 -2 -11 -9 -47 -15 -80 -6 -33 -24 -112 -40 -175 -17 -63 -32 -122 -34
-130 -2 -8 -4 -16 -5 -17 -2 -2 -3 -6 -4 -10 -23 -86 -111 -331 -151 -419 -14
-31 -27 -61 -28 -68 -1 -6 -4 -13 -7 -16 -3 -3 -32 -59 -65 -125 -107 -215
-305 -519 -429 -662 -6 -7 -16 -18 -21 -25 -78 -96 -264 -291 -376 -393 -45
-42 -195 -167 -263 -220 -21 -16 -44 -34 -50 -40 -15 -13 -64 -48 -124 -88
-26 -17 -49 -34 -52 -37 -3 -3 -23 -17 -45 -30 -22 -13 -42 -27 -45 -30 -3 -4
-12 -10 -20 -13 -8 -4 -27 -15 -41 -25 -53 -34 -209 -122 -218 -122 -5 0 -11
-3 -13 -7 -4 -11 -237 -125 -338 -166 -204 -84 -529 -190 -641 -211 -13 -3
-24 -5 -24 -6 0 -1 -11 -3 -25 -6 -14 -2 -68 -13 -120 -24 -139 -29 -149 -31
-250 -45 -30 -4 -64 -9 -75 -11 -11 -3 -49 -7 -85 -9 -74 -6 -122 -14 -129
-21 -15 -15 37 -19 247 -19 286 0 366 6 622 50 149 26 373 83 490 127 30 11
64 22 75 24 11 2 29 8 40 13 41 20 170 71 179 71 5 0 17 6 25 13 9 8 36 21 61
30 37 14 221 110 320 168 46 27 295 194 311 209 32 30 59 50 68 50 5 0 11 3
13 8 2 4 43 40 91 81 94 78 335 315 403 397 34 41 134 166 190 239 8 11 23 32
32 48 9 15 20 27 24 27 4 0 8 6 8 13 0 6 9 23 20 37 76 93 242 394 343 621 64
142 193 522 210 619 3 14 10 45 17 70 7 25 14 54 16 65 10 48 34 183 39 215 3
19 7 46 10 60 9 51 17 130 31 300 10 123 5 600 -6 600 -3 0 -6 19 -6 43 -2 68
-27 244 -48 347 -3 14 -10 48 -16 75 -6 28 -12 59 -15 70 -3 11 -7 29 -9 40
-14 60 -52 192 -81 280 -48 145 -78 223 -133 345 -9 19 -17 37 -17 40 -2 13
-90 188 -107 213 -11 15 -17 27 -14 27 3 0 -10 25 -29 55 -19 30 -35 59 -35
65 0 5 -3 10 -7 10 -5 0 -17 18 -27 40 -11 22 -25 40 -33 40 -7 0 -13 -2 -13
-5z"/>
<path d="M3566 5762 c-2 -1 -30 -5 -62 -7 -32 -3 -81 -7 -109 -10 -27 -3 -70
-8 -95 -11 -25 -2 -56 -7 -70 -9 -55 -10 -97 -16 -135 -20 -22 -2 -58 -7 -80
-11 -22 -4 -52 -8 -67 -8 -16 -1 -28 -3 -28 -6 0 -4 -10 -6 -22 -7 -13 0 -39
-3 -58 -7 -19 -4 -98 -18 -175 -32 -77 -14 -225 -43 -330 -65 -104 -22 -203
-42 -220 -45 -138 -24 -147 -30 -263 -148 -166 -168 -242 -249 -412 -436 -160
-176 -230 -259 -230 -272 0 -5 4 -8 9 -8 9 0 45 -29 113 -92 22 -21 43 -38 47
-38 3 0 22 -15 41 -33 61 -56 229 -187 240 -187 6 0 9 -4 6 -9 -3 -5 3 -11 14
-14 16 -4 18 -2 10 12 -5 10 -16 23 -24 31 -9 7 -16 18 -16 25 0 8 -4 15 -8
17 -4 2 -35 37 -67 78 -33 41 -64 80 -70 86 -5 6 -25 29 -43 52 -19 23 -43 51
-53 63 l-20 23 46 43 c26 24 48 43 50 43 2 0 19 15 37 33 19 17 86 79 148 137
127 118 210 197 320 305 41 41 86 76 100 79 20 4 222 50 265 60 6 2 24 6 40
10 42 10 107 27 125 34 8 2 22 6 30 7 8 1 35 8 60 15 25 6 53 14 62 16 10 2
26 6 37 8 10 2 51 14 92 26 41 12 79 23 84 25 26 5 109 29 200 57 55 18 106
33 113 34 11 2 69 20 132 42 8 3 20 6 25 8 15 3 186 63 210 73 11 5 36 15 55
24 l35 16 -43 -2 c-24 -1 -45 -3 -46 -5z"/>
<path d="M5667 3688 c-67 -192 -140 -407 -143 -423 -2 -11 -19 -72 -39 -135
-47 -150 -166 -591 -179 -663 -2 -15 -7 -31 -10 -35 -3 -5 -8 -24 -10 -43 -3
-19 -10 -52 -16 -74 -10 -36 -15 -60 -25 -105 -2 -8 -4 -15 -5 -15 -1 0 -3
-12 -5 -26 -2 -16 -35 -58 -87 -111 -160 -164 -431 -455 -526 -565 -11 -13
-22 -23 -26 -23 -5 0 -81 61 -153 124 -17 15 -29 24 -103 81 -36 27 -80 62
-98 77 -42 36 -60 36 -27 1 14 -15 25 -31 25 -34 0 -3 9 -17 21 -30 11 -13 30
-37 42 -52 12 -16 27 -34 32 -40 10 -11 82 -100 115 -140 66 -81 142 -167 149
-167 3 0 20 12 36 26 57 48 138 119 166 144 211 192 291 267 487 458 l123 120
48 224 c27 122 52 239 55 258 3 19 8 46 10 60 3 14 7 37 10 52 2 15 7 31 10
36 3 4 7 30 10 58 3 27 12 83 20 124 8 41 17 93 20 115 4 22 11 65 16 95 10
55 19 118 26 175 5 46 13 107 19 140 5 33 12 100 20 190 3 33 8 84 10 113 3
28 4 52 1 52 -2 0 -10 -19 -19 -42z"/>
<path d="M1680 2481 c-41 -16 -88 -33 -103 -40 -16 -6 -32 -11 -37 -11 -5 0
-25 -9 -45 -20 -19 -11 -37 -20 -40 -19 -3 0 -24 -9 -48 -19 -23 -10 -62 -27
-87 -38 -24 -10 -68 -30 -97 -44 l-52 -25 32 -36 c18 -20 47 -53 65 -75 172
-203 549 -579 793 -791 l107 -92 23 47 c13 26 30 54 37 64 8 9 15 22 16 30 1
7 11 29 21 48 11 19 20 37 20 40 1 3 21 46 44 95 23 50 46 99 51 110 23 49 60
149 56 152 -4 4 -115 -118 -195 -217 -34 -41 -71 -86 -82 -100 l-21 -24 -20
24 c-74 92 -421 446 -564 575 -120 107 -127 115 -123 119 2 1 69 52 149 113
160 121 210 163 189 162 -8 0 -48 -13 -89 -28z"/>
</g>
</svg>
